<?xml version="1.0" standalone="no"?>
<!DOCTYPE svg PUBLIC "-//W3C//DTD SVG 1.1//EN" "http://www.w3.org/Graphics/SVG/1.1/DTD/svg11.dtd" >
<svg xmlns="http://www.w3.org/2000/svg" xmlns:xlink="http://www.w3.org/1999/xlink" version="1.1">
<metadata></metadata>
<defs>
<font id="magic_bean_saladeregular" horiz-adv-x="782" >
<font-face units-per-em="2048" ascent="1638" descent="-410" />
<missing-glyph horiz-adv-x="387" />
<glyph horiz-adv-x="0" />
<glyph unicode="&#xd;" horiz-adv-x="387" />
<glyph unicode=" "  horiz-adv-x="387" />
<glyph unicode="&#x09;" horiz-adv-x="387" />
<glyph unicode="&#xa0;" horiz-adv-x="387" />
<glyph unicode="!" horiz-adv-x="714" d="M205 10q-2 2 0 14.5t5 25.5t6 23.5t5 12.5q2 4 14.5 2t47.5 -18q4 -2 3 -11.5t-5.5 -20.5t-9.5 -22.5t-9 -15.5q-14 -2 -35.5 3t-21.5 7zM245 158.5q1 7.5 3 17.5q2 23 17.5 109t37 203.5t46 251.5t47 253t40 205t23.5 109q8 35 16 54t43 11q6 -2 -4 -72.5t-29.5 -182 t-45 -250t-52.5 -271.5t-49.5 -249t-36.5 -181q-2 -8 -3 -16.5t-5 -14.5q-12 -18 -26.5 -13t-18.5 19q-4 10 -3 17.5z" />
<glyph unicode="#" horiz-adv-x="825" d="M210 1061q-3 6 11 43q4 6 20.5 4t45.5 -8q8 29 15 59.5t15 59.5q-12 4 -20 7t-12 5q-10 4 -13.5 10t11.5 41q4 10 51 0q2 10 4 17.5t2 11.5q4 10 10 13t43 -7q10 -4 4 -53q27 -8 55.5 -18.5t57.5 -20.5q2 10 4 17t2 11q4 10 10 14.5t43 -5.5q6 -4 6 -20.5t-4 -41.5 q12 -6 21.5 -10t15.5 -8q4 0 8 -6q2 -10 -4 -24.5t-12 -21.5q-6 -4 -12 -4q-4 2 -11.5 3t-17.5 6q-12 -61 -33 -121q6 -4 11.5 -6t9.5 -4t8 -7q2 -10 -5 -25.5t-13 -21.5q-4 -4 -11 -2q-2 0 -18 4l-4 -12t-4 -10q-2 -2 -2 -3t-4 -3q-10 -4 -25.5 1t-22.5 11q-4 4 -4 10 q0 4 7 27q-29 8 -59 18t-58 21q-2 -8 -4 -14.5t-4 -10.5q-2 -2 -2 -4t-5 -4q-10 -4 -25.5 2t-21.5 12q-4 4 -4 11q0 6 6 28q-18 8 -31.5 12.5t-17.5 6.5q-10 4 -13 10zM354 1079q27 -10 54.5 -19.5t54.5 -19.5q6 29 13 58.5t16 58.5q-27 10 -54.5 18.5t-54.5 18.5 q-12 -57 -29 -115z" />
<glyph unicode="$" horiz-adv-x="1228" d="M203.5 392.5q1.5 72.5 17.5 137.5q16 66 53 124.5t99 86.5q61 29 123.5 13.5t101.5 -54.5q0 -2 2 -2q4 14 9 28.5t12 29.5q-35 43 -63 97t-32 114q-35 -6 -67.5 -9.5t-67.5 0.5q-47 4 -89 34t-52 75q-10 43 1 76t21 55q20 33 41 20.5t2 -53.5q-4 -8 -8 -22.5t-5 -31.5 t5 -35.5t23 -33.5q31 -29 85 -26.5t115 12.5q12 70 58.5 120t105.5 73q47 18 101 14q10 20 22 28.5t39 -1.5q2 -2 -6 -39q47 -16 76 -45q41 -39 63.5 -84t26.5 -90q4 -47 -5.5 -83t-24.5 -64t-32.5 -45t-29.5 -24q-29 -18 -57.5 -23t-55.5 -1t-47.5 14t-30.5 23 q-12 10 -14 20q-6 -16 -12.5 -30.5t-10.5 -30.5q20 -25 38 -51.5t34 -55.5q41 -66 70.5 -139.5t35.5 -157.5q10 -84 -23.5 -165.5t-105.5 -131.5q-70 -49 -153.5 -57t-159.5 21q-2 0 -3 1t-3 1q-2 -2 -2 -3.5t-2 -3.5q-16 -16 -29.5 -9t-17.5 24v16q-53 35 -93 86t-57 111 q-23 74 -21.5 146.5zM265.5 434.5q-5.5 -59.5 5 -119t39 -112.5t81.5 -90q0 -2 2 -2q12 35 31.5 91t44.5 126.5t52.5 149.5t56.5 161q-8 10 -17.5 20.5t-23.5 18.5q-27 18 -65 23.5t-75 -11.5q-39 -16 -67.5 -55t-44.5 -90q-14 -51 -19.5 -110.5zM449 82q43 -16 91 -20.5 t93 10.5q63 18 109.5 65t62.5 113q12 57 6 115.5t-25.5 114t-50 108.5t-63.5 102q-6 -16 -12.5 -32.5t-12.5 -32.5q10 -27 14.5 -51.5t4.5 -47.5q0 -57 -17 -102q-14 -29 -23.5 -38t-14.5 -5t-6 18.5t1 32.5q4 25 6 45.5t2 46.5v8q-49 -135 -93 -253.5t-72 -196.5zM586 977 q4 -47 20 -84t39 -68q16 47 31.5 89t30.5 81q-29 -4 -60 -9t-61 -9zM596 1042q10 0 27 5q53 10 106 12q14 37 24.5 66.5t18.5 50.5q-35 -2 -68.5 -16.5t-60.5 -41.5q-31 -31 -47 -76zM735 870q2 -2 4 -2t4 -2q14 -6 40 -14t59 8q18 10 30.5 37t-0.5 53q-8 23 -33.5 33 t-60.5 12q-10 -29 -21.5 -60.5t-21.5 -64.5zM799 1057q2 -2 6 -2q23 0 46 -9.5t42.5 -25.5t32 -39t12.5 -47q0 -53 -29 -88l11 10q23 27 35 68t3 86q-10 43 -38.5 87t-75.5 66q-4 0 -8 4q-16 -49 -37 -110z" />
<glyph unicode="%" horiz-adv-x="731" d="M106 1124q6 43 26 63.5t28 26.5q14 10 26.5 9.5t22.5 -35.5q4 -6 -6 -15.5t-19 -25.5q-10 -18 -9 -37.5t22 -26.5q16 -12 42.5 2.5t39.5 36.5q12 23 6 33t-23 19q-4 2 -8 6q-4 10 0 26.5t14 20.5q8 4 17 2q2 0 11 -4t20.5 -12.5t21.5 -25t14 -40.5q-2 -47 -31.5 -83 t-78.5 -52q-27 -8 -53.5 -2t-47.5 22q-23 18 -31 44t-4 48zM135 -33q2 20 13.5 79.5t31 146t43 189.5t49 210.5t50 213t46 191.5t37 147.5t21.5 84.5q10 37 19.5 57t48.5 10q6 -2 -7.5 -78.5t-40 -198.5t-61.5 -270.5t-70.5 -293t-67.5 -268.5t-50 -195q-16 -63 -41 -67.5 t-21 42.5zM283 117q6 43 26.5 63.5l26.5 26.5q16 10 28.5 9t22.5 -36q2 -6 -7 -15t-20 -26q-10 -18 -9 -37.5t22 -25.5q16 -12 43.5 2t40.5 37q10 23 4 33t-23 18q-2 2 -4 2t-4 4q-4 10 1 26.5t13 20.5q9 4 17 2q2 0 12 -4t21.5 -13t21.5 -24.5t12 -42.5q0 -47 -30.5 -82 t-77.5 -51q-29 -8 -54.5 -2t-48.5 23q-23 18 -30.5 43.5t-3.5 48.5z" />
<glyph unicode="&#x26;" horiz-adv-x="1017" d="M199 294q-2 83 34 159q27 59 75 103t104 75q-4 8 -4 10q-25 57 -44.5 120.5t-25.5 135.5t6 147.5t59 143.5q23 35 59 59.5t81 34.5t90 -2t78 -41q35 -31 56 -68.5t31.5 -78.5t11.5 -83t-1 -81q-4 -41 -16.5 -82t-36.5 -78q-25 -37 -57.5 -62.5t-67.5 -46.5 q-35 -18 -68 -32.5t-63 -30.5q16 -35 32.5 -65.5t32.5 -59.5q66 -117 133 -213q8 35 7.5 60.5t-3.5 39.5q-6 49 -21 83t-29.5 57.5t-21.5 40t5 32.5q0 2 30.5 -17t63.5 -79q27 -47 37 -123t-23 -162q10 -14 19.5 -27t17.5 -28q16 -23 31 -43.5t25 -40.5q14 -29 15 -43 t-6 -16t-19.5 5t-26.5 21q-20 23 -34.5 40.5t-31.5 41.5q-6 10 -20 29q0 -4 -4 -8q-33 -51 -92.5 -86t-131.5 -37q-35 -4 -71.5 5t-69.5 28.5t-60.5 47t-45.5 62.5q-37 70 -39 153zM269 305.5q-1 -59.5 21.5 -114t65.5 -85.5q39 -35 88.5 -39t92.5 7q45 10 76 36.5t49 57.5 q4 4 5 9t5 9q-45 61 -105.5 156.5t-124.5 224.5q-18 -10 -34.5 -21t-32.5 -24q-53 -41 -79 -99t-27 -117.5zM403 958q0 -78 19.5 -152.5t48.5 -143.5q4 0 8 4q72 33 137.5 68.5t96.5 99.5q29 61 28.5 140t-26.5 142q-12 33 -36 56.5t-52.5 35t-59 9t-57.5 -20.5 q-55 -35 -80 -102.5t-27 -135.5zM731 102q2 0 2 -2z" />
<glyph unicode="'" horiz-adv-x="407" d="M195 1262q12 18 20 43q8 20 16.5 49.5t12.5 66.5q0 12 13 15.5t27.5 0.5t26 -14.5t11.5 -29.5q-4 -35 -18.5 -60.5t-31 -45t-32 -31t-23.5 -15.5q-10 -4 -20.5 2t-1.5 19z" />
<glyph unicode="(" horiz-adv-x="634" d="M99 183q-5 120 14 243q18 125 57 238.5t88 201.5q47 88 94 140.5t64 68.5q33 31 57.5 43.5t44.5 -18.5q4 -6 -31.5 -39t-87.5 -98q-51 -66 -100 -165.5t-82 -215.5q-33 -117 -44 -243t1 -239q10 -115 45 -200.5t70 -132.5q6 -10 11 -17.5l9 -13.5q10 -23 -3 -33t-32 -2 q-16 10 -32 29q-14 16 -50 76.5t-61 158.5q-27 98 -32 218z" />
<glyph unicode=")" horiz-adv-x="518" d="M-4 -287q-4 6 31.5 39t87.5 98q51 66 100 165.5t82 215.5q33 117 44 243t-1 239q-10 115 -45 200.5t-70 133.5q-6 10 -11 17t-9 13q-10 23 3 33t32 2q16 -10 32 -29q14 -16 50 -76.5t61 -158.5q27 -98 32 -218t-14 -243q-18 -125 -57 -238.5t-88 -201.5 q-47 -88 -94 -140.5t-64 -68.5q-33 -31 -57.5 -43.5t-44.5 18.5z" />
<glyph unicode="*" horiz-adv-x="716" d="M205 1286q0 10 29.5 14.5t70.5 4.5q-23 61 -31 77q-4 8 0.5 14.5t38.5 20.5q10 4 25.5 -21.5t32.5 -62.5q20 23 35.5 39.5t19.5 20.5q4 6 11 6t36 -27q6 -6 -5 -25.5t-34 -46.5q20 -4 37.5 -5t30.5 -3q4 0 8 -4q4 -10 3 -25.5t-5 -23.5q-6 -6 -8 -6q-6 -2 -31 -2t-59 2 l28 -86q0 -6 -2 -8q-6 -8 -21.5 -13.5t-23.5 -5.5t-8 4q-4 4 -14.5 27t-22.5 53q-18 -18 -35.5 -33.5t-27.5 -25.5q-4 -4 -9 -4q-10 4 -21 14t-15 19q0 8 2 12v-2q2 4 13 18.5t28 32.5q-23 0 -39.5 1t-20.5 1q-10 0 -15 5t-1 44z" />
<glyph unicode="+" horiz-adv-x="512" d="M100 172q2 10 39 14t86 4q6 39 11.5 68t7.5 37t8 12t43 -4q10 -2 9 -36t-7 -81q31 -2 57.5 -4t42.5 -4l9 -4q4 -10 3 -25.5t-6 -23.5q-2 -6 -8 -6q-6 -2 -37.5 -2t-72.5 2q-8 -35 -15.5 -64.5t-13.5 -46.5q0 -6 -4 -6q-10 -4 -25.5 0t-23.5 8q-4 4 -4 10v-2q0 8 4 36 t10 65q-35 2 -62.5 3t-33.5 1q-8 0 -13.5 5t-3.5 44z" />
<glyph unicode="," horiz-adv-x="387" d="M182 -92q6 49 15 88q4 33 9 60.5t7 29.5q0 4 12 2t47 -18q8 -4 -2 -32t-16 -38q-23 -47 -48.5 -69.5t-23.5 -22.5z" />
<glyph unicode="-" horiz-adv-x="714" d="M221 338q0 12 32 15t73 3t84 -4t67 -8q6 0 8 -4q4 -8 3 -24.5t-5 -24.5q-4 -6 -8 -6q-8 -2 -43 -2t-75 1t-75.5 3t-43.5 2q-8 2 -13.5 6t-3.5 43z" />
<glyph unicode="." horiz-adv-x="489" d="M203 24.5q2 12.5 5 25.5t7 23.5t6 12.5q0 4 12.5 2t47.5 -18q8 -4 -2.5 -32t-16.5 -38q-16 -2 -37.5 3t-19.5 7q-4 2 -2 14.5z" />
<glyph unicode="/" horiz-adv-x="579" d="M187 -48.5q1 9.5 3 19.5v-2q2 25 18.5 119t40 223t50.5 275.5t51.5 276.5t42 224.5t23.5 118.5q8 37 17 58.5t46 13.5q6 0 1 -45t-16 -122t-28.5 -176t-38 -209t-42 -223.5t-42 -216t-38 -187.5t-27.5 -140q-2 -10 -3 -18.5t-5 -14.5q-12 -23 -28.5 -16.5t-21.5 22.5 q-4 10 -3 19.5z" />
<glyph unicode="0" horiz-adv-x="985" d="M100 426q-6 125 11.5 239.5t48.5 215.5q29 100 70.5 180t82.5 137t78 93t58 48q78 59 138 66.5t62 -29.5q2 -4 -24.5 -11t-69.5 -29.5t-95 -65.5t-102 -119q-47 -72 -88 -167t-67.5 -205.5t-32.5 -232.5t16 -247q14 -59 41 -115.5t74 -87.5q47 -33 105.5 -29.5 t105.5 37.5q49 37 87 85.5t67.5 103.5t52 113.5t39.5 113.5q33 113 47 224.5t9 208t-28.5 173t-64.5 121.5q-14 16 -27.5 26.5t-27.5 20.5q-39 23 -31 38.5t49 6.5q45 -14 82 -53l-2 2q16 -16 44 -60t46 -114q18 -68 24.5 -157t-4.5 -193q-10 -102 -36.5 -214t-77.5 -226 q-27 -57 -59.5 -112.5t-79.5 -105.5q-45 -47 -110 -82.5t-142 -25.5q-76 8 -133.5 60.5t-81.5 113.5q-29 63 -39.5 126.5t-14.5 127.5z" />
<glyph unicode="1" horiz-adv-x="772" d="M96 736.5q0 13.5 19 31.5q39 35 86 83t98 103t100.5 118t92.5 123t77.5 115.5t53.5 98.5q12 23 28.5 17.5t20.5 -21.5q2 -10 -6.5 -72.5t-23.5 -158t-34.5 -214t-41 -241.5t-43 -238.5t-38 -207t-26.5 -146.5t-10 -57q82 -2 152.5 -4.5t111.5 -2.5q12 0 19 -10t7 -22.5 t-7 -21.5t-23 -9h-574q-10 0 -16 10t-8 21.5t0 21.5t10 10h39.5t64.5 1.5t80 2.5t84 3q4 45 16.5 121.5t29 173t35.5 207t39.5 221t39 215t35.5 192.5q-68 -102 -162 -213q-37 -47 -76 -89t-76 -79t-69.5 -65.5t-57.5 -46.5q-6 -4 -18 -2t-20.5 10t-8.5 21.5z" />
<glyph unicode="2" horiz-adv-x="927" d="M104 40q0 15 5.5 30.5t11.5 21.5q25 23 107.5 91.5t191.5 183.5q51 55 107.5 123.5t103.5 147.5t80.5 167t38.5 184q0 45 -8.5 92t-24 90t-39 80t-55.5 62q-33 25 -72 36t-78 9t-73.5 -15.5t-59.5 -35.5q-53 -47 -75.5 -106.5t-31.5 -108.5q-4 -25 -17 -38.5t-25.5 -13.5 t-19.5 17.5t-1 54.5q6 35 18.5 76t34 80t55 73.5t82.5 59.5q98 45 209 16q55 -14 101.5 -51t74.5 -86q55 -98 70.5 -211t-14.5 -221q-29 -106 -83.5 -197.5t-113.5 -169.5q-111 -145 -223.5 -247.5t-196.5 -167.5q57 0 139.5 1t166 1h157.5h115q6 0 8 -10.5t-1 -24t-8 -23.5 t-13 -10h-627q-10 0 -13.5 12.5t-3.5 27.5z" />
<glyph unicode="3" horiz-adv-x="985" d="M1 86q-1 12 4 23.5t13.5 18.5t18.5 3q106 -55 205.5 -59t181.5 30.5t142.5 104t88.5 162.5q31 88 16.5 164.5t-70.5 137t-155.5 100.5t-240.5 52q-31 4 -25 25.5t29 32.5q119 47 213 112.5t163.5 134t117 132t75.5 106.5h-95h-124.5h-136.5h-130.5h-106.5h-62 q-12 0 -16.5 9t-1 20.5t11.5 20.5t20 9h717q16 0 20 -17.5t-6 -33.5q-20 -29 -63 -90t-110.5 -135t-161 -149.5t-209.5 -129.5q123 -20 201.5 -60t125.5 -90t67.5 -104.5t25 -104.5t-3 -91t-13.5 -64q-59 -178 -182 -267t-271 -89q-57 0 -103 9t-80 21.5t-54.5 22.5 t-24.5 15q-10 6 -11 18z" />
<glyph unicode="4" horiz-adv-x="921" d="M97 434.5q-3 26.5 26 57.5q14 16 52 60t90 109.5t115.5 148.5t130.5 176t131.5 191.5t119.5 194.5q29 53 48 52t13 -42q-4 -39 -20.5 -139t-38 -230t-47 -272.5t-47.5 -267.5q35 -2 67.5 -2h53.5q12 0 17 -10t5 -22.5t-5 -22.5t-13 -10h-138q-10 -59 -21 -121t-20.5 -113 t-16.5 -88t-9 -49q-4 -18 -15.5 -27.5t-21.5 -8.5t-18.5 12.5t-6.5 29.5q4 27 10.5 69t14.5 91t17.5 102t17.5 103h-146.5t-140 1t-113 1h-59.5q-29 0 -32 26.5zM201 477q86 2 193.5 0t203.5 -4q14 86 31.5 179t34 185.5t32 179.5t29.5 161q-20 -43 -63.5 -107.5 t-95.5 -137.5t-109.5 -147.5t-108.5 -138t-91 -109.5t-56 -61z" />
<glyph unicode="5" horiz-adv-x="952" d="M96 377q2 29 12.5 43t21.5 14t19.5 -13t8.5 -40q-4 -63 12 -118.5t48 -97.5t74 -67.5t91 -27.5q86 0 149.5 36.5t109.5 87t72.5 105.5t39.5 94q76 248 -52.5 334t-431.5 35q-29 -6 -43 10t-6 43q6 27 13.5 68t16.5 89t18.5 100t19.5 104q23 119 45 251h495q14 0 23.5 -9 t10.5 -19t-6 -20.5t-28 -10.5q-8 -2 -40.5 -2h-77.5h-96.5t-96.5 1t-80 1h-45q-2 -23 -10 -68t-17.5 -99t-21.5 -113.5t-22.5 -111.5t-19.5 -91t-13 -56q119 20 219 17.5t174 -30.5t118 -83t52 -139q4 -53 -3 -105.5t-24 -105.5q-2 -10 -16 -42t-37.5 -75t-59.5 -90t-84 -86 t-109.5 -64.5t-135.5 -25.5q-43 0 -95 20.5t-97.5 65.5t-73 116.5t-21.5 174.5z" />
<glyph unicode="6" horiz-adv-x="817" d="M96 455.5q4 62.5 13 119.5q18 119 54 223.5t81 192.5q43 88 97 163t110.5 131t113 92t105.5 46q25 6 38 1t15 -14t-6 -21.5t-27 -18.5q-43 -16 -100.5 -52t-116.5 -106q-55 -61 -107.5 -144t-95.5 -182.5t-70.5 -212t-31.5 -233.5q-4 -59 6 -119.5t34.5 -110.5t64.5 -87 t98 -45q55 -12 109.5 -3t97.5 44q43 33 69.5 81t40.5 99q29 106 7.5 206.5t-79.5 166.5q-29 33 -62.5 52t-68 28.5t-67.5 12.5t-62 1q-20 -4 -38.5 -4t-34.5 -4q-47 -4 -46 13t31 34q23 10 41.5 13t42.5 7q23 0 69 1t111 -23q33 -10 67 -32.5t64.5 -55.5t54.5 -75t36 -93 q27 -98 12.5 -216t-94.5 -218q-41 -53 -101.5 -81t-126 -31t-130 19.5t-113.5 73.5q-47 53 -69.5 113.5t-31 123t-4.5 125zM350 825h2h-2z" />
<glyph unicode="7" horiz-adv-x="944" d="M98 1391.5q-2 13.5 6.5 24.5t28.5 11h668q27 0 36 -11t10 -26.5t-4 -29.5t-9 -19q-86 -135 -168 -268q-35 -57 -72 -119.5t-72 -125t-65.5 -124t-55.5 -114.5q59 -8 109.5 -15.5t79.5 -13.5q12 -2 19 -12t7 -20.5t-8 -18.5t-24 -6q-12 -2 -77 4t-138 14 q-37 -78 -69 -153.5t-55.5 -137t-36.5 -106.5t-15 -62q-6 -29 -18.5 -45t-24 -17t-18.5 14.5t-1 52.5q8 49 26.5 110.5t42 125t48 122.5t47.5 104q-47 4 -80 8.5t-41 4.5q-14 0 -21.5 9t-6.5 20.5t9.5 20.5t24.5 11q25 2 64 0t84 -6q39 86 98 195.5t122.5 217t123 201 t100.5 148.5q-53 0 -147.5 -1t-192.5 -1t-178 1t-102 1q-25 -2 -38.5 8t-15.5 23.5z" />
<glyph unicode="8" horiz-adv-x="966" d="M96.5 287q-0.5 45 9.5 84q18 84 69.5 152.5t115.5 117.5q43 35 88 62.5t92 52.5q-31 27 -57 69q-12 23 -38 74t-36 139q0 47 8 91.5t27 97.5q18 49 55 100t98 80q63 29 140 14.5t127 -73.5q51 -59 60 -138t-9 -151q-18 -78 -62.5 -141.5t-99.5 -116.5 q-25 -20 -49.5 -35.5t-46.5 -30.5q10 -8 21.5 -16t23.5 -19q23 -20 48.5 -48.5t49 -66.5t42 -85t24.5 -105q6 -55 -6.5 -117.5t-49.5 -119.5q-35 -57 -97 -98.5t-134 -53.5q-72 -14 -150.5 1.5t-144.5 62.5q-33 25 -59.5 57.5t-42.5 73.5t-16.5 86zM172 338q-14 -66 10 -119 q23 -55 74 -91t109 -50q57 -14 114.5 -6t104.5 30q47 25 78.5 62t48 79t21.5 84t-1 76q-10 72 -35 117.5t-39 63.5q-35 45 -66.5 74.5t-49.5 52.5q-31 -16 -59.5 -30.5t-55.5 -33.5q-61 -39 -115.5 -84t-89.5 -102t-49 -123zM406.5 1102q-9.5 -51 1.5 -92q8 -45 23 -83 t32 -69q25 -43 53 -74q0 -2 1 -2t1 -2q12 6 23.5 11.5t21.5 11.5q61 33 110.5 87t79 116.5t36 129t-20.5 126.5q-25 57 -79 82.5t-107 9.5q-53 -14 -91 -57.5t-57 -92.5q-18 -51 -27.5 -102zM412 827l2 -2q0 2 -2 2z" />
<glyph unicode="9" horiz-adv-x="882" d="M104 33q-2 4 24 9t68 22.5t95 52.5t108 98q55 61 107.5 143t95.5 181.5t70.5 211t34.5 232.5q2 57 -8.5 117.5t-35 112t-64.5 86t-97 44.5q-55 12 -109.5 3t-97.5 -43q-41 -33 -68.5 -80t-42.5 -101q-29 -104 -7 -204.5t79 -163.5q29 -33 62.5 -52.5t68.5 -28.5 t67.5 -12.5t61.5 -1.5q23 4 40 4.5t34 4.5q47 4 46 -13.5t-32 -33.5q-23 -10 -41 -13.5t-43 -7.5q-23 0 -68.5 -1t-111.5 24q-33 10 -66.5 32.5t-64.5 54t-54.5 74.5t-35.5 93q-27 98 -11.5 214.5t95.5 217.5q39 51 99 79.5t126 31.5t130.5 -19.5t113.5 -71.5 q45 -53 68.5 -113.5t30.5 -124t4 -125t-11 -118.5q-18 -117 -54 -220.5t-81 -191.5q-43 -90 -93.5 -157.5t-96.5 -116.5t-84 -78t-58 -37q-78 -47 -136.5 -49t-56.5 35zM520 600h2h-2z" />
<glyph unicode=":" horiz-adv-x="434" d="M104 10q-2 2 0 14.5t5.5 25.5t6.5 23.5t5 12.5q0 4 12 2t47 -18q8 -4 -2 -32t-16 -38q-16 -2 -38 3t-20 7zM156 276q-2 2 0 14.5t5 26t6 24.5t5 13t14 1t47 -17q8 -4 -2 -31.5t-16 -38.5q-8 -2 -17.5 -1t-19.5 3t-22 6z" />
<glyph unicode=";" horiz-adv-x="425" d="M88 -45q4 35 8 63q4 25 7 45.5t6 22.5q0 4 12 2t47 -18q8 -4 -2 -32t-16 -38q-14 -27 -38 -37t-24 -8zM143 276q-2 2 0 14.5t5.5 26t6.5 24.5t5 13t14 1t47 -17q8 -4 -2 -31.5t-16 -38.5q-8 -2 -17.5 -1t-19.5 3t-23 6z" />
<glyph unicode="=" horiz-adv-x="542" d="M102 53q0 12 38 15.5t87 3.5t98 -4.5t74 -8.5q4 0 9 -4q4 -10 3 -25.5t-5 -23.5q-2 -6 -9 -6q-8 -2 -49 -2t-89 1t-90 3t-50 2q-10 0 -14.5 5t-2.5 44zM131 250q0 12 37 15t87 3t99 -4t74 -8q4 0 8 -4q4 -10 3 -25.5t-5 -23.5q-4 -6 -8 -6q-8 -2 -49 -2t-89 1t-90 3 t-51 2q-10 0 -15 5t-1 44z" />
<glyph unicode="?" horiz-adv-x="1150" d="M211 10q-2 4 0 16.5t5 27t7 25.5t6 13q2 4 15.5 2t52.5 -18q4 -2 2 -12.5t-6 -22.5t-9 -23.5t-10 -17.5q-16 -2 -39.5 3t-23.5 7zM256 168q0 6 2 20.5t5 29.5t9.5 29.5t12.5 20.5q23 18 102.5 78t179.5 158q49 49 102.5 107.5t99.5 126t78 142t36 156.5q-2 80 -31 160 t-90 121q-31 20 -68 29.5t-73.5 7.5t-70.5 -13.5t-58 -31.5q-49 -37 -71 -89.5t-30 -93.5q-4 -23 -16.5 -34t-23.5 -10t-18 15.5t-1 47.5q6 31 17 64.5t31.5 67.5t52.5 63.5t79 50.5q45 20 95 23t104 -7q53 -14 96 -45t70 -74q53 -84 66 -182t-15 -191q-27 -92 -77 -169.5 t-108 -143.5q-53 -61 -108 -115.5t-108.5 -100.5t-102.5 -83t-88 -63q-8 -25 -9 -40.5t-10 -31.5q-2 -16 -12 -21.5t-20.5 -4.5t-19.5 8.5t-9 17.5z" />
<glyph unicode="@" horiz-adv-x="1574" d="M203 342q6 141 49 276.5t129 241.5t203.5 163.5t232.5 63.5q115 10 210 -21.5t159 -78.5q63 -47 95 -92t42 -68q47 -92 45 -155.5t-37 -63.5q-4 0 -7 29t-19 78t-53.5 112.5t-114.5 114.5q-74 49 -179.5 71t-222.5 -7q-115 -27 -215 -107t-160 -201q-57 -119 -77.5 -258 t8.5 -268q14 -66 47 -122t79 -99t102 -72t118 -37q123 -23 232.5 14.5t185.5 102.5q10 10 20 18.5t21 18.5q-29 4 -52 20q-31 31 -32.5 57.5t-5.5 51.5v37q-20 -29 -48 -59.5t-69 -59.5q-27 -18 -62.5 -30.5t-74.5 -12.5t-78 12.5t-72 42.5q-63 59 -82.5 143.5t-13.5 161.5 q6 78 31.5 156t74.5 139q47 63 117 99.5t141 31.5q72 -2 122 -41.5t73 -80.5q4 -10 8 -18.5t8 -18.5q0 4 3 14t6.5 21.5t5.5 20.5t2 11q4 14 15 20.5t21.5 5.5t17.5 -11.5t5 -24.5q-4 -31 -14 -79t-20.5 -106.5t-21.5 -122t-20 -124.5q-4 -45 -6 -91t8 -81q4 -20 33 -12 t51 43q47 66 72 133t41 108q2 10 10 27q14 16 29.5 9t19.5 -21v-21q0 -6 -2 -10t-8 -32t-20.5 -68.5t-38 -93t-58.5 -105.5q-41 -61 -114.5 -127t-179.5 -107q-53 -20 -114 -29.5t-124.5 -5t-127 24t-120.5 57.5q-59 39 -104 94.5t-74 120t-42 136t-9 141.5zM580 262 q6 -72 47 -128t100 -64q61 -10 114.5 22.5t86.5 73.5q35 43 56.5 86t29.5 78q29 121 21.5 192.5t-31.5 114.5q-23 41 -72 66.5t-109 11.5q-59 -10 -111.5 -55.5t-82.5 -110.5q-33 -66 -45.5 -140.5t-3.5 -146.5z" />
<glyph unicode="A" horiz-adv-x="804" d="M-187 630q3 15 12 20t21.5 1t18.5 -18q14 -31 41.5 -55.5t62.5 -38t75 -13.5t83 19q8 35 15.5 68.5t15.5 68.5l30 123q-20 10 -36 26q-36 31 -46 91q-5 30 -5 63q0 31 5 64q8 66 37 142.5t97 141.5q31 33 76 57q44 26 94 34q23 4 46 3q28 1 57 -5q52 -10 99 -44 q45 -33 76 -74.5t51.5 -90t30.5 -98.5t14 -99q5 -67 5 -130q0 -32 -1 -64q-4 -94 -14 -183q-10 -90 -25.5 -178t-33 -167t-34.5 -145.5t-30 -111.5q-6 -23 -16 -31t-20.5 -5t-16.5 15.5t-4 28.5q4 20 9 60t7 85q1 16 1 35.5t-1 41.5q-2 44 -13 87t-32.5 83t-60.5 67 q-37 25 -86 29q-13 1 -26 1q-37 0 -75 -8q-33 -6 -65.5 -16t-65.5 -21q-33 -137 -61.5 -262t-46.5 -194q-6 -20 -16.5 -27.5t-21.5 -4.5t-17.5 14.5t-2.5 29.5v-2q2 14 10.5 54t20.5 97.5t27.5 128t32.5 146.5q-37 -8 -70 -8q-15 0 -31 2q-46 6 -83.5 24.5t-64 46 t-40.5 58.5q-12 23 -9 38zM165 953q3 -32 7 -40q4 -20 12.5 -31.5t16.5 -21.5q20 82 41.5 162t39 144.5t30 104.5t12.5 42q-43 -29 -74 -72q-37 -55 -56.5 -109.5t-25.5 -100.5q-4 -31 -4 -55q0 -12 1 -23zM205 569q41 12 84 22.5t90 12.5q9 1 18 1q49 -1 99 -19 q60 -22 98 -68q29 -35 45 -75t25 -76q4 23 9 46t9 48q10 72 19.5 150.5t13.5 164.5t4 174t-25 172q-20 84 -72.5 150.5t-127.5 79.5q-27 6 -52.5 4t-50.5 -10q-4 -25 -16.5 -77t-29.5 -122t-38.5 -154t-42.5 -176q-16 -61 -30.5 -123.5t-28.5 -124.5z" />
<glyph unicode="B" horiz-adv-x="864" d="M2 422q6 45 24.5 86t47 74.5t65.5 55t78 26.5q27 113 55.5 228.5t53 212.5t44 165.5t25.5 87.5q-33 -4 -55.5 -12.5t-32.5 -12.5q-14 -6 -26.5 -1t-16.5 15.5t1 22.5t26 23q31 14 74 24q34 9 77 9h9q49 -1 99 -17t96 -50t77 -89q31 -52 40 -112q5 -36 5 -72q0 -24 -2 -48 q-6 -63 -39 -113.5t-76 -84.5q-55 -47 -125 -64q16 -10 31 -19.5t31 -21.5q57 -45 108.5 -117.5t67.5 -171.5q3 -27 4 -54q0 -23 -3 -46q-5 -51 -24.5 -100t-52.5 -93t-78 -77q-92 -66 -208 -75q-16 -1 -33 -1q-98 0 -187 47q-100 61 -146 165q-36 82 -36 166q0 22 2 44z M77 446q-10 -35 -9 -71q0 -44 14 -88q16 -51 43 -90q8 41 28.5 149.5t49.5 247.5q-12 -4 -25.5 -11.5t-25.5 -17.5q-53 -41 -75 -119zM172 143q68 -61 156 -69q22 -3 44 -3t44 3q45 6 86 22.5t74.5 42t58.5 60.5q49 71 59 151q3 24 4 46q0 54 -18 100q-25 70 -72 122 t-100 88.5t-104.5 57t-86.5 27.5q-6 -33 -13 -66t-15 -66q41 -12 71.5 -32.5t52 -45t37 -50t27.5 -46.5q8 -16 3 -28.5t-15 -17.5t-21.5 -2t-17.5 20q-18 35 -39.5 60.5t-43 41.5t-40 25.5t-29.5 11.5q-14 -66 -31.5 -143.5t-32.5 -145t-25.5 -115t-12.5 -49.5zM332 852 q4 -4 21.5 -10t44 -9.5t60.5 -1t68 14.5q70 23 124.5 83t54.5 167q-2 57 -24 106t-56.5 83t-77.5 53.5t-88 19.5q-6 -23 -16.5 -68t-25 -99t-28.5 -112.5t-26.5 -107.5t-21.5 -82t-9 -37z" />
<glyph unicode="C" horiz-adv-x="624" d="M-100 1256q-1 12 -1 23q0 47 19 95q6 14 18.5 20.5t22.5 3.5t14 -16.5t-4 -38.5q-10 -28 -9 -59v-16q3 -40 26 -74q22 -34 64 -56q35 -18 86 -19q9 0 20 1q16 35 41 72q31 49 72.5 94t91 77t104.5 48q40 12 83 12q16 0 32 -2q90 -10 147 -74.5t61 -166.5q0 -25 -4 -61 t-16 -77t-33.5 -86t-54.5 -88q-14 -18 -30.5 -21t-28 2t-16.5 18.5t1 29.5q16 43 22 97q2 15 1 30q1 36 -9 66q-14 43 -52 62q-16 8 -37 8q-29 0 -68 -15q-45 -16 -98.5 -39t-106.5 -39q-14 -4 -27.5 -7t-29.5 -5q-2 -4 -2 -6t-2 -7q-49 -111 -79 -233.5t-40 -247.5 q-6 -59 -5 -110q0 -77 12 -135q21 -98 62 -155t95 -77q38 -14 76 -15q16 0 32 3q55 8 102.5 59t82 114.5t57.5 124t31 89.5q10 33 22 41t21.5 2t13.5 -25.5t-2 -42.5q-2 -8 -12.5 -43t-30 -83t-48 -102t-68.5 -100.5t-92 -76t-116 -29.5q-70 2 -119 29.5t-81.5 64.5t-52 78 t-27.5 70q-29 106 -29 216v26q4 124 27 247q16 84 38.5 165t55.5 157q-61 2 -110.5 29.5t-78 71.5t-34.5 102zM244 1137q23 4 53.5 15t64 25.5t66.5 27t61 18.5q26 5 48 5q65 0 105 -42q49 -53 48 -153v-15q34 70 34 132v10q-3 66 -32 114q-30 48 -78 72q-34 16 -71 17 q-15 0 -31 -3q-90 -16 -154.5 -79.5t-113.5 -143.5z" />
<glyph unicode="D" horiz-adv-x="991" d="M0 355.5q0 62.5 19.5 119.5t54.5 100q35 45 86 69q41 19 80 19q10 0 20 -1q23 -2 44.5 -8.5t37.5 -14.5q2 8 16.5 64.5t36 136.5t45 172t44 170t33.5 129t13 53q-43 -8 -77 -23q-18 -6 -31.5 -2t-17 14.5t6 23t33.5 24.5q25 10 58 18q34 7 72 9q5 0 9 1q34 1 73 -9 q44 -10 87 -36q88 -49 148 -148t80 -220q16 -87 16 -177q-1 -37 -3 -75q-10 -129 -46 -260q-35 -131 -115 -252t-209 -191q-60 -35 -132 -51q-52 -12 -104 -12q-19 0 -39 2q-71 6 -135.5 34.5t-111.5 82.5q-47 51 -69.5 113.5t-22.5 125zM68 381q-2 -15 -2 -30 q0 -67 36 -133q44 -81 131 -120q0 6 3 8q14 70 28 150q12 66 28.5 151t37.5 171q-20 10 -45 17t-54 3q-29 0 -56.5 -17.5t-51 -46t-38.5 -68.5t-17 -85zM289 80q51 -11 99 -11q61 0 115 18q97 32 174 103.5t130 176t80 225.5q29 127 30 259v8q0 127 -31 235 q-32 110 -102.5 187t-185.5 93q-6 -23 -20.5 -83t-34 -138t-42 -167t-42 -167l-34.5 -138t-19 -83l9 -8q9 -8 20 -18.5t21.5 -21.5t16.5 -20q29 -47 10.5 -51t-45.5 17q-25 18 -47 39q-14 -61 -30.5 -136t-32 -143t-26.5 -117t-13 -59z" />
<glyph unicode="E" horiz-adv-x="835" d="M-1 432q3 100 38 186t99.5 137.5t125.5 67.5q33 8 66 13q-51 31 -78 92q-27 62 -28 132v5q0 68 22 135q24 70 73 121q-4 24 -4 45q1 25 7 43q12 33 47 25q4 2 2 -16.5t2 -49.5q51 35 119 47q35 6 69 6q31 0 61 -5q64 -11 114 -45t65 -91q6 -25 -3.5 -58.5t-35 -62.5 t-70.5 -49q-41 -18 -98 -18h-12q-35 0 -72 11t-69.5 31.5t-57.5 47t-37 57.5q-43 -70 -47 -145q-1 -10 -1 -20q0 -56 20 -108q22 -62 65 -92q43 -31 97 -49t95 -20q20 0 29.5 -11.5t6.5 -24.5t-14 -25.5t-30 -16.5q-23 -4 -52.5 12.5t-66.5 24.5q-35 10 -79.5 10t-96.5 -16 q-63 -20 -116.5 -80t-71.5 -148q-10 -43 -11 -90v-10q0 -42 7 -84q8 -47 26.5 -91t51.5 -81t75.5 -61.5t92.5 -34.5q35 -7 70 -7q14 0 28 1q49 4 94 24q47 18 82 52t57.5 76t33.5 89t11 95q0 47 -13 87t-42 66q-29 29 -63 40q-25 8 -51 8q-9 0 -19 -1q-72 -8 -114 -56 t-52 -93q-6 -16 -8 -31.5t-6 -30.5q-10 -41 -26.5 -39t-22.5 37q-1 10 -1 21q0 44 20 94q24 62 71 104q23 20 57.5 37t74.5 21q12 1 25 1q28 0 58 -6q43 -9 84 -40q41 -33 63.5 -78t29.5 -95q4 -25 3.5 -51.5t-3.5 -52.5q-7 -53 -24 -102q-16 -53 -50 -98.5t-80 -79 t-101 -52t-113 -18.5h-13q-52 0 -102 14q-56 16 -103.5 47t-84.5 75t-57 95q-38 95 -38 188v13zM389 1294q6 -16 15.5 -31.5t23.5 -31.5q31 -37 84 -57q36 -14 76 -14q20 0 41 3q29 4 56.5 17.5t37.5 38.5q14 23 6 49t-31 45q-25 18 -58.5 28.5t-70.5 11.5h-9q-32 -1 -64 -7 q-36 -8 -66 -23q-20 -12 -41 -29z" />
<glyph unicode="F" horiz-adv-x="1040" d="M0 330v24q0 53 7 102q9 60 36 111t68 83t82 42q24 6 45 6q16 0 28 -3q32 -7 47 -17q37 -18 60.5 -45t36 -54.5t16.5 -54t4 -45.5q-2 -43 -23.5 -42t-25.5 36q-4 16 -7 32.5t-12 37.5q-12 31 -40.5 58.5t-73.5 31.5q-7 1 -15 1q-36 0 -72 -24q-44 -30 -67 -86 q-23 -52 -27 -122q-1 -15 0 -30q0 -55 11 -110q12 -68 59 -125t123 -67q15 -2 29 -2q59 0 117 32q72 40 124 109q41 47 69 104.5t50 120.5q-4 0 -33.5 3t-63.5 19t-60 44q-22 25 -22 65q0 6 1 13q2 45 31.5 66.5t67.5 27.5q19 3 38 3l38 -3q38 -6 56 -13q11 86 11 171 q0 82 -17 161q-53 -53 -121.5 -85t-140.5 -40q-25 -3 -48 -3q-46 1 -92 11q-68 16 -118 56q-50 38 -78 102q-20 47 -21 108q0 22 3 46q6 45 26.5 88t59.5 76.5t95 54t132 20.5q57 -2 112.5 -23.5t101.5 -62.5t80 -99t50 -132q43 39 83 77t79 70.5t81 58t89 38.5q15 3 30 3 q25 -1 47 -9q36 -14 56 -33q24 -34 24 -49q0 -6 -4 -8q-12 -10 -46 14q-31 23 -68 23q-25 0 -52 -11q-67 -27 -175 -127q-29 -27 -58.5 -55.5t-64.5 -59.5q24 -104 26 -208v-27q0 -89 -14 -176q14 -8 27.5 -15.5t25.5 -13.5q25 -14 49.5 -16t46 2t39 13t31.5 17 q12 8 24.5 7.5t18.5 -10t5 -21.5t-15 -25q-16 -11 -48 -31q-29 -18 -88 -18h-12q-35 2 -62.5 13.5t-55.5 25.5q-12 -61 -31.5 -120.5t-44.5 -117.5q-37 -84 -93.5 -155.5t-135.5 -116.5q-37 -25 -82 -36q-41 -10 -82 -10h-7q-44 1 -86 15.5t-75 42.5q-66 57 -91.5 131 t-27.5 140zM156 1165q-1 -12 -1 -24q0 -79 48 -127q55 -56 139 -70q28 -5 56 -5q58 -1 121 19q93 28 161 101q-18 94 -63.5 157.5t-101.5 96.5q-55 33 -117 39q-14 1 -28 1q-46 1 -86 -15q-52 -20 -88 -63.5t-40 -109.5zM541 555.5q4 -18.5 16 -31.5q14 -12 32.5 -18t36 -8 t23.5 -2l19 2q4 10 11 42.5t11 49.5q-14 4 -26.5 8t-26.5 6q-29 6 -54.5 1t-35.5 -19q-10 -12 -6 -30.5z" />
<glyph unicode="G" horiz-adv-x="843" d="M6 418q-1 24 -1 48q0 117 25 236q29 142 87 275q29 68 62.5 133.5t78.5 124.5q20 29 56 67.5t85.5 69.5t108.5 46q30 8 63 8t68 -7q66 -18 104.5 -60t60 -92t29 -98.5t11.5 -76.5q3 -39 3 -76q0 -75 -11 -142q-17 -100 -41.5 -174.5t-51 -126t-38.5 -71.5 q-29 -45 -59 -77t-55.5 -48.5t-46 -17.5t-28.5 16q-2 2 21.5 21.5t58.5 61.5t74 108.5t65 164.5q29 94 41 209q4 34 4 70q0 81 -20 166q-14 59 -47 111t-90 63q-26 7 -52 7q-34 0 -69 -11q-62 -21 -111 -68q-100 -96 -163.5 -229.5t-106.5 -272.5q-25 -86 -38 -177 q-10 -70 -10 -136q0 -21 1 -41q0 -27 6 -81t24.5 -110.5t55.5 -102.5t98 -54q19 -3 38 -3q50 0 98 19q67 27 128.5 82t113.5 134t93 173q10 25 21.5 30t19.5 -1t13 -19.5t3 -27.5q-4 -31 -15 -76t-30 -102q-16 -53 -40.5 -113.5t-59.5 -124.5q-18 -41 -46 -79t-60 -72 q2 0 14 -5q42 -13 80 -13q10 0 19 1q46 4 81 14q12 4 23.5 7.5t21.5 5.5q31 4 35 -11.5t-12 -31.5q-12 -10 -22.5 -16.5t-26.5 -10.5q-12 -4 -42 -11t-75 -9h-13q-28 0 -58 6q-38 8 -77 22l-43 -37q-33 -27 -69.5 -49t-79.5 -37q-20 -6 -43 -11t-47.5 -5t-49 7t-49.5 26 q-25 23 -32 50.5t-2.5 54t17.5 50t32 39.5q37 35 83 44q25 4 49 4q19 0 38 -3q51 -6 94 -21t82 -32q49 47 83 97.5t58 103.5q16 29 27.5 55.5t21.5 52.5q-31 -47 -68.5 -89t-82.5 -72.5t-100.5 -49t-122.5 -18.5q-135 0 -200 111.5t-73 304.5zM137 -188q4 -23 25.5 -32 t56.5 -5q53 6 100.5 33.5t88.5 64.5q-51 18 -110 31q-23 6 -44 6q-35 0 -66 -14q-25 -10 -40 -36t-11 -48z" />
<glyph unicode="H" horiz-adv-x="860" d="M0 517.5q0 68.5 16 144.5q18 90 80 174t160 118q37 14 74 19q18 72 37.5 141.5t36 126.5t28.5 98t17 54q6 18 17 26t22.5 6t17.5 -12t2 -29q-6 -31 -18.5 -76.5t-26.5 -101t-30.5 -116t-31.5 -117.5q66 -10 123.5 -43t96.5 -80q55 -70 82.5 -145.5t37.5 -147.5 q2 12 18.5 75.5t40 152.5t49 190.5t49.5 190.5t41.5 153t21.5 76q6 18 18 26.5t23.5 7t17.5 -11.5t2 -28t-19.5 -80t-37 -151t-47 -198.5t-53 -223t-55.5 -225.5t-50.5 -206t-38.5 -162.5t-25 -97.5q-6 -25 -17 -35t-22.5 -9t-17.5 13.5t0 36.5q8 53 16 101q6 41 11.5 80.5 t7.5 62.5q4 63 8 137q1 13 1 27q0 61 -15 125q-18 78 -57.5 155.5t-110.5 124.5q-55 37 -115 39q-2 -4 -10 -41t-21.5 -93t-30 -126t-32 -139.5t-29.5 -132t-24 -103.5q18 -4 36 -3q28 1 50 9q38 16 61 37q8 10 19.5 10.5t18.5 -6t8 -19.5t-7 -28q-23 -33 -81 -52 q-38 -12 -78 -12q-21 0 -42 3q-10 -47 -20 -95.5t-19 -76.5q-4 -18 -15 -27.5t-22.5 -7.5t-17.5 14.5t0 38.5q4 18 13.5 67.5t19.5 106.5q-57 23 -93 65t-52.5 99.5t-16.5 126zM64 530q-1 -14 0 -28q0 -38 6 -71q10 -46 35.5 -82t70.5 -56q6 29 17.5 81t24.5 114.5t27.5 128 t28 123t22.5 99.5t13 58q-76 -16 -136 -72.5t-95 -181.5q-10 -59 -14 -113z" />
<glyph unicode="I" horiz-adv-x="598" d="M0 1223q4 86 53 142q47 54 127 54h6q51 -2 87 -29.5t55.5 -69.5t23.5 -90q1 -12 1 -24q0 -35 -9 -67q49 14 101.5 47t101.5 69.5t88.5 73.5t64.5 62q34 34 53 34q3 -1 5 -1q20 -6 10 -40q-2 -10 -18.5 -88.5t-43 -194.5t-58.5 -253t-63.5 -264t-62 -229.5t-51.5 -149.5 q-10 -23 -29.5 -57.5t-50.5 -67.5t-76 -56.5t-104 -23.5q-76 0 -117 39t-60.5 89t-22.5 98t-3 67q4 72 20.5 129t32.5 100q8 27 22.5 35t25 2t13.5 -23.5t-7 -41.5q-31 -72 -41 -147q-5 -36 -6 -68q0 -36 6 -68q12 -61 45 -101t90 -42h7q48 0 85 24q39 26 67.5 67.5t46 88.5 t27.5 88q39 154 76 303t67.5 277t54.5 224.5t38 143.5q-25 -23 -61.5 -54.5t-86 -64t-107.5 -64.5t-124 -54q-29 -35 -55.5 -59.5t-36.5 -31.5q-14 -10 -26.5 -9t-18.5 9.5t-5 19.5t11 21q16 12 31 27q-10 -1 -20 -1q-40 -1 -71 13q-38 16 -63 45t-36 66q-9 31 -9 64v12z M75 1192q5 -29 20.5 -52.5t39.5 -35.5q27 -10 59.5 -9t67.5 11q0 2 4 10q18 37 20 88q0 4 1 8q0 46 -27 86q-29 46 -79 50q-3 0 -6 1q-46 0 -79 -49q-16 -23 -21 -51t0 -57z" />
<glyph unicode="J" horiz-adv-x="972" d="M8 256q-7 35 -7 67q0 47 13 89q20 72 69.5 126t113.5 72q36 11 69 11q28 0 54 -8q57 -17 96 -44q29 -20 49 -40.5t37 -41.5q20 -31 23 -46t-4 -18t-21.5 5t-30.5 23q-23 20 -42 36.5t-46 32.5l4 -2q-10 6 -29.5 17.5t-45 17.5t-58.5 4t-68 -20q-35 -16 -64.5 -54.5 t-43.5 -88.5q-11 -35 -11 -72q0 -16 3 -34q6 -55 43 -106t97 -79.5t129 -32.5q12 -1 24 -1q58 0 117 16q73 19 134 67q63 45 112.5 108.5t84.5 137t55.5 154.5t28.5 165q7 68 7 136v17q-1 78 -16.5 152t-46 139.5t-77.5 114.5q-10 -4 -21.5 -10t-21.5 -11 q-55 -27 -115.5 -56.5t-132.5 -51.5q-18 -4 -36.5 -9t-39 -8.5t-44 0t-48.5 13.5q-23 12 -39 33.5t-22.5 46t-2 51t20.5 51.5q31 41 73 60.5t85 29.5t88 13h30l60 -3q47 -6 92 -20t86 -45q4 -4 6 -4q57 25 99.5 39t66.5 20q48 13 98 13h22q60 -4 93 -39q32 -32 32 -56 q0 -26 -18 -33q-2 -2 -6 6.5t-15 20.5t-29.5 24.5t-49.5 16.5q-12 2 -25 2q-38 0 -84 -14q-61 -17 -135 -49q39 -45 64 -95q43 -86 61.5 -179t18.5 -186t-15.5 -186.5t-40.5 -181.5q-29 -90 -74.5 -172t-111.5 -147q-66 -66 -149.5 -107t-173.5 -51q-23 -3 -47 -3 q-65 0 -129 21q-87 29 -146 91q-61 61 -76 145zM304.5 1258.5q-1.5 -21.5 12.5 -41.5q12 -16 35 -19.5t50.5 1.5t57 15.5t54.5 20.5q53 23 100.5 44t87.5 42q-59 31 -128 36q-20 1 -39 1q-48 0 -93 -8q-35 -6 -65.5 -19.5t-50.5 -32.5q-20 -18 -21.5 -39.5z" />
<glyph unicode="K" horiz-adv-x="833" d="M4 47q6 29 19.5 96.5t33 157.5t42 195.5t46.5 210.5q25 113 53.5 226.5t55.5 208.5t47.5 162.5t26.5 86.5q6 18 18 26t23.5 7t17.5 -11t2 -27q-10 -37 -25.5 -96t-34 -131t-39 -151.5t-38.5 -159.5q-10 -41 -20.5 -85t-20.5 -87q37 18 86 55q66 49 128 140.5t110 207.5 q27 59 50 120t56 120q16 29 40 59.5t67 46.5q20 5 39 5q23 0 45 -8q38 -15 63 -48q21 -34 27 -68q4 -23 4 -45q0 -10 -1 -20q-3 -31 -12.5 -57.5t-17.5 -50.5q-23 -47 -51.5 -83t-59.5 -57q-20 -12 -32.5 -10t-15.5 11.5t3.5 25t22.5 29.5q23 18 53.5 64t40.5 124q2 13 2 25 q0 29 -10 57q-14 39 -60 43q-18 2 -34.5 -10.5t-31.5 -34t-28.5 -49t-25.5 -54.5q-47 -113 -96.5 -224t-114.5 -193q-12 -16 -25.5 -30.5t-25.5 -29.5q45 15 97 25q38 8 79 7q16 0 32 -1q39 -2 85 -21.5t69 -70.5q14 -34 14 -66q0 -14 -3 -28q-9 -45 -25 -86 q-33 -80 -80 -151t-96 -136q-23 -33 -48.5 -65.5t-48 -63.5t-39 -61.5t-20.5 -59.5t13.5 -45t44 -25.5t58 -10.5t58.5 5q57 8 102 27.5t76 40.5q10 8 19.5 15t19.5 14q27 16 36 1.5t-1 -36.5q-14 -23 -41 -41q-10 -8 -37 -25.5t-67.5 -34t-96.5 -25.5q-27 -4 -57 -4 q-33 0 -70 5q-33 6 -71.5 29.5t-51.5 72.5q-4 18 -4 34q0 28 10 53q16 40 37 75q43 66 91.5 125t91.5 125q43 63 79.5 129.5t47.5 130.5q6 33 -6.5 54.5t-34 33.5t-50 15t-57.5 1q-59 -6 -112.5 -19t-101.5 -29.5t-87 -33t-70 -26.5q-18 -84 -37.5 -166t-36 -153.5 t-30.5 -132t-23 -101.5q-4 -23 -16 -32t-23.5 -7t-18.5 14.5t-1 34.5zM807 -96h2h-2z" />
<glyph unicode="L" horiz-adv-x="894" d="M0 150q6 56 41 92q29 33 63.5 47t67.5 15t61.5 -7t47.5 -18q2 6 12 47t22.5 97t25.5 116.5t21 101.5q-61 33 -98 76q-37 41 -58.5 82t-32.5 76.5t-13 64.5t-2 45q0 72 23.5 126t51.5 83q14 14 26.5 17t20 -2t7.5 -16t-11 -26q-27 -39 -44 -89q-16 -47 -16 -99v-6 q1 -55 25.5 -112.5t82.5 -110.5q10 -10 23 -19.5t30 -19.5q27 156 67 313q14 45 28.5 90t33 89t45.5 86t63 79q38 38 94 52q27 7 54 7t53 -8q55 -12 92 -54t54 -87q28 -79 28 -156q-1 -13 -1 -26q-6 -90 -30 -174q-27 -82 -73.5 -153t-116.5 -114q-86 -51 -174 -57 q-19 -1 -37 -1q-67 0 -127 17l-15 -72.5t-20.5 -95t-25 -104.5t-27.5 -98q8 -10 37 -35t64.5 -52.5t73.5 -52t63 -32.5q32 -11 62 -11q18 0 36 4q47 11 86 33q29 16 51.5 32.5t42.5 33.5q31 20 46.5 24.5t18.5 -3t-5.5 -23t-22.5 -31.5q-47 -47 -104.5 -81t-94.5 -44 q-25 -7 -57 -7q-13 0 -27 1q-49 4 -96 33q-25 12 -58.5 36.5t-64.5 49t-53 43.5l-23 18q-14 -35 -34.5 -69.5t-49.5 -65.5q-18 -18 -44.5 -30.5t-55.5 -13.5t-56.5 9t-47.5 35q-30 42 -30 88q0 9 1 17zM68 121q8 -53 54 -53q9 0 19 2q41 10 69 52t48 95q-35 15 -73 19 q-5 0 -11 1q-32 0 -59 -18q-25 -16 -38.5 -42.5t-8.5 -55.5zM442 680q29 -10 57.5 -13t59.5 -3q72 4 139.5 32.5t114.5 91.5t73.5 143.5t31.5 166.5v19q0 31 -4 64q-6 44 -23 81.5t-44.5 62.5t-66.5 29q-11 2 -21 2q-29 0 -53 -12q-34 -16 -63 -48t-50.5 -73t-37.5 -84 q-33 -88 -54.5 -181.5t-41.5 -187.5q-4 -23 -8.5 -45.5t-8.5 -44.5z" />
<glyph unicode="M" horiz-adv-x="1085" d="M1 186q-1 20 -1 41q0 47 5 91q7 64 13 92q45 223 134 401q12 23 33.5 53.5t48 58t58.5 43t62 7.5q18 -4 29.5 -18.5t19 -31t10.5 -33t3 -24.5q1 -15 1 -28q-1 -52 -13 -88q-16 -44 -23 -66q-35 -82 -74 -120q-22 -22 -40 -22q-14 0 -25 13q-4 2 11 21.5t38 58.5 q19 39 43 101q18 47 18 98q0 17 -2 35.5t-20.5 28t-50.5 -23.5q-31 -33 -54.5 -74.5t-42.5 -90.5q-41 -98 -70.5 -208t-41.5 -227q-4 -29 -7 -60.5t1 -60t13 -52t29 -33.5q14 -6 32 7t33 34.5t28.5 46t19.5 37.5q53 106 95 217.5t77 218.5q35 106 73 235t70.5 243t54 192.5 t25.5 86.5q8 23 18.5 33.5t21 8t16.5 -12.5t4 -29q-4 -51 -10.5 -152t-8.5 -224q-1 -93 -1 -186v-92v-55q0 -105 -3 -183q20 29 49 72.5t62 96t67.5 112t69.5 120.5q45 80 89 162t80 150.5t60.5 116.5t30.5 62q12 23 25.5 32t24 6t15.5 -16t-1 -38q-10 -37 -24.5 -92 t-32 -124t-38 -145.5t-38.5 -156.5q-29 -115 -57.5 -234.5t-54.5 -230.5t-47.5 -202t-33.5 -148q-4 -18 -15.5 -27.5t-22.5 -9.5t-18 10t-3 29q2 8 14 72.5t32.5 161t45 212t51.5 226.5q23 92 44.5 179t43.5 165q-49 -92 -105.5 -188.5t-110.5 -184.5t-103.5 -159.5 t-85.5 -112.5q-14 -16 -28.5 -19.5t-26 1.5t-17.5 17.5t-4 24.5q0 20 -1 67.5t-1 111t-1 137t-1 145.5v82t2 80q-12 -47 -27.5 -101.5t-32.5 -113.5q-12 -45 -35.5 -120t-51 -161t-60.5 -173t-64 -157q-18 -43 -41.5 -87t-51.5 -78q-27 -34 -60 -52q-25 -14 -52 -13 q-9 0 -18 1q-49 8 -68.5 62t-22.5 122z" />
<glyph unicode="N" d="M2 49q4 31 19.5 97.5t37 155.5t48 191.5t53.5 204.5q-35 14 -58.5 41t-40 58.5t-25.5 68.5t-11 72q-3 23 -3 48q0 50 11 102q16 80 61 157q23 39 55.5 74t75.5 61q45 27 99 37q21 4 41 4q33 0 65 -10q61 -20 93 -67.5t50 -92.5q35 -92 52 -192q16 -98 21 -191.5t7 -181.5 v-121q8 35 15.5 72t17.5 72q27 113 56.5 226.5t56 209.5t47 164t26.5 86t18.5 25t24 5t17.5 -11t2 -28q-10 -37 -25.5 -96t-35 -131t-40 -150.5t-38.5 -156.5q-29 -115 -57.5 -234.5t-54.5 -229t-46.5 -201t-34.5 -148.5q-6 -23 -17.5 -32t-21.5 -7t-17 12.5t-3 28.5 q6 31 10 68.5t8 60.5q6 47 12.5 132t10.5 196q2 70 2 150.5t-5.5 166.5t-16.5 173t-34 173q-6 20 -16 51t-25.5 58.5t-37 49t-52.5 26.5q-10 -49 -34.5 -148.5t-57.5 -223.5t-70.5 -263.5t-72.5 -268.5t-62.5 -238.5t-42.5 -174.5q-4 -18 -15 -24.5t-21.5 -3.5t-17.5 15.5 t-3 32.5zM90 936q4 -45 14.5 -75t18.5 -38q14 -23 28.5 -36t24.5 -25q27 100 52.5 193.5t47 169t37 128t21.5 68.5q4 16 8 27q-41 -2 -75 -20.5t-60.5 -46.5t-46 -60.5t-33.5 -63.5q-29 -63 -35 -119q-4 -34 -4 -64q0 -20 2 -38z" />
<glyph unicode="O" horiz-adv-x="800" d="M2 358q-1 22 -1 43q0 53 7 103q10 70 30.5 136.5t45.5 125.5q27 59 61.5 109.5t79.5 89.5q45 37 103 53q23 6 46 6q33 0 64 -14q51 -23 74 -61t33 -68q10 -31 11 -54.5t1 -40.5q-4 -119 -37 -181q-26 -49 -52 -49q-7 0 -13 3q-4 2 7 33t23 90q5 30 9 66q2 17 2 35 q0 20 -2 42q-6 39 -28 79t-65 50q-14 4 -28 4q-29 0 -61 -16q-48 -24 -85 -72q-39 -45 -66.5 -104t-47.5 -125q-23 -65 -34 -137q-8 -52 -8 -106q0 -19 1 -38q4 -72 28.5 -141t79.5 -110q47 -38 106 -38q10 0 21 1q72 8 131 55q59 45 103.5 109.5t79.5 136.5 q63 143 97 296.5t40 299.5v25q0 58 -8 116q-10 70 -37 127t-74 90q-44 31 -94 31h-6q-55 -4 -101.5 -24.5t-85.5 -50.5t-68.5 -64.5t-52.5 -63.5q-16 -23 -30.5 -43t-26.5 -37q-18 -25 -30.5 -33t-17.5 -3t-4 19.5t7 35.5q6 14 15.5 31.5t20.5 35t19.5 29.5t10.5 14 q18 27 54 67t97 83q35 25 83 45t108 22h13q54 0 108 -31q60 -35 96 -94q35 -59 52 -126.5t20 -137.5q1 -21 1 -43q0 -50 -5 -102q-7 -74 -19 -148q-14 -74 -32.5 -148.5t-45.5 -148t-64.5 -145.5t-89.5 -137q-51 -62 -123 -112q-70 -48 -158 -48h-7q-47 0 -88 18.5t-74 47 t-55.5 65.5t-34.5 74q-25 77 -29 153z" />
<glyph unicode="P" horiz-adv-x="751" d="M-60 652q-3 28 -4 55q0 40 7 77q14 63 37.5 121t64.5 105q35 44 88 64q37 14 73 14q16 0 32 -3q14 51 27.5 99.5t24.5 87.5t19 62.5t8 25.5q-23 -4 -42 -9t-35 -12q-18 -6 -31.5 -2t-18 14.5t5 22.5t33.5 23q47 19 126 27q12 1 25 2q68 0 144 -35q90 -39 156 -133.5 t82 -217.5q7 -57 8 -115q0 -67 -10 -133q-18 -126 -80 -251q-33 -61 -85 -111.5t-118 -79.5q-67 -29 -141 -31h-11q-68 0 -130 23q-14 4 -27.5 9t-26.5 14q-23 -98 -40 -187.5t-33 -142.5q-6 -18 -16.5 -26.5t-21 -8.5t-17.5 10t-5 29q2 8 9.5 43t16.5 84t21.5 110.5 t24.5 126.5q-63 47 -98 117q-34 63 -42 132zM5 715q0 -4 -1 -7q0 -49 14 -98q21 -72 78 -129q12 55 24.5 111.5t24.5 114.5q18 84 38 163.5t38 151.5q-7 1 -14 1q-51 0 -96 -40q-31 -29 -54.5 -72t-37 -93t-14.5 -103zM158 436q47 -29 100 -41q29 -7 58 -6q24 0 49 4 q57 6 107 33t88 68t65 92t39 106q31 110 36 218q1 16 1 32q0 89 -25 166q-27 90 -81 147.5t-110 79.5q-31 14 -57.5 19.5t-48.5 7.5q-10 -47 -30.5 -123t-45.5 -174q45 -25 75 -59.5t45 -73.5t20.5 -77t5.5 -67q0 -25 -10.5 -34t-20.5 -7.5t-19.5 13.5t-9.5 31 q0 55 -13.5 94t-30.5 63.5t-34.5 36.5t-23.5 16q-10 -37 -18.5 -74.5t-16.5 -76.5q-25 -104 -48.5 -209.5t-45.5 -204.5z" />
<glyph unicode="Q" horiz-adv-x="761" d="M2 367q-1 29 -1 57q0 134 31 254q38 145 91 270q29 61 65.5 115.5t90.5 91.5q27 18 57.5 30.5t62.5 10.5q35 -2 62.5 -16.5t46.5 -32.5q35 -43 51 -82t22.5 -70.5t6.5 -56.5t2 -39q-2 -35 -4 -63.5t-6 -55.5q-6 -35 -17.5 -50t-22 -13t-16.5 19.5t-2 49.5q4 31 6 70 q1 13 1 27q0 27 -3 57q-6 43 -21.5 90t-51.5 78q-25 23 -56 23q-15 0 -33 -5q-51 -18 -92 -67q-41 -47 -71.5 -108.5t-55.5 -133.5q-23 -68 -41 -143.5t-25 -153.5q-4 -42 -4 -84q0 -36 3 -72q6 -79 31 -155q20 -63 68 -102q45 -36 102 -36h9q62 3 131.5 54t133.5 166 q47 86 81 188.5t56 216.5q18 94 26 168q5 58 5 108v26q-2 61 -13.5 113t-31.5 103q-25 61 -73 100.5t-105 43.5h-10q-53 0 -104 -20q-54 -23 -104.5 -61t-95.5 -90t-84 -108q-30 -41 -44 -41q-4 0 -6 4q-11 15 5 58q10 23 20.5 41t24.5 39q23 35 68 86t125 100q41 23 92 41 q42 15 93 15q12 0 24 -1q66 -4 124 -42.5t93 -104.5q35 -63 50 -135t17 -147v-27q0 -61 -7 -126q-9 -79 -23 -155q-6 -25 -16.5 -69t-22.5 -87t-22.5 -78.5t-12.5 -43.5q-25 -92 -51.5 -185.5t-53 -178.5t-50 -154.5t-38.5 -112.5q-6 -23 -18 -33t-22.5 -7t-15.5 19.5 t3 48.5q10 37 40 135.5t65 221.5q-16 -25 -40 -51.5t-54.5 -49t-64.5 -39t-69 -18.5q-13 -1 -26 -1q-36 0 -71 8q-48 11 -85 42q-72 66 -97.5 151t-31.5 165z" />
<glyph unicode="R" horiz-adv-x="673" d="M8 20.5q-6 16.5 0 42.5q4 25 13.5 71t21.5 106.5t26.5 131t30.5 146.5q-31 14 -49 39t-26.5 52.5t-8.5 53t11 42.5q27 47 63 58q27 8 50 8q8 0 16 -1q25 102 51 206.5t50 189.5t40 138l16 54q-29 -4 -51 -11.5t-41 -13.5q-20 -10 -36.5 -9t-20.5 9t4 22.5t37 30.5 q41 14 79 23.5t76 12.5q11 1 22 1q27 0 54 -5q39 -7 82 -27q88 -39 159 -131.5t87 -217.5q4 -31 4 -64q0 -30 -3 -60q-7 -64 -29.5 -126.5t-62.5 -118t-98 -98.5q-31 -25 -66.5 -43t-72.5 -30q41 -94 57.5 -187.5t32.5 -171.5q10 -47 22.5 -88t35.5 -65q20 -27 49 -34t57 -5 q39 6 76 12q49 8 49 -9t-31 -36q-24 -10 -70 -20q-23 -5 -45 -6q-24 0 -48 6q-27 4 -56.5 24.5t-48.5 54.5q-20 33 -32.5 72t-20.5 81t-16.5 87t-18.5 92q-10 43 -23.5 88t-35.5 88q-11 -4 -71 -8q-10 -1 -22 -1q-51 0 -110 16q-31 -139 -56.5 -259t-46.5 -200 q-6 -23 -17 -31t-21.5 -3t-16.5 21.5zM86 662q-1 -5 -1 -11q0 -33 32 -59q6 29 12 54.5t12 53.5q-23 2 -37 -7t-18 -31zM182 561q23 -8 41 -10q28 -3 55 -3t54 3q-20 31 -46 59.5t-59 51.5q-8 8 -20 14q-6 -29 -12.5 -57.5t-12.5 -57.5zM223 745q59 -33 100.5 -75.5 t73.5 -94.5q2 -4 3 -5t3 -5q137 45 218 156q61 91 73 197q4 32 4 62q0 70 -20 130q-29 90 -85 146.5t-112 78.5q-31 14 -57.5 19.5t-48.5 7.5q-8 -35 -21.5 -89t-31 -121t-37 -144.5t-37.5 -159.5q-6 -27 -12.5 -51.5t-12.5 -51.5z" />
<glyph unicode="S" horiz-adv-x="854" d="M2 453q2 82 18 159q18 76 61.5 144.5t115.5 99.5q47 22 94 21q25 1 49 -5q72 -18 117 -65q45 -45 61.5 -99.5t16.5 -101.5q0 -35 -5.5 -63.5t-13.5 -53.5q-16 -33 -26.5 -44t-16.5 -6t-8 21.5t2 37.5q4 29 6 53t2 53q0 12 -2 32.5t-10 46.5t-26.5 52.5t-49.5 48.5 q-33 20 -76 26q-11 2 -21 2q-33 0 -67 -15q-43 -20 -76.5 -64.5t-52.5 -103.5q-16 -59 -22 -128q-2 -23 -2 -46q0 -45 8 -91q12 -68 45 -130t94 -105q59 -41 134 -55q28 -5 55 -5q47 0 92 15q72 20 126 74.5t72 130.5q9 43 9 87q0 34 -5 66q-12 76 -42.5 150t-74.5 142.5 t-91 127.5q-45 49 -80 114.5t-39 137.5q-39 -4 -77 -8q-19 -2 -38.5 -2t-40.5 2q-53 4 -102 39t-60 86q-5 24 -5 45q0 24 6 44q12 38 26 62q12 18 24.5 24.5t21.5 0.5t10 -21.5t-9 -39.5q-4 -10 -9 -26.5t-5 -36t6 -40t26 -39.5q33 -31 89 -31q4 1 8 1q62 2 135 14 q16 80 69.5 138t118.5 83q47 19 94 19q25 0 51 -6q74 -16 122 -62q47 -45 72.5 -97.5t31.5 -103.5q2 -20 2 -38q0 -31 -6 -58q-10 -43 -28.5 -74t-39 -51t-35.5 -29q-31 -23 -64.5 -27.5t-63 -0.5t-54 16t-37.5 27q-27 29 -27 55q1 3 1 7q4 30 39 15q17 -8 47 -16 q10 -3 20 -3q21 0 45 11q23 10 37 42t0 61q-10 29 -50 42t-89 13q-47 0 -95 -7t-98 -18q2 -25 7.5 -49t15.5 -47q14 -35 37.5 -66.5t50.5 -65.5t53.5 -69.5t46.5 -74.5q47 -76 81 -161t42 -183q2 -20 2 -40q0 -74 -30 -150q-38 -96 -119 -152t-179 -66q-21 -2 -42 -3 q-75 0 -144 28q-88 31 -150.5 101.5t-86.5 156.5q-25 80 -25 157v11zM455 1202l30 6q51 8 103 14q21 2 43 2q31 0 63 -5q27 0 54.5 -11.5t50 -30t36 -44t13.5 -56.5q2 -29 -7.5 -54.5t-23.5 -45.5q2 4 10 12q29 29 43 76q7 26 7 54q0 23 -5 46q-10 51 -44.5 101.5 t-88.5 74.5q-34 17 -72 17q-23 0 -47 -6q-66 -16 -112 -62q-37 -37 -53 -88z" />
<glyph unicode="T" horiz-adv-x="643" d="M-77 1154q-3 23 -3 44q0 37 8 68q10 49 51 92t97 55q38 11 77 11q17 0 33 -2q56 -7 105 -23q51 -18 91 -33.5t83 -22.5q28 -4 54 -4q53 1 97 17q64 24 95 53q8 8 18 12t19.5 1t14.5 -13t1 -31q-10 -39 -29.5 -93t-40.5 -148l-12 -56q70 -2 135.5 -5t89.5 -7q6 0 8 -4 q4 -8 4.5 -29.5t-14.5 -25.5l-239 2q-25 -123 -53.5 -277.5t-71.5 -308.5q35 0 63.5 17.5t38.5 25.5q29 25 41 13.5t-2 -42.5q-10 -18 -45 -44.5t-113 -30.5q-14 -49 -33.5 -100.5t-49 -99.5t-70.5 -87t-99 -62q-30 -12 -62 -15q-10 -1 -19 -1q-23 0 -45 5q-32 7 -60.5 24.5 t-46.5 46.5q-35 56 -37 116v17q0 50 10 94q10 53 47 96t93 60q32 8 73 8h16q50 -2 96 -10t82 -16.5t50 -10.5q4 20 10 39.5t13 40.5q33 129 55 249t51 253l-82 2q-8 2 -13 6t-3 43q0 8 33.5 12t80.5 6q27 106 47.5 168t24.5 68q-23 -12 -53.5 -23.5t-69.5 -17.5 q-26 -3 -52 -3q-63 0 -126 17q-47 14 -88 32.5t-84 25.5q-29 5 -56 5q-14 0 -28 -1q-41 -4 -72 -23q-31 -16 -47 -46t-20 -62q-1 -16 -2 -30q0 -47 16 -80q20 -44 25 -56q10 -18 7 -32.5t-12.5 -21t-24.5 -2t-30 24.5q-39 66 -46 130zM68 242q-1 -14 -1 -27q0 -35 8 -60 q11 -34 30.5 -53.5t43 -25.5t44.5 -6q41 0 80.5 23.5t70.5 58.5q41 45 64.5 101t42.5 116q-55 5 -121 21q-50 12 -102 12q-17 0 -33 -1q-18 -2 -39 -9t-39.5 -23.5t-31.5 -47t-17 -79.5z" />
<glyph unicode="U" horiz-adv-x="835" d="M2 711q-2 27 -2 54q0 111 34 212q42 125 101 217q61 92 127 146.5t105 76.5q31 18 57.5 12t17.5 -30q-12 -37 -40.5 -121t-62.5 -203t-65.5 -267.5t-50.5 -313.5q6 0 10 -2q5 0 11 -1q44 1 76 31q36 34 53 74q14 43 14 83t-6 71q-4 27 3 39t17.5 12t21.5 -10.5t17 -28.5 q2 -10 6 -36q3 -18 4 -42q0 -11 -1 -22q-2 -37 -15.5 -86.5t-56.5 -94.5q-29 -31 -72 -45q-33 -11 -69 -11q-10 0 -21 1q-2 -14 -2 -27.5t-2 -27.5q-1 -26 -1 -53q0 -28 1 -54q2 -54 16 -100q25 -93 109 -92h14q74 8 140.5 86t130.5 223q35 82 71.5 206t74.5 264t76 283.5 t77 264.5q6 18 18 26.5t23.5 6.5t17.5 -13.5t2 -27.5q-10 -37 -25.5 -95.5t-34 -130t-40 -151.5t-39.5 -158q-29 -115 -57.5 -233.5t-54 -228t-47 -201t-34.5 -148.5q-6 -23 -17 -33t-21.5 -8t-16.5 15.5t-2 39.5q2 12 7 35t11 53.5t13.5 65.5t13.5 70q-10 -23 -22.5 -44.5 t-26.5 -43.5q-29 -43 -62.5 -86t-85.5 -76q-24 -15 -56 -25q-26 -8 -53 -8h-11q-32 2 -64.5 15.5t-54.5 41.5q-39 53 -48.5 110.5t-13.5 113.5v34q0 68 6 134q-6 4 -11 6t-11 6q-63 43 -90 112.5t-31 137.5zM71 763v-8q0 -63 15 -118q17 -72 68 -111q10 92 27.5 177 t33.5 161q41 166 77 279.5t48 148.5q4 12 8 23.5t8 21.5q-14 -12 -29.5 -25.5t-31.5 -29.5q-63 -61 -123.5 -162.5t-87.5 -228.5q-12 -61 -13 -128z" />
<glyph unicode="V" horiz-adv-x="753" d="M0 1114q4 68 28.5 136.5t82.5 119.5q27 27 63.5 41t76.5 15h6q37 0 73 -12q39 -13 67 -40q55 -52 73 -122q16 -62 15 -122v-14q-4 -66 -15 -126t-25.5 -115.5t-30 -108.5t-25.5 -102q-4 -8 -4 -17q41 10 76 35t59 57q54 76 64 158q5 40 5 75q0 37 -5 68q-2 14 5 27.5 t17 19t21.5 -3t15.5 -34.5q4 -23 8 -72q1 -10 1 -21q0 -43 -13 -100q-6 -35 -22.5 -76t-45 -79.5t-70.5 -70.5t-102 -48q-16 -4 -30 -4q-16 -93 -16 -167q0 -41 5 -77q10 -66 45 -136.5t89 -127.5q6 29 22 91t37.5 147t49.5 184.5t56 201.5q31 111 70 234t73 227.5t58.5 173 t24.5 72.5q6 16 17 22.5t22.5 3t17.5 -14.5t2 -28q-10 -35 -28.5 -93t-42 -133t-50 -159t-51.5 -168q-33 -113 -66.5 -229.5t-63.5 -223t-54.5 -194.5t-38.5 -143q-10 -35 -34 -41t-52 20q-20 20 -47 54.5t-51.5 76.5t-44 89t-25.5 96q-7 41 -7 83q0 17 1 35q4 60 14 126 q-76 12 -133 61q-49 41 -81 97.5t-52 117.5q-19 61 -29 126q-8 47 -7 95q0 19 1 37zM70 1065q2 -64 16 -125q12 -61 34.5 -117.5t59.5 -99.5q55 -66 133 -78q12 61 31 121q12 57 29.5 116.5t28.5 121.5q12 60 13 120v6q0 57 -20 111q-23 55 -69 89q-35 26 -75 26 q-12 0 -24 -2q-53 -10 -91 -58.5t-52 -107.5q-14 -52 -14 -109v-14z" />
<glyph unicode="W" horiz-adv-x="813" d="M0 1138q-2 18 -2 36q0 73 33 147q12 23 27.5 45.5t41.5 38.5q23 16 59 18h8q31 0 54 -14q53 -35 77 -80t40 -92q31 -92 42 -185.5t13 -183.5q4 2 7 4t8 5q35 14 42 -1.5t-10 -37.5q-25 -25 -47 -35q-2 -72 -7 -140.5t-11 -130.5q0 -8 -2 -12q41 129 85 270.5t83 264.5 t67.5 211t38.5 110q12 31 24.5 42.5t24 8t16.5 -16.5t1 -32q-4 -18 -16.5 -78.5t-28 -148.5t-27.5 -194.5t-16 -217.5q-4 -106 -4 -207v-67q2 -133 6 -227q20 94 47.5 218t58.5 253q27 113 56.5 225.5t55 207.5t46.5 162t27 85t18 27t23.5 8t18.5 -10t3 -23 q-10 -37 -25.5 -95.5t-35 -131t-40 -152.5t-40.5 -160q-29 -115 -56.5 -234.5t-53 -230.5t-46 -203t-33.5 -149q-4 -16 -14 -25.5t-20.5 -9.5t-19.5 7t-11 22q-6 31 -13.5 87t-12.5 129.5t-8 161t-3 177.5q0 78 4 155.5t12 155.5q-37 -119 -75.5 -244t-75.5 -239.5t-68 -210 t-51 -154.5q-10 -25 -22.5 -36t-22.5 -10t-16.5 13.5t-2.5 34.5q6 35 19.5 104.5t29 165t26.5 213t16 248.5q-18 -2 -41 -1t-50 7q-55 16 -108 66.5t-82 122.5q-31 72 -41 163zM68 1176v-11q0 -78 26 -147q28 -74 74 -121q35 -37 77 -48q31 -8 58 -8q10 0 19 1v60.5t-3 60.5 q-10 92 -29.5 186t-68.5 166q-30 40 -58 40q-24 0 -46 -28q-25 -29 -36 -69.5t-13 -81.5z" />
<glyph unicode="X" horiz-adv-x="851" d="M-4 203q0 35 2 65q4 59 11 100.5t11 61.5q4 27 13 51v6q8 31 20.5 68t40.5 76q29 39 77 66.5t105 35.5q41 6 82 6h82q8 37 13.5 75t9.5 75q12 111 13 221v5q0 106 -36 190q-20 41 -51 51q-8 3 -16 3q-23 0 -45 -22q-29 -27 -52.5 -64.5t-42.5 -72.5q-35 -76 -56 -143.5 t-40 -120.5q-10 -31 -23.5 -46.5t-24.5 -15.5t-15 14.5t2 41.5q0 2 5 19.5t11 42t14.5 53t18.5 57.5q23 53 50.5 123.5t90.5 144.5q16 16 39 33.5t57 21.5q7 1 14 1q27 0 50 -12q29 -15 47 -38q39 -47 51.5 -99t18.5 -106q2 -23 3 -45t1 -45q10 29 21.5 59.5t25.5 59.5 q16 35 34.5 70t43.5 67q12 14 26.5 31.5t33 31t42 22t51.5 8.5q53 -8 86 -45t45 -76q12 -41 16 -80q2 -25 2 -50q0 -14 -1 -28q-6 -76 -23.5 -145.5t-54.5 -135.5q-35 -61 -90 -108t-119 -68q-47 -12 -91 -16t-85 -6q-25 -137 -31 -273q-2 -31 -2 -81t7.5 -102t26.5 -94 t58 -54q16 -4 31 -3q42 1 76 29q46 40 80.5 105t58 141t37.5 135q8 31 17.5 41t17.5 7t13 -18.5t5 -35.5q-8 -33 -19.5 -82t-28.5 -102.5t-41.5 -107.5t-58.5 -95q-34 -40 -78 -64q-35 -19 -78 -19q-11 0 -23 1q-55 6 -88 41t-50.5 85t-23.5 106.5t-8 105.5q-2 -4 -3.5 -10 t-3.5 -11q-18 -43 -43.5 -98t-58.5 -103t-71 -82t-81 -34h-5q-56 0 -99 39q-20 23 -27.5 45t-11.5 43q-8 41 -8 76zM61 203q0 -33 7.5 -65t24 -54.5t46.5 -20.5q41 4 77 48.5t65.5 104.5t52.5 125t37 110q16 53 30.5 109t26.5 112q-45 2 -83 2t-71 -6q-74 -14 -106.5 -49 t-42.5 -56q-8 -14 -13.5 -27.5t-11.5 -27.5q-10 -41 -22 -104.5t-17 -149.5v-51zM522 739q59 2 115.5 14.5t107.5 49.5q49 37 84.5 94t51.5 127q16 68 21 142q1 14 1 26q0 58 -18 108q-12 29 -36 46.5t-46 11.5q-25 -6 -48.5 -33t-43.5 -55q-41 -66 -70 -137.5t-53 -145.5 q-20 -61 -35.5 -123.5t-30.5 -124.5z" />
<glyph unicode="Y" horiz-adv-x="653" d="M-168 201q0 20 9 30.5t20.5 10.5t20.5 -10.5t9 -28.5q2 -10 7.5 -36t42.5 -46q37 -23 97 -30t126 -15q16 -2 47 -7.5t64.5 -19.5t64.5 -40.5t49 -69.5q20 98 49 235t64 289q-16 -27 -34.5 -52.5t-41.5 -50.5q-31 -33 -70 -61.5t-88 -40.5q-30 -8 -62 -8q-19 0 -39 3 q-54 7 -95 50q-37 41 -50.5 89t-17.5 93q-3 38 -3 74v17q1 45 5 86q8 86 23.5 163.5t31.5 147.5q35 137 68 229t43 121q23 59 46 92q13 20 31 20q12 0 25 -8q1 0 1 -1q0 -8 -25 -68q-27 -68 -63.5 -185.5t-71.5 -274.5t-43 -335q0 -41 5 -85t19.5 -80t39.5 -58 q24 -21 60 -21h7h8q35 0 65 15q35 16 66 42.5t57.5 59.5t46.5 68q49 82 83 163t57 152q25 96 52.5 198.5t51 187.5t40 140.5t18.5 59.5q6 16 16 22.5t21.5 5.5t17.5 -11.5t2 -24.5q-10 -41 -28.5 -110.5t-41 -158t-47 -187.5t-49.5 -202q-33 -139 -66.5 -284.5t-64.5 -279.5 t-56.5 -245.5t-41.5 -179.5q-10 -37 -33 -39t-25 39q-4 86 -29.5 153.5t-82.5 86.5q-55 16 -126 20t-137 23q-16 4 -40.5 15t-48 30.5t-40 49.5t-16.5 73z" />
<glyph unicode="Z" horiz-adv-x="706" d="M1 142q5 36 28 67q25 33 65 37q10 1 20 1q28 0 50 -9q31 -14 51.5 -26.5t42.5 -25.5q10 -6 18.5 -11t18.5 -11q51 47 96 112q66 94 116 194.5t91 199.5q76 186 126 348t83 272q-45 -45 -114.5 -82t-153.5 -55q-61 -14 -127 -16h-22q-55 0 -107 8q8 -29 13 -50.5t9 -37.5 q2 -16 -5 -27.5t-17.5 -15.5t-20.5 1t-14 23q-4 10 -14.5 44t-26.5 81q-16 4 -23 8q-41 16 -74.5 40t-56.5 57q-29 41 -34 75.5t6.5 56t36 28t53.5 -10.5q27 -16 54.5 -42.5t47.5 -61.5q14 -23 23.5 -46.5t19.5 -47.5q58 -12 116 -12l36 1q78 4 151.5 25.5t124.5 52.5 q53 31 82 61.5t35 41.5q29 39 55.5 40t22.5 -51q0 -10 -2 -24.5t-5.5 -28.5t-6.5 -24.5t-3 -12.5q-10 -47 -40.5 -159.5t-84.5 -266.5q-31 -82 -64.5 -175t-78.5 -189.5t-103.5 -191.5t-138.5 -181l62 -37q76 -47 142.5 -77.5t121.5 -45.5q54 -12 108 -14q27 -1 44.5 -1 t25.5 1q13 1 24 1q38 0 56 -10q23 -14 -22 -30q-45 -14 -113 -22q-17 -2 -34 -1q-54 0 -116 17q-82 20 -165.5 64t-172.5 98q-4 4 -7 5t-7 5q-35 -29 -77 -48.5t-89 -25.5q-10 -2 -21 -2q-24 0 -52 12q-40 18 -54 58q-10 26 -10 52q0 9 1 18zM71 126q-1 -22 7 -34 q6 -12 24.5 -15t41 1t48 14t44.5 25q-25 16 -49.5 30.5t-47.5 24.5q-39 14 -57 -12q-10 -12 -11 -34zM82 1362q4 -20 16 -44.5t43 -47.5q6 -4 13.5 -9.5t15.5 -9.5q-20 41 -45 69t-43 42z" />
<glyph unicode="[" horiz-adv-x="716" d="M80 -229q57 317 104 579q20 111 40 220.5t36 200.5t28.5 153.5t16.5 81.5q4 23 11.5 45t17.5 39q6 8 43 12t85 3t94 -4t71 -7l8 -4q4 -10 3 -25.5t-5 -24.5q-2 -6 -8 -6q-6 -2 -38 -2t-72 1l-80 2t-64 1q-4 -47 -19.5 -142t-37 -215t-47 -253t-49 -258t-45 -231.5 t-34.5 -172.5q25 4 62 4.5t75.5 -0.5t73.5 -5.5t53 -6.5q4 0 7 -4q4 -8 4 -24.5t-4 -24.5q-6 -6 -11 -6q-8 -2 -49 -2t-89 1t-90 3t-50 2q-20 4 -32.5 21.5t-8.5 48.5z" />
<glyph unicode="\" horiz-adv-x="514" d="M110 1233q-5 45 1 45q37 8 46 -13.5t17 -58.5q6 -25 23.5 -119t42 -224t51 -276.5t50.5 -275.5t40 -223t18 -119v2q2 -10 3 -19t-3 -20q-4 -16 -20.5 -22t-28.5 16q-4 6 -5 14.5t-3 18.5q-10 55 -27.5 140t-38 187.5t-42 216t-42 223.5t-38 209t-28.5 176t-16 122z" />
<glyph unicode="]" horiz-adv-x="565" d="M-101 -257.5q1 15.5 5 24.5q2 6 8 6q6 2 38 2t71.5 -1t79.5 -2t65 -1q4 47 19.5 142t37 215t47 253t49 258t45 231.5t33.5 171.5q-25 -4 -61.5 -4t-75.5 1t-73.5 4.5t-53.5 7.5q-4 0 -6 4q-4 8 -4 24.5t4 24.5q6 6 10 6q8 2 49 2t89.5 -1t89.5 -3t51 -2q20 -4 32.5 -21.5 t8.5 -48.5q-57 -319 -105 -581q-20 -111 -39.5 -220.5t-37 -199.5t-28.5 -152.5t-16 -81.5q-4 -23 -11 -45t-17 -39q-6 -10 -43 -13t-85 -2t-94.5 4t-70.5 7l-8 4q-4 10 -3 25.5z" />
<glyph unicode="`" horiz-adv-x="679" d="M254 844q25 6 43 22.5t32.5 35t22.5 34.5t13 22q2 4 12 5.5t22.5 -2t20.5 -10.5t6 -21q-6 -31 -28.5 -53.5t-49 -34t-53.5 -11t-41 12.5z" />
<glyph unicode="a" d="M-13 284q-1 18 -1 35q0 23 2 46q6 78 30.5 155.5t73.5 138.5q47 63 117 99q63 33 127 33h14q74 -2 124 -42t71 -81q6 -10 9 -18.5t7 -18.5q2 4 4 14t5 21.5t5.5 20.5t2.5 11q4 14 15 20.5t21.5 5.5t18.5 -11.5t6 -24.5q-6 -31 -15.5 -79t-20.5 -106.5t-22.5 -122 t-19.5 -124.5q-4 -45 -5 -91v-8q0 -41 9 -73q8 -20 35 -12t49 43q47 66 70.5 132t40.5 109q4 10 12 27q12 16 27.5 9t19.5 -21q2 -18 -2 -33v2q-4 -16 -18.5 -64.5t-44.5 -115.5q-16 -35 -38 -72t-67 -70q-23 -16 -59 -18h-5q-32 0 -59 20q-31 31 -34 57.5t-7 51.5v18.5 t2 18.5q-20 -29 -48.5 -61.5t-69.5 -61.5q-27 -18 -63 -29.5t-74 -12.5h-6q-36 1 -72 13q-39 14 -72 43t-52.5 66t-29.5 78t-13 83zM57 262q8 -72 49 -127t101 -65q14 -2 28 -2q45 0 85 24q52 32 88 74q35 43 57.5 88t30.5 80q23 96 23 161q1 17 -1 31q-8 72 -33 115 q-25 41 -74 65q-33 16 -70 17q-18 0 -38 -4q-59 -10 -111.5 -55.5t-82.5 -110.5q-31 -67 -45 -143q-9 -49 -10 -96q0 -26 3 -52z" />
<glyph unicode="b" horiz-adv-x="585" d="M-49 197q2 61 13 112t22 97q10 47 20 85.5t19 67.5q10 49 22 100.5t25 102.5q4 25 20.5 100.5t46.5 186.5q16 55 37 115.5t55 123.5q18 31 41 61.5t58 55.5q35 29 84 30h4q46 0 82 -22q47 -31 57 -77q8 -38 8 -70v-13q-4 -39 -12 -74.5t-21 -68.5q-25 -68 -58.5 -124 t-67.5 -103q-72 -94 -153 -166t-142 -99q-12 -45 -26.5 -103t-25.5 -103q-4 -12 -13 -43t-16 -70q-6 -39 -10 -81q-1 -10 -1 -20q0 -30 8 -55q16 -51 52 -67q14 -6 29 -7q25 0 54 17q39 20 67.5 53t51.5 72q-55 72 -69 163q-6 38 -5 74q1 50 11 94q18 76 65 122q32 31 73 31 q19 0 39 -7q41 -12 57 -55q14 -38 13 -85v-12q-2 -54 -17.5 -111.5t-33.5 -102.5q-8 -20 -17.5 -41t-21.5 -43q15 -4 30 -4q19 0 37 6q27 8 48.5 23.5t37 33.5t25.5 37.5t16 34.5q4 6 5 11t6 9q10 10 27.5 5t21.5 -17q4 -8 2 -15.5t-4 -13.5q-4 -18 -23.5 -56t-64.5 -77 q-27 -20 -62 -35.5t-76 -15.5q-31 0 -61 12q-6 -10 -12 -19.5t-13 -19.5q-33 -47 -84 -90t-127 -47q-6 -1 -12 -1q-32 -1 -62 17q-36 20 -53 56q-16 33 -20 64.5t-6 60.5zM127 690q23 18 49.5 42t56.5 54q33 35 71 79t73 96.5t63.5 113t44.5 127.5q8 33 9.5 67t-9.5 58 q-8 20 -34.5 29.5t-51.5 5.5q-27 -8 -54.5 -36t-52 -67.5t-44 -86t-29.5 -89.5q-14 -70 -38.5 -175t-53.5 -218zM275 385q9 -64 44 -109q35 57 55 119t26 112q2 21 3 40q-1 25 -5 45q-8 35 -27 39q-4 1 -9 1q-28 0 -50 -33q-26 -38 -36 -94q-6 -30 -5 -63q0 -27 4 -57z" />
<glyph unicode="c" horiz-adv-x="585" d="M-27 354q4 84 27 166t76 148q52 66 126 100q50 23 101 24q25 0 51 -6q41 -10 69 -32.5t44 -51t23.5 -58.5t5.5 -54q-4 -51 -18.5 -81t-22.5 -44q-35 -53 -66 -72.5t-53 10.5q-4 2 8 14.5t31 37.5q17 23 37 59q19 33 18 77v9q0 23 -9 46.5t-26.5 42t-43 28.5t-56.5 4 q-61 -4 -117.5 -50t-87.5 -114q-31 -67 -42 -147q-4 -33 -4 -64q0 -46 9 -88q14 -74 63.5 -130t114.5 -60h16q57 0 107 26q58 30 99 70q41 41 66.5 84t39.5 78q4 14 9.5 25.5t9.5 21.5q16 29 30.5 20.5t18.5 -31.5q0 -16 -3 -27t-10 -28q-4 -12 -16 -41.5t-35.5 -67.5 t-63.5 -79t-100 -76q-29 -16 -64.5 -28.5t-75.5 -13.5h-7q-36 0 -74 9q-41 10 -76 39q-72 53 -100.5 137t-28.5 168zM614 305v2v-2z" />
<glyph unicode="d" horiz-adv-x="761" d="M-25 362q6 80 31 157t74 140q46 61 116 99q63 34 128 33h14q74 -2 124 -42t70 -81q6 -10 9.5 -19.5t7.5 -17.5q18 86 35.5 170t33 152.5t25.5 117.5t14 66q4 20 15.5 30.5t23 9.5t18.5 -11.5t5 -30.5q-6 -43 -19.5 -110t-29 -147.5t-32.5 -170t-36 -175.5 q-14 -66 -25.5 -130t-21.5 -130q-4 -33 -6 -64.5t-4 -60.5q-2 -45 12 -57t35.5 -3t46.5 36t43 63q23 43 37 82t24 70q7 25 15 37q16 23 30.5 15.5t16.5 -25.5q2 -23 -6 -46q-8 -20 -28.5 -87.5t-80.5 -159.5q-16 -20 -40.5 -44t-69.5 -28q-23 0 -42.5 7t-37.5 30 q-12 18 -16.5 36.5t-6.5 35.5q-2 16 -2 29.5v29.5q-20 -31 -48 -61.5t-69 -59.5q-27 -18 -62.5 -30.5t-74.5 -13.5h-5l-73 13q-39 14 -71 43q-66 59 -84 143q-14 63 -14 122q0 19 1 38zM47 264q6 -72 47 -127t103 -63q14 -2 28 -2q44 0 84 24q53 32 88 72q35 43 54.5 84 t33.5 76q28 72 28 140q0 18 -2 35q-9 85 -38 138q-25 41 -74 65q-33 16 -70 17q-18 0 -38 -4q-59 -12 -111.5 -56.5t-83.5 -109.5t-44 -141q-8 -47 -8 -93q0 -28 3 -55z" />
<glyph unicode="e" horiz-adv-x="591" d="M4 524q29 94 101.5 170t175.5 94q17 3 34 3q34 0 70 -13q53 -20 80 -65q29 -45 30 -93v-6q0 -44 -12 -82q-25 -80 -75 -130t-97 -76q-47 -27 -81.5 -38.5t-51.5 -15.5q-47 -13 -81 -13q-28 0 -46 9q10 -57 37 -103t70 -73q34 -20 70 -23q11 -1 21 -1q25 0 50 5 q35 7 67.5 24.5t57.5 37.5q53 41 85 90t48 90q6 16 12.5 34t12.5 28q16 35 32.5 26.5t19.5 -34.5q0 -18 -8 -38t-14 -38q-6 -14 -21.5 -49t-46 -76t-81.5 -83t-127 -71q-39 -14 -84 -14t-90 16t-82 50t-60 77q-46 86 -46 183q0 101 30 198zM47 311q29 4 93.5 14.5 t146.5 59.5q49 31 93 89t46 130q0 35 -17.5 65.5t-50.5 43.5q-20 9 -43 9q-13 0 -27 -3q-40 -8 -75 -31q-74 -45 -116 -126t-48 -173q-4 -20 -4 -44q0 -16 2 -34z" />
<glyph unicode="f" horiz-adv-x="219" d="M-559 -160q0 37 17.5 64.5t43 46t55 28t56.5 7.5q53 0 97 -3q19 -1 38 -1q25 0 51 2q18 0 36 2t34 6q29 57 47 115.5t33 111.5q20 72 35.5 143.5t25.5 129t15.5 94.5t5.5 41q0 2 4 31.5t11 75.5t17.5 102.5t22.5 113.5q14 59 31.5 124t44.5 132q14 35 30.5 68t40.5 65 q23 31 60 62t90 31q23 -4 47.5 -11.5t44.5 -29.5q16 -23 22.5 -44t10.5 -44q2 -18 2 -36q0 -22 -3 -44q-5 -39 -15 -76q-18 -72 -47 -133.5t-64 -114.5q-33 -51 -66.5 -91t-63.5 -69.5t-51.5 -48t-31.5 -26.5q-23 -18 -42.5 -32t-35.5 -18q-4 -35 -9 -77.5t-13 -92.5 q-10 -66 -26.5 -143.5t-43.5 -163.5q-10 -29 -19.5 -57.5t-19.5 -56.5q35 16 62.5 38.5t50.5 47.5q47 53 74.5 107t43.5 97q6 16 12.5 29.5t10.5 26.5q20 35 34.5 25.5t14.5 -36.5q-2 -18 -6 -33.5t-10 -33.5v2q-4 -16 -17.5 -48t-38.5 -79q-27 -45 -70.5 -99.5 t-115.5 -95.5q-43 -23 -84 -34q-20 -37 -43.5 -72t-56.5 -70q-84 -80 -197 -92q-29 -2 -58.5 3t-58.5 22q-29 16 -47 46.5t-18 65.5zM-485 -180.5q10 -30.5 45 -40.5q21 -6 43 -6q16 0 33 3q40 7 77 27q37 18 64.5 49t50.5 66q-41 -4 -82 -5h-27l-55 1q-19 2 -36 2 q-25 0 -47 -4q-36 -6 -56 -35q-20 -27 -10 -57.5zM98 684q23 18 51.5 44t59.5 60q35 37 70.5 85.5t67.5 105.5t55.5 122.5t33.5 137.5q2 14 2 26q0 22 -7 39q-11 27 -29.5 39.5t-42 9.5t-42.5 -22q-47 -47 -75.5 -115.5t-51.5 -134.5q-35 -117 -56 -219t-36 -178z" />
<glyph unicode="g" horiz-adv-x="731" d="M-45 -180q-1 8 -1 16q0 28 12 52q14 30 38.5 50.5t54 32t56.5 11.5q55 0 99 -4q18 -1 37 -1q26 0 54 3q20 0 38.5 2t37.5 6q14 29 25.5 57.5t21.5 56.5q-16 -16 -31.5 -29.5t-36.5 -27.5q-27 -18 -62.5 -30.5t-74.5 -12.5t-78 12.5t-71 42.5q-66 59 -84 143 q-14 64 -14 124q0 19 1 38q6 78 32 156t75 139q47 63 116 99q62 33 125 33q8 0 17 -1q72 -2 122 -41.5t73 -80.5q4 -8 7 -15.5t7 -13.5q4 20 8 51t8 45q2 14 12.5 20.5t19.5 5.5t16.5 -8.5t7.5 -21.5q-4 -39 -13.5 -113.5t-21.5 -152.5q-12 -68 -28.5 -145.5t-43.5 -163.5 q-10 -33 -20.5 -67t-24.5 -69q68 37 111 84q47 53 75.5 107.5t44.5 97.5q10 31 25 58q18 35 32.5 25.5t14.5 -36.5q-2 -35 -16 -67l2 2q-6 -16 -19.5 -49t-40.5 -80t-70.5 -100.5t-117.5 -94.5q-33 -20 -80 -33q-35 -68 -86 -129q-78 -84 -194 -102q-17 -3 -35 -3 q-42 0 -84 17q-29 14 -51.5 42t-26.5 63zM31 -190.5q14 -28.5 51 -36.5q18 -5 37 -5q20 0 42 6q42 10 77 33q33 18 57 46t45 61q-43 -4 -87 -5h-17q-35 0 -68 3q-13 1 -25 1q-31 0 -57 -7q-37 -10 -53 -39t-2 -57.5zM51 264q6 -72 47 -128t101 -64q14 -2 28 -2q45 0 86 24 q53 33 86 74q35 43 55.5 86t30.5 78q27 84 27 154q0 11 -1 22q-5 78 -36 131q-23 41 -72 67q-32 16 -67 16q-20 0 -41 -5q-59 -10 -111.5 -55.5t-83.5 -110.5q-33 -66 -46 -141q-7 -42 -7 -83q0 -32 4 -63z" />
<glyph unicode="h" horiz-adv-x="636" d="M-85 39q1 6 3 16q2 18 16.5 92t37 175.5t49 220.5t53.5 227q6 29 21.5 101.5t43.5 175.5q16 53 37 113.5t55 121.5q18 31 41 61.5t58 55.5q35 27 82 31q8 1 15 0q38 0 71 -17q27 -18 40 -38.5t17 -42t3 -42t-1 -39.5q-4 -39 -12 -73.5t-21 -67.5q-25 -68 -56.5 -124 t-66.5 -103q-45 -61 -84 -101q44 10 85 9h20q50 -3 84.5 -29.5t45.5 -80.5q4 -18 4 -40q0 -44 -15 -102q-20 -80 -54 -158q-29 -73 -59 -147q-29 -69 -29 -127v-7q2 -23 17.5 -31t38.5 3q23 10 42 33.5t35 46.5q31 49 51.5 95t34.5 81q6 12 10.5 23t10.5 22q16 27 30.5 18.5 t16.5 -31.5q0 -16 -3 -27t-9 -28v2q-6 -27 -41 -104q-20 -37 -46 -85t-83 -93q-14 -12 -36 -19.5t-45.5 -5.5t-46 14.5t-34.5 38.5q-12 33 -12 62q0 13 2 25q8 40 18 77q23 72 53.5 141.5t53.5 141.5q12 34 18 70q5 27 5 51q0 8 -1 15q-2 30 -17.5 50.5t-45.5 24.5 q-24 7 -47 7q-33 0 -65 -16q-54 -26 -93 -67q-39 -43 -65.5 -82t-47 -79t-35 -82t-26.5 -89q-18 -82 -34.5 -149.5t-27.5 -110.5q-4 -23 -10 -29q-10 -18 -26.5 -12t-20.5 21q-4 10 -3 16zM127 690q23 16 48.5 41t55.5 55q33 33 71 77t73 97.5t62.5 114t41.5 127.5 q4 23 7 47.5t2 46t-9 37t-26 21.5q-10 2 -19 2q-24 0 -48 -14q-34 -20 -66.5 -59.5t-59.5 -93.5t-43 -116q-12 -41 -25.5 -95t-25.5 -108.5t-22.5 -102.5t-16.5 -77z" />
<glyph unicode="i" horiz-adv-x="249" d="M-42 112.5q-1 26.5 1 53.5q10 102 38 191t50 163q12 37 23.5 75t22.5 71.5t18.5 58.5t11.5 33q6 18 17.5 26.5t22.5 8.5t18 -6.5t5 -18.5q-6 -31 -20 -83t-32.5 -117.5t-40 -138.5t-40.5 -140q-10 -47 -18 -95q-5 -32 -5 -62q0 -14 1 -28q4 -37 27.5 -35.5t52.5 31.5 q27 33 46 68t32.5 68.5t23.5 63.5t18 52q4 10 6.5 16.5t6.5 12.5q14 16 29.5 10t20.5 -20q2 -16 -5 -35q-4 -16 -19.5 -66.5t-50.5 -122.5q-20 -35 -43.5 -75.5t-83.5 -67.5q-14 -5 -29 -5q-19 0 -39 7q-36 12 -53 47q-12 33 -13 59.5zM143 815q-2 2 0 14.5t5.5 25.5 t6.5 23.5t5 12.5q2 4 14 2t47 -16q4 -2 3 -11.5t-5 -20.5t-9 -22.5t-7 -17.5q-16 -2 -38 3t-22 7z" />
<glyph unicode="j" horiz-adv-x="243" d="M-530 -182q-1 9 -1 17q0 27 10 51q13 30 37.5 50.5t54.5 32t56 11.5q55 0 101 -4q21 -1 42 -1q24 0 48 2q37 0 78 11q29 61 44 124.5t29 123.5q29 147 50.5 251.5t31.5 137.5q2 12 8.5 31.5t11.5 41t10 40t9 26.5q6 14 16.5 20.5t19.5 5t15 -8.5t4 -19q-4 -18 -12 -53 t-17.5 -76t-18.5 -87t-17 -85q-12 -66 -25.5 -141.5t-31.5 -163.5q-8 -33 -17.5 -68t-21.5 -72q63 33 112 84q47 53 75 107.5t46 99.5q6 16 12.5 29.5t10.5 25.5q20 35 34.5 26t14.5 -36q-2 -18 -6 -33.5t-11 -33.5v2q-4 -16 -17 -49t-40 -80t-72 -100.5t-116 -94.5 q-18 -10 -38 -18t-40 -15q-16 -35 -39 -66.5t-51 -60.5q-76 -86 -193 -104q-18 -3 -36 -3q-42 0 -83 17q-29 14 -51 42t-26 63zM-454.5 -192.5q14.5 -28.5 51.5 -34.5q19 -5 39 -5q19 0 40 4q41 10 76 33q31 18 56.5 47t48.5 60q-43 -4 -88 -5h-18q-36 0 -70 3q-12 1 -24 1 q-30 0 -56 -7q-37 -10 -54 -39q-16 -29 -1.5 -57.5zM100 811q-2 2 0 14.5t5.5 25.5t6.5 24.5t5 13.5t14 1t47 -18q4 -2 3 -11t-5 -20.5t-9 -22.5t-9 -15q-8 -2 -16.5 -1t-18.5 3q-11 2 -23 6z" />
<glyph unicode="k" horiz-adv-x="643" d="M-89 39q1 6 3 16q2 18 16.5 92t37 175.5t49 220.5t53.5 227l21 101.5t44 175.5q16 53 37 113.5t55 123.5q18 29 41 59.5t58 55.5q35 27 82 31q8 1 15 0q38 0 71 -17q27 -18 39 -38.5t17 -42t4 -42t-1 -39.5q-4 -39 -12.5 -73.5t-20.5 -67.5q-25 -66 -56.5 -123 t-66.5 -104q-47 -66 -90 -109q44 12 93 12q22 0 46 -2q27 -4 53.5 -19t43.5 -40q16 -27 22 -54.5t6 -56.5q-4 -53 -22.5 -103t-46.5 -93q-29 -43 -67 -79t-85 -65q-2 -14 -3 -26t-1 -27q-2 -20 -2 -47t6 -51.5t18.5 -42t37.5 -17.5q23 -2 43 9.5t36.5 26t27.5 29.5t15 24 q31 47 51.5 94t34.5 82q6 12 10.5 23.5t10.5 21.5q16 27 30.5 18.5t16.5 -31.5q0 -16 -10 -51t-43 -106q-6 -10 -17.5 -34t-33 -53.5t-53 -59t-76.5 -50.5q-16 -4 -31 -6t-37 2q-20 4 -39.5 16.5t-30.5 30.5q-23 37 -27.5 76t-4.5 78v20t2 21q-10 -4 -21.5 -5t-21.5 -3 q-27 -4 -62 -1t-61 25q-29 24 -41 60q-5 17 -5 33q0 18 7 36q10 31 31.5 54.5t48.5 37.5q40 20 80 20l38 -5q31 -8 56.5 -33t31.5 -55q2 -10 2.5 -18.5t0.5 -18.5q86 70 120 170q15 39 17 77v9q0 31 -15 53q-14 25 -43.5 31t-64.5 8q-45 0 -93 -20.5t-92 -57.5t-78 -85 t-48 -103q-29 -129 -54.5 -238t-42.5 -172q-4 -18 -10 -29q-12 -18 -27.5 -12t-19.5 21q-4 10 -3 16zM123 690q23 16 48.5 41t55.5 55q33 35 70 79t70.5 96.5t62.5 113t45 127.5q2 16 6 40t3 46.5t-8 41t-27 24.5q-10 3 -21 3q-45 -1 -98 -53q-66 -66 -117 -231 q-16 -51 -31.5 -117.5t-29 -125t-17.5 -78.5zM141 346q4 -29 34 -40q13 -5 29 -5q20 0 46 8q23 6 41 15q2 10 3 20.5t3 20.5v10q0 56 -59 56q-6 0 -13 -1q-16 0 -32.5 -8t-27.5 -20.5t-18.5 -27t-5.5 -28.5z" />
<glyph unicode="l" horiz-adv-x="241" d="M-47 180q4 41 13 95.5t20.5 110.5t24 109.5t22.5 92.5q6 23 18 77t27.5 120.5t33 136t33.5 125.5q16 55 37 116.5t56 122.5q18 31 40.5 62.5t57.5 54.5q35 29 84 30h4q46 0 82 -22q47 -31 57 -77q8 -38 8 -70v-13q-4 -39 -12 -73.5t-20 -69.5q-25 -68 -59 -124t-68 -103 q-72 -94 -143.5 -156.5t-151.5 -108.5q-8 -29 -21.5 -80t-28 -111t-26.5 -124.5t-18 -120.5q-2 -19 -2 -34q0 -22 4 -38q6 -26 19 -34t29.5 2t32.5 37q43 68 70 134t43 107q4 10 12 27q12 16 27.5 9t20.5 -21q2 -18 -3 -33v2q-4 -16 -18 -64.5t-45 -115.5q-18 -35 -39.5 -72 t-67.5 -70q-25 -16 -56.5 -16t-61.5 25q-29 33 -34 77q-3 24 -3 45q0 17 2 33zM135 688q20 18 47 42t58 54q35 35 72.5 79t72.5 96.5t64 112.5t45 128q6 35 7 67.5t-9 57.5q-6 23 -28 34t-58 1q-51 -16 -96.5 -93t-84.5 -186q-20 -57 -40.5 -157.5t-49.5 -235.5z" />
<glyph unicode="m" horiz-adv-x="886" d="M-78 43q2 12 12.5 65.5t25.5 125t33.5 153.5t35 154.5t29 125t16.5 66.5q4 18 15 26.5t23.5 6.5t20.5 -9t6 -20q-4 -16 -11 -43.5t-11 -56.5q27 45 63.5 92t108.5 68q13 2 26 2q65 0 115 -51q27 -29 33 -70q8 10 16 21.5t19 23.5q24 27 60 53q32 22 75 22q7 0 14 -1 q47 -2 88 -35t49 -84q3 -24 3 -46q-1 -67 -23 -124q-30 -76 -55 -150q-14 -35 -29.5 -70.5t-28 -70.5t-18.5 -66.5t-2 -56.5q4 -16 22.5 -22t38.5 10q23 14 40.5 36.5t33.5 45.5q29 47 48.5 91t33.5 79q6 12 10 22.5t10 20.5q16 27 30.5 19t16.5 -31q-2 -14 -4 -25.5 t-8 -26.5h2q-4 -10 -14 -36.5t-27 -63.5q-18 -37 -42.5 -83t-78.5 -93q-10 -12 -29.5 -20.5t-42 -10.5t-45 4t-40.5 27q-16 23 -22.5 44t-5.5 41.5t6 40t9 38.5q23 72 51.5 139.5t53.5 136.5q12 31 22.5 67t14.5 67.5t-2 58t-25 41.5q-18 14 -40.5 13t-46 -12.5t-45 -30.5 t-36.5 -42q-29 -43 -48 -84t-36 -76q-10 -27 -19 -51.5t-20 -48.5q-43 -102 -71 -186q-21 -65 -21 -110q0 -13 2 -24q2 -8 3 -13t3 -11q2 -12 -6 -27.5t-33 -3.5q-20 18 -24 47v-2q-4 13 -4 38q0 21 3 53q7 66 42 153q16 43 34.5 90t36.5 96q16 49 28 103q6 27 7 51 q0 23 -6 43q-6 18 -21.5 30.5t-34 17.5t-39 1t-36.5 -18q-18 -14 -46 -48t-58.5 -86.5t-61.5 -123t-51 -156.5q-18 -82 -34.5 -151.5t-26.5 -110.5q-4 -12 -9 -19q-10 -10 -26.5 -5t-22.5 16q-2 8 -2 20z" />
<glyph unicode="n" horiz-adv-x="643" d="M-88 35q2 12 12 65.5t24.5 127t33 156.5t35 156.5t27.5 126t15 66.5q6 14 17.5 19.5t22 3.5t18.5 -9.5t8 -15.5q-6 -45 -25 -127q18 29 43 57.5t58 55.5q27 25 66.5 43t83.5 23q12 1 23 1l65 -10q44 -14 81 -57q29 -44 29 -89v-6q-2 -48 -12 -87q-10 -43 -23.5 -82 t-28.5 -76q-29 -73 -59 -147q-29 -69 -29 -127v-7q0 -23 17.5 -31t38.5 3q23 12 41 34.5t34 44.5q33 49 53.5 95.5t34.5 81.5q4 12 9.5 23t9.5 22q16 27 31.5 18.5t17.5 -31.5q-2 -16 -5 -27.5t-7 -27.5v2q-4 -12 -14.5 -38.5t-28.5 -65.5q-18 -37 -44 -85t-85 -94 q-12 -12 -35 -18t-45.5 -4t-45 14.5t-34.5 36.5q-14 34 -14 63q0 13 3 25q9 39 19 76q23 72 52.5 141.5t52.5 141.5q12 35 19 68.5t5 61t-16.5 49t-46.5 34.5q-22 6 -44 6q-36 -1 -70 -17q-54 -26 -91 -67q-39 -43 -68.5 -88t-51 -89t-34 -83t-18.5 -66 q-20 -88 -38.5 -163.5t-29.5 -118.5q-4 -12 -6 -19q-12 -10 -27.5 -6t-21.5 14t-2 23z" />
<glyph unicode="o" horiz-adv-x="702" d="M-16 324q4 86 30.5 167.5t75.5 151.5q47 68 122 109q62 34 125 33q14 0 28 -1q78 -8 128 -56t66 -93q27 -77 27 -173v-14q-2 -104 -62 -221h18.5t18.5 4q55 16 87 58.5t42 72.5q4 4 5 9.5t5 9.5q12 10 28 6t20 -16q6 -14 0 -29v2q-4 -12 -21.5 -54t-69.5 -83 q-27 -23 -63 -37q-31 -12 -66 -12h-10q-20 0 -29 2q-12 -18 -26 -37t-33 -39q-23 -25 -55.5 -46.5t-72.5 -32.5q-37 -10 -76 -10h-7q-43 1 -86 23q-43 20 -71.5 55.5t-47 77.5t-25.5 86q-5 34 -5 68v19zM62 374q-6 -39 -5 -76q0 -39 6 -75q6 -37 26 -68.5t45.5 -53 t57.5 -31.5q20 -6 40 -6q13 0 26 2q55 6 98 41.5t72 76.5q-54 26 -70 86q-13 48 -13 100q0 12 1 25q2 33 9 75t23.5 78t42 61.5t62.5 25.5q-23 41 -63 63q-28 15 -65 14q-17 0 -36 -3q-63 -10 -114 -50.5t-96 -134.5q-35 -70 -47 -150zM416 360q0 -33 10 -70.5t37 -43.5 q18 35 30.5 80t18.5 88t6 77.5t-4 51.5q-4 12 -18.5 17t-32 -11.5t-31.5 -60.5t-16 -128z" />
<glyph unicode="p" horiz-adv-x="712" d="M-150.5 -266.5q0.5 6.5 3.5 14.5q2 14 10 59.5t21.5 110t30.5 144t36 161.5q18 82 40.5 167t42 155.5t34 121t20.5 64.5q4 14 16.5 20.5t24.5 5.5t20.5 -9.5t6.5 -20.5q-2 -2 -5.5 -13.5t-7.5 -21.5q47 47 109 73q45 19 91 19q16 0 32 -2q78 -8 128 -55t66 -94 q27 -75 27 -172v-13q-2 -106 -61 -223q10 0 18 1t18 3q55 16 87 59.5t42 71.5q4 6 5.5 11.5t5.5 9.5q10 10 26.5 5t20.5 -15t3 -15.5t-3 -13.5q-4 -12 -21.5 -53t-68.5 -84q-27 -20 -63 -35q-32 -14 -68 -14h-9q-10 0 -30 4q-20 -37 -58 -76q-23 -25 -55.5 -46.5 t-72.5 -33.5q-34 -10 -71 -10h-12q-43 2 -86 24q-51 25 -82.5 67t-48.5 93q-33 -135 -59.5 -256t-42.5 -186q-4 -16 -8 -27q-12 -16 -28.5 -10t-20.5 18q-4 10 -3.5 16.5zM69 350q-2 -23 -2 -46q0 -42 7 -81q14 -76 70 -123q46 -39 101 -39q11 0 23 2q55 8 98.5 43t71.5 78 q-53 27 -70 86q-13 48 -13 100q0 12 1 25q2 33 9.5 75t24 78t42 60.5t62.5 24.5q-23 41 -64 63q-28 14 -64 14q-17 0 -36 -3q-31 -6 -65 -25.5t-65.5 -50.5t-58 -70t-43.5 -82q-23 -61 -29 -129zM426 360q0 -33 10 -70.5t37 -45.5q18 35 30.5 80t18.5 88t6 78.5t-4 52.5 q-4 12 -18 17t-31.5 -12.5t-32 -61.5t-16.5 -126z" />
<glyph unicode="q" horiz-adv-x="768" d="M-25 358q6 78 31 156t74 141q47 61 116 99q62 33 125 33q9 0 17 -1q74 -4 123 -42.5t71 -79.5q8 -14 13.5 -27.5t9.5 -26.5q10 33 20.5 72t12.5 49q4 16 15 22.5t22.5 4.5t18.5 -12.5t3 -24.5q-18 -72 -34.5 -141.5t-30 -129t-22.5 -104.5t-13 -67q-8 -47 -11 -95 q-1 -11 -1 -22q0 -35 8 -66q10 -35 33.5 -34t50.5 36q51 66 77.5 136.5t43.5 113.5q4 10 6 16.5t6 12.5q12 16 27.5 10t19.5 -22q2 -14 -4 -33h2q-4 -16 -19.5 -66.5t-50.5 -122.5q-20 -35 -41.5 -73.5t-79.5 -69.5q-18 -7 -36 -7q-16 0 -32 5q-34 10 -54 41l-3.5 7l-3.5 7 q-25 -98 -44 -182t-31 -133q-4 -16 -9 -27q-10 -14 -26.5 -8t-20.5 18t-2 29v-2q2 12 8.5 44t15.5 79t21.5 105.5t26.5 121.5q-14 -14 -30.5 -28.5t-35.5 -28.5q-27 -18 -62.5 -29.5t-74.5 -12.5h-5l-73 13q-39 13 -71 43q-66 59 -84 143q-14 63 -14 122q0 19 1 38zM47 260 q6 -72 47 -127t103 -65q31 -4 59.5 2t54 20t48 33.5t38.5 40.5q25 31 42.5 63.5t29.5 61.5q18 49 25.5 101t7.5 99.5t-8.5 86t-20.5 61.5q-25 41 -74 65q-33 17 -70 17q-19 0 -38 -4q-59 -12 -111.5 -56.5t-83.5 -109.5q-31 -66 -44 -141q-8 -47 -8 -93q0 -28 3 -55z" />
<glyph unicode="r" horiz-adv-x="591" d="M-18 350q8 23 18 65t21.5 89t20.5 91t15 73q4 20 7.5 46.5t5.5 47.5q2 18 10 25.5t19.5 6.5t22.5 -7.5t17 -12.5q33 -31 69 -54.5t72.5 -37.5t73.5 -17q7 -1 13 -1q30 0 59 12l-2 18q-2 19 2 40.5t17.5 40t45.5 18.5q23 0 38.5 -20.5t16.5 -47.5t-14.5 -55.5t-54.5 -42.5 q-6 -33 -20.5 -86.5t-28.5 -118t-26.5 -137t-16.5 -142.5q-1 -8 0 -16q-1 -51 23 -55q3 -1 6 -1q25 0 57 42q47 66 72.5 133t40.5 110q4 10 12 27q12 16 27.5 9t19.5 -21q2 -18 -2 -33v2q-4 -16 -18.5 -64.5t-45.5 -115.5q-18 -35 -38.5 -72t-67.5 -70q-25 -16 -59 -18h-6 q-32 0 -60 23q-29 33 -31 80v15q0 44 9 109q16 117 40.5 213.5t40.5 155.5q-35 -6 -63 -4q-70 6 -125 35.5t-94 66.5q-6 -33 -16.5 -85t-21.5 -105t-23.5 -101.5t-22.5 -72.5q-8 -16 -19.5 -20.5t-20.5 -0.5t-14.5 15.5t-0.5 25.5z" />
<glyph unicode="s" horiz-adv-x="745" d="M-27 344q8 27 20.5 79t24 106.5t20.5 101.5t13 65q4 14 10.5 41t21.5 51q15 26 44 44q26 17 69 16h9t1 -13.5t-6 -37t-2 -53t15 -64.5q14 -37 49 -66.5t79 -62.5t93 -71t94 -91q20 -29 36 -61.5t21 -69.5q2 -17 3 -34q0 -20 -4 -41q-6 -38 -27 -72q-16 -25 -33 -37 q7 -2 15 -2l51 22q31 31 51.5 67t35.5 70.5t26.5 67.5t19.5 55l12 31q14 16 28.5 10t18.5 -22q2 -20 -2 -37v2q-4 -16 -20.5 -70.5t-54.5 -132.5q-10 -16 -23.5 -36.5t-31 -40t-42 -35t-57.5 -21.5q-27 -4 -50.5 4t-41.5 23q-37 -16 -75 -22.5t-73 -6.5q-66 2 -123 21.5 t-98 56.5q-36 29 -66 78q-24 39 -24 88q0 13 2 26q6 35 27 60q20 23 46.5 33t55.5 12q9 1 19 1q46 0 90 -16q54 -20 100 -59q45 -41 70.5 -91t54.5 -89l4 -4q47 41 47 92q1 8 1 15q1 46 -21 85q-24 45 -62.5 82t-84.5 67.5t-85 61.5t-68.5 68t-43.5 74q-8 23 -11.5 40 t-5.5 31q-14 -8 -21.5 -26.5t-11.5 -49.5q-4 -27 -12 -71.5t-18.5 -94t-21.5 -94.5t-21 -71q-8 -16 -19.5 -21.5t-20.5 -0.5t-14.5 15.5t-1.5 24.5zM68 215.5q8 -27.5 27.5 -52t47 -45t58.5 -30.5q41 -16 96 -22q11 -1 21 -1q44 0 88 19q-4 6 -17.5 32.5t-33 58.5t-44 61.5 t-49.5 44.5q-18 10 -46 20t-55.5 12t-52 -7t-36.5 -36t-4 -54.5z" />
<glyph unicode="t" horiz-adv-x="249" d="M-48 111q-2 16 -2 35q0 31 5 71q6 78 25.5 160t35.5 151q4 23 14.5 64t21.5 89t24.5 101.5t25 99.5t19.5 80.5t12 49.5q-37 -2 -70.5 -2h-60.5q-10 0 -19.5 10t-11.5 22.5t6.5 22.5t30.5 12q31 2 68 3t76 1q14 55 30.5 108.5t29.5 96.5t22.5 74t13.5 41q6 16 17 22.5 t21.5 5t17.5 -9.5t5 -20l-15 -57.5t-20.5 -77.5t-23.5 -90.5t-25 -92.5q80 0 152 -1t112 -5q11 0 15 -4q10 -8 9 -24.5t-7 -24.5q-10 -6 -17 -6q-8 0 -34.5 -1t-65.5 -2t-86 -1h-96q-2 -4 -11.5 -43t-22.5 -94.5t-28.5 -118t-29.5 -117.5q-8 -35 -22.5 -94.5t-30 -126 t-27.5 -132t-17 -112.5q-1 -11 -1 -20q-1 -26 7 -44q10 -24 29 -30t42.5 8t45.5 55q35 66 57.5 123.5t37.5 95.5q4 6 5 12.5t5 10.5q12 14 27.5 8t19.5 -18q4 -10 3 -15.5t-3 -13.5q-4 -14 -16.5 -57t-38.5 -103q-12 -31 -30 -63.5t-46 -65.5q-14 -17 -44 -39 q-25 -19 -66 -19q-7 0 -15 1q-18 2 -35.5 11t-31 34t-18.5 66z" />
<glyph unicode="u" horiz-adv-x="745" d="M-12 314v23q0 41 5 79q7 49 15 92q10 43 22.5 85t25 78t21.5 60.5t13 32.5q6 18 18.5 24.5t23.5 5.5t17.5 -10.5t2.5 -23.5q-4 -10 -9.5 -26.5t-11.5 -36l-12 -39t-10 -33.5q-23 -72 -41 -165q-11 -53 -11 -110q0 -43 6 -88q8 -49 29 -95t58 -73q30 -25 68 -25q6 1 12 1 q44 4 79 30q51 37 81 85t48 94q10 27 22.5 67.5t25 89.5t24.5 99.5t21.5 93.5t14.5 72.5t7 37.5q4 16 15.5 21.5t21.5 2.5t17 -13.5t5 -28.5q-6 -33 -15 -82t-20.5 -108.5t-23.5 -124t-21 -125.5q-4 -27 -7 -53.5t-3 -55.5q0 -49 8.5 -71.5t20.5 -26.5t26.5 6t26.5 26 q51 66 77 135.5t42 112.5q4 8 6 15.5t6 11.5q12 16 27.5 10t19.5 -20q2 -10 1 -17.5t-3 -17.5v2q-4 -16 -19.5 -65.5t-47.5 -120.5q-23 -41 -48.5 -82t-70.5 -60q-25 -10 -52 -10q-8 0 -14 1q-34 3 -59 44q-14 31 -16 56.5t-2 52.5v6q-4 -8 -8.5 -14.5t-10.5 -14.5 q-25 -37 -64.5 -71.5t-99.5 -51.5q-31 -10 -62.5 -7t-60 15.5t-53 33t-41.5 46.5q-33 53 -47 108.5t-16 109.5z" />
<glyph unicode="v" horiz-adv-x="694" d="M0 360.5q0 57.5 8 108.5t22.5 98t28 84t25.5 63.5t16 37.5q14 25 30.5 32t29 3.5t16.5 -14.5t-2 -25q-10 -20 -29.5 -62.5t-29.5 -77.5q-14 -39 -25.5 -88t-16.5 -102q-2 -26 -2.5 -54t2.5 -56q5 -58 25 -113q18 -53 60 -93q34 -32 73 -31q9 0 19 1q47 8 85 46t62 85 q-31 29 -47 66.5t-22 74.5q-4 31 -5 73v12q0 36 5 74q6 44 17 86t30.5 72.5t47.5 46.5q19 11 42 12q11 0 24 -3q35 -4 61 -39q21 -28 20 -89q0 -14 -1 -30q-4 -41 -18 -105.5t-37 -146.5q-6 -18 -12 -37.5t-15 -38.5q6 -2 21 -2q35 0 62.5 13.5t49 34t36 43t20.5 40.5 q2 12 10 23q12 14 28.5 9t20.5 -19q2 -16 -4 -33q-2 -6 -8 -23.5t-20.5 -39t-37 -46t-57.5 -45.5q-32 -16 -70 -23q-13 -2 -25 -2q-26 0 -54 9q-23 -39 -45 -70q-18 -25 -46 -48t-62 -36.5t-72 -15.5h-7q-34 0 -67 16q-35 18 -60.5 44t-43 55.5t-28 61.5t-16.5 63 q-12 63 -12 120.5zM386 442q-1 -12 -1 -24q0 -38 8 -73q10 -46 37 -75q35 88 50.5 168t23.5 148q4 41 -22.5 51t-47.5 -23q-18 -31 -31.5 -76.5t-16.5 -95.5zM731 338v2v-2z" />
<glyph unicode="w" horiz-adv-x="933" d="M0 295q-6 51 -6 100q0 62 10 119q8 49 23.5 95t31 83t28.5 62.5t17 36.5q10 18 24.5 25t25 4t15.5 -13t-1 -25q-10 -18 -28.5 -61t-28.5 -76q-29 -75 -43 -181q-5 -37 -4 -76q0 -70 16 -144q18 -78 49 -117t65 -46q10 -2 20 -2q24 1 48 13q33 18 55 51q-35 72 -47 144.5 t-16 144.5q-1 22 -1 46q0 46 5 92q8 68 37 128q14 33 42 51.5t56.5 16.5t54 -24.5t37.5 -73.5q5 -24 9 -56q3 -22 2 -52v-28q-2 -48 -12.5 -113t-34.5 -149q-10 -31 -22.5 -62.5t-29.5 -64.5q14 -25 31 -39q20 -27 46 -32.5t51.5 3.5t49 29.5t39.5 49.5q8 10 14.5 22 t12.5 25q-35 29 -52.5 67.5t-23.5 77.5q-6 40 -6 79q1 53 11 105q18 92 79 152q18 18 46 29.5t52.5 2.5t40.5 -46q12 -27 13 -75q0 -17 -2 -38q-4 -33 -15.5 -113t-44.5 -184q-4 -6 -5 -12t-5 -15h16q35 0 63 13.5t49.5 34t35.5 43t20 40.5q2 12 11 23q12 14 28.5 9 t20.5 -19q2 -16 -4 -33q-2 -6 -8.5 -23.5t-20.5 -39t-36.5 -46t-57.5 -45.5q-29 -16 -66 -22q-14 -2 -28 -2q-24 0 -50 6q-18 -37 -43.5 -74t-66.5 -65q-33 -25 -81 -30q-9 -1 -17 -1q-38 0 -70 18q-41 23 -70 62q-29 -35 -62.5 -56.5t-68.5 -21.5q-29 0 -62.5 11.5 t-65.5 44t-57.5 89t-37.5 148.5zM324 500q0 -68 8 -140q4 -35 11 -68.5t17 -66.5q60 147 70 256q4 44 4 81q0 55 -8 95q-10 43 -39 41t-47 -71q-16 -59 -16 -127zM622 462q-1 -16 -1 -31q-1 -37 7 -73q10 -52 44 -90q33 86 46 168t21 135q2 17 2 31q-1 40 -17 50 q-22 14 -46 -19q-18 -27 -35 -73t-21 -98zM969 340v2v-2z" />
<glyph unicode="x" horiz-adv-x="899" d="M-20 348q12 33 27.5 104.5t29.5 135.5q14 74 39.5 114.5t55.5 62t57.5 28t48.5 6.5q23 0 47 -7.5t47 -23.5q39 -29 61.5 -69t34.5 -83q4 10 8 19.5t8 19.5q16 35 41 66t60 53q35 23 77 24h5q39 0 71 -16q35 -16 57.5 -40.5t35 -52t15.5 -56.5t1 -51q-4 -47 -19.5 -76 t-23.5 -41q-33 -49 -62.5 -66.5t-52.5 11.5q-4 2 8.5 13t30 33.5t33.5 56.5t22 81q2 20 -5 44t-21.5 43t-36 32.5t-47.5 15.5q-27 2 -49.5 -12.5t-42 -39t-34.5 -57t-26 -65.5q-23 -69 -30 -145q-4 -38 -3.5 -75.5t3.5 -74.5q4 -35 13 -70.5t24.5 -62.5t37 -42t49.5 -11 q61 2 114.5 34.5t88.5 73.5q39 41 60.5 81t35.5 75q4 12 8.5 22.5t8.5 20.5q16 27 30.5 20t18.5 -30q0 -16 -3 -26.5t-7 -27.5q-4 -12 -14.5 -39.5t-32 -63.5t-57 -76t-89.5 -77q-27 -18 -58.5 -32.5t-68.5 -20.5q-18 -4 -37.5 -4t-42.5 4t-42 16.5t-33 28.5q-43 55 -58 115 q-10 -20 -27.5 -48t-42 -52.5t-56 -42t-68.5 -17.5q-49 0 -84 24.5t-57 64.5q-21 39 -28 89q-4 27 -4 53q0 22 3 44q4 12 7 23t7 20q18 23 34.5 12.5t12.5 -27.5q-9 -35 -9 -68q0 -11 1 -21q4 -42 18.5 -74.5t38 -52t54.5 -23.5q27 -2 55.5 17.5t50.5 53.5q29 43 46.5 98.5 t23.5 112.5q6 44 6 87q0 73 -17 143q-16 78 -53 113.5t-76.5 35.5t-76.5 -34.5t-56 -96.5q-10 -31 -18 -70.5t-16.5 -78.5t-15.5 -73t-15 -54q-8 -16 -19.5 -20.5t-20.5 0.5t-14.5 16.5t-0.5 25.5z" />
<glyph unicode="y" horiz-adv-x="716" d="M-66 -184q-1 8 -1 17q0 27 11 51q13 30 37.5 51.5t54.5 33t56 11.5q17 1 33 1q36 0 67 -3q25 -3 49 -3q21 0 42 2q37 0 77 11q10 23 19.5 45t19.5 45q-25 -23 -54.5 -43.5t-70.5 -30.5q-31 -10 -62.5 -6t-60 16.5t-53 33t-41.5 46.5q-33 51 -47 106.5t-16 108.5v26 q0 40 4 77q6 51 16 94t24.5 84t27 76.5t21.5 60.5t13 35q6 16 18.5 23.5t24 5t18.5 -10.5t3 -22q-4 -10 -10.5 -26.5t-13.5 -37t-13 -40t-10 -33.5q-23 -72 -43 -165q-10 -50 -10 -103q0 -45 8 -93q6 -49 27.5 -95t56.5 -73q30 -25 68 -25q6 0 12 1q45 4 79 30 q51 35 85 100.5t58.5 147.5t43 172t39.5 174q6 33 18 48.5t22.5 15.5t16.5 -17.5t2 -52.5q-2 -16 -6 -45t-8 -60.5t-9.5 -63.5t-9.5 -52q-10 -68 -27.5 -146.5t-41.5 -164.5q-10 -33 -21.5 -67t-25.5 -69q68 33 110 82q47 53 76 107.5t45 99.5q13 30 25 55q18 35 32.5 26 t14.5 -36q-2 -10 -3 -21.5t-6 -21.5q-4 -12 -6 -22q-6 -16 -19 -49t-40 -80t-71 -100.5t-117 -94.5q-18 -10 -39 -18t-41 -15q-35 -68 -84 -125q-39 -43 -92.5 -69.5t-110.5 -30.5q-15 -1 -29 -1q-34 0 -59 7q-35 10 -57.5 27.5t-32.5 38t-13 39.5zM11.5 -192.5 q15.5 -28.5 51.5 -34.5q18 -5 37 -5q20 0 42 6q42 10 77 33q31 16 55.5 44t44.5 61q-43 -4 -87 -5h-18q-35 0 -69 3q-12 1 -24 1q-29 0 -55 -7q-37 -10 -54 -39q-16 -29 -0.5 -57.5z" />
<glyph unicode="z" horiz-adv-x="714" d="M-66 -188q-6 31 3.5 59.5t27 50t42 35.5t48.5 18q35 7 65 7q15 0 28 -2q29 -4 58 -3h23q31 0 60.5 2.5t58.5 6.5q47 111 69.5 190.5t33.5 104.5q4 12 6 23t6 22q-16 0 -31.5 1t-32.5 5q-27 2 -55.5 14t-53 28.5t-39.5 36t-15 38.5q0 14 18 28.5t52 41t80 69.5t106 114 q-46 -4 -108 -5h-13q-56 0 -115 8q-14 0 -35.5 2t-42.5 6q-23 4 -49 6q-2 -4 -6 -20.5t-8 -39t-9.5 -46t-7.5 -38.5q-6 -25 -14 -59.5t-17.5 -70t-17.5 -67.5t-14 -50q-8 -16 -19.5 -21.5t-21.5 -0.5t-15.5 15.5t1.5 24.5q8 27 20 77t23.5 104.5t19.5 100.5t12 64 q12 59 27.5 82t52.5 14q57 -12 121 -18t122 -7h19q47 0 87 4q48 5 75 17q25 10 33 -11t-8 -50q-4 -8 -30 -42t-63.5 -77t-84 -88t-91.5 -76q15 -18 57 -32q33 -11 97 -12q18 0 37 1h2q19 0 19 -29q0 -12 -3 -28q-6 -33 -17 -82t-32 -115q-10 -31 -20.5 -64.5t-24.5 -68.5 q57 25 100 65t74 84t50.5 87t31.5 76q6 14 11.5 25.5t9.5 21.5q16 29 31.5 20.5t15.5 -31.5q0 -16 -3 -28.5t-8 -28.5q-6 -12 -15 -41t-29.5 -68.5t-54.5 -87t-85 -94.5q-72 -57 -164 -82q-4 -10 -9 -19t-9 -20q-16 -35 -42 -69.5t-65 -61.5q-37 -25 -78.5 -41t-91.5 -18 q-23 -2 -49 4t-51 19.5t-42 36t-24 53.5zM7 -186.5q9 -24.5 38 -34.5q27 -12 60.5 -9t66.5 15q51 16 84 51t55 76q-10 -2 -18 -2h-19q-22 -2 -45 -2q-17 0 -35 1q-30 2 -58 2h-19q-37 -1 -65.5 -11.5t-41.5 -36.5q-12 -25 -3 -49.5zM741 301l2 2v-2h-2z" />
<glyph unicode="{" horiz-adv-x="905" d="M103 -34q8 52 30 95q20 41 45 77t45 69q25 33 33 62.5t6 54t-13 45t-26 34.5q-23 25 -25.5 48.5t25.5 33.5q18 8 39 23q16 12 32.5 29.5t27.5 44.5q10 27 10 60.5t-3 73.5t-6.5 84t3.5 91q8 47 33.5 90t64.5 72q37 29 78 41t80 14q41 2 73.5 -8t56 -24.5t37 -29 t17.5 -22.5q23 -29 22.5 -51.5t-34.5 -30.5q-4 -2 -8.5 6t-13.5 20.5t-22.5 27t-35.5 26.5q-20 12 -51 16t-64 -2t-64.5 -22.5t-56.5 -42.5q-27 -29 -36 -65t-10 -77t3 -85t4 -87t-12 -87t-41 -72q-18 -23 -37.5 -35t-38.5 -23q6 -6 16.5 -17t22.5 -32q12 -23 18.5 -58.5 t-5.5 -74.5q-10 -37 -31 -71.5t-42.5 -67.5t-41 -66t-29.5 -69q-10 -35 -6 -70t19.5 -64.5t38 -51t49.5 -29.5q25 -10 46 -9.5t37.5 7t26.5 13.5t14 11l15.5 15.5t14.5 10.5t18.5 2t27.5 -12q2 0 -1 -11t-13 -26.5t-30.5 -34t-53.5 -32.5q-35 -16 -77 -11t-81 26.5 t-70.5 59.5t-43.5 89q-14 47 -6 99z" />
<glyph unicode="|" horiz-adv-x="471" d="M188 30.5q0 59.5 1 145.5t2.5 190.5t2.5 213t3 213t4 190.5t3 146.5t3 78.5q2 39 7 61.5t42 20.5q8 0 11 -78.5t3 -202.5t-3 -276.5t-6 -302t-7 -277.5t-6 -202v-18.5t-2 -14.5q-10 -23 -26.5 -20.5t-22.5 18.5q-6 10 -6.5 19.5t-2.5 19.5l2 -2q-2 18 -2 77.5z" />
<glyph unicode="}" horiz-adv-x="579" d="M-211 -169.5q0 22.5 35 30.5q4 2 8 -6.5t13.5 -20.5t22.5 -26.5t36 -26.5q20 -12 51 -16.5t63.5 2t64.5 21.5t56 44q27 29 36 64.5t10 76.5t-3 85t-4 87t12.5 87t40.5 73q18 23 38 35t38 22q-6 6 -16 17.5t-23 32.5q-12 23 -18 58.5t6 74.5q10 37 30.5 71.5t42 67.5 t41 65.5t29.5 69.5q10 35 6 70t-19 64.5t-37.5 51t-49.5 29.5q-25 10 -46.5 9t-37.5 -7t-26.5 -14t-14.5 -10q-18 -16 -30.5 -26.5t-45.5 9.5q-2 0 1 11.5t13.5 27t31 32.5t53.5 34q33 14 75.5 10t81.5 -25.5t71 -59.5t44 -89q14 -47 6 -99.5t-31 -95.5q-20 -41 -44.5 -76.5 t-45.5 -68.5q-25 -33 -33 -62.5t-6 -54t13.5 -45t25.5 -35.5q23 -25 26 -48t-26 -34q-23 -8 -41 -22q-16 -12 -31.5 -30.5t-25.5 -43.5q-10 -27 -10 -60.5t3 -73.5t6 -84t-3 -91q-8 -47 -33.5 -90t-64.5 -72q-37 -29 -78 -41t-80 -14q-41 -2 -74 8t-56.5 24.5t-37.5 29 t-16 22.5q-23 29 -23 51.5z" />
<glyph unicode="&#xa1;" horiz-adv-x="714" d="M223 -418q-6 2 4 72.5t29.5 182t45 250t52.5 271.5t49.5 249t36.5 181q2 8 3 16.5t5 14.5q12 18 26.5 13t18.5 -19q4 -10 3 -17.5t-3 -17.5q-2 -23 -17.5 -109t-37 -203.5t-46 -251.5t-47 -253t-40 -205t-23.5 -109q-8 -35 -16 -54t-43 -11zM455 895.5q1 9.5 5.5 20.5 t9.5 22.5t9 15.5q14 2 35.5 -3t21.5 -7q2 -2 0 -14.5t-5 -25.5t-6 -23.5t-5 -12.5q-2 -4 -14.5 -2t-47.5 18q-4 2 -3 11.5z" />
<glyph unicode="&#xa2;" horiz-adv-x="1062" d="M205 899q2 84 24.5 166t75.5 147q45 55 105.5 88t126.5 35q2 4 2 11q6 25 14 39t39 8q4 0 -6 -62q41 -10 68.5 -32.5t44 -51t23.5 -58.5t5 -54q-4 -51 -18.5 -81t-22.5 -44q-35 -53 -65.5 -72.5t-53.5 8.5q-4 4 8.5 16.5t30.5 34.5q16 25 36 62t20 86q0 37 -24 72.5 t-65 46.5q-12 -63 -31.5 -147.5t-40 -173.5t-41 -174t-36.5 -148q10 -4 18.5 -5.5t18.5 -3.5q66 -4 124 26t99 71t66.5 84t40.5 77q4 14 9 26t9 22q16 29 30.5 20.5t16.5 -31.5q2 -16 -1 -28.5t-9 -28.5q-4 -12 -16.5 -41t-36 -66.5t-63.5 -78.5t-99 -76q-41 -27 -102.5 -39 t-120.5 6q-2 -4 -2 -7t-3 -7q-4 -16 -8 -23q-10 -12 -22.5 -8t-16.5 14q-2 10 0 25v-2q0 4 1 10t3 16q-6 4 -13 9.5t-15 11.5q-35 27 -59.5 62.5t-40 75.5t-21.5 83t-6 84zM278.5 954.5q-9.5 -79.5 6.5 -151.5q10 -47 33.5 -88t58.5 -68q12 61 31.5 144t39 170.5t39 168 t31.5 136.5q-59 -10 -113.5 -54.5t-85.5 -109.5q-31 -68 -40.5 -147.5zM846 850v2v-2z" />
<glyph unicode="&#xa8;" horiz-adv-x="724" d="M292 863q1 9 3 19.5t3 17.5l1 7q2 2 6 2t43 -4q12 -2 15.5 -11t2.5 -21.5t-6.5 -22.5t-9.5 -12h-4q-8 2 -24.5 4t-22.5 6l-6 2q-2 4 -1 13zM391 842v2q-2 4 0 13t4 19.5t3 17.5l1 7q0 2 4 2t43 -4q12 -2 16.5 -11t2.5 -21.5t-7 -22.5t-9 -13h-5q-8 0 -23 3.5t-24 7.5h-6z " />
<glyph unicode="&#xa9;" horiz-adv-x="1433" d="M186 1038q-8 35 2.5 76t44.5 70q16 12 35 22.5t35 20.5q18 10 41 21.5t27 45.5q0 2 -1 5.5t-1 7.5v6q8 -6 21 -24.5t5 -37.5q-4 -10 -17 -20t-24 -19q-16 -12 -36.5 -24t-38 -26.5t-28.5 -32t-7 -37.5q4 -31 32.5 -34t49.5 1q33 8 56.5 26.5t41.5 42t35.5 48t38.5 43.5 q16 16 37.5 30.5t44.5 18.5q53 12 115.5 -5.5t95.5 -82.5q16 -37 -0.5 -73t-45.5 -73q-10 -12 -17 -21t-3 -26q4 -12 14.5 -19t20.5 -10q20 -4 45.5 1.5t48.5 17.5q31 16 62.5 35.5t60.5 15.5q14 -2 33.5 -11t38 -23.5t32 -32t17.5 -35.5q8 -37 -2.5 -72t-10.5 -68 q0 -16 17.5 -33.5t15.5 -37.5q0 -10 -12 -18.5t-10 -18.5q2 -8 7 -14.5t7 -14.5q2 -10 -9 -24.5t-7 -20.5q10 -16 18 -23.5t0 -23.5q-10 -10 -14 -37q53 31 81.5 52.5t37.5 54.5q4 16 -5 24q-12 8 -20 -10q-2 -4 -4 -12t-6 -8q-8 0 -5 15t5 19q8 16 23.5 15t25.5 -11 q12 -16 2 -40.5t-19 -34.5q-8 -10 -21 -19.5t-26 -17.5q-14 -10 -31.5 -21.5t-37.5 -21.5q0 -2 1 -4t1 -4q14 10 30.5 7t28.5 -14q16 -16 16.5 -36.5t-10 -36t-28 -23.5t-37.5 0q-8 -41 -51 -65.5t-84 -34.5q-35 -6 -71 -8t-71 0q-47 2 -78.5 20.5t-50.5 46.5 q-18 -27 -47 -33q-31 -4 -45 14.5t-14 43t13 45t40 18.5q-2 8 -3 16.5t-3 16.5q-29 8 -53.5 18.5t-46.5 22.5q-18 16 -19 39q2 14 12.5 21.5t22.5 7.5t21.5 -9.5t11.5 -25.5q-2 -8 -7.5 -4t-11.5 10t-14 10t-14 -4q-8 -10 -2 -20.5t18 -16.5q29 -18 72 -30q0 4 -1 5t-1 5 q12 4 12 14t-10 21q-8 6 -18.5 8t-14.5 12q-4 8 1 15.5t11 13.5t10 12t-2 16q-10 16 -30.5 23.5t-28.5 30.5q-4 14 3 26.5t15 24.5q12 16 6 27.5t-19 20.5t-28.5 17.5t-23.5 16.5q-27 29 -29 65.5t15 65.5q4 8 15 19.5t20.5 22.5t13.5 23.5t-6 22.5q-4 4 -9.5 7t-11.5 1 q-27 -6 -48.5 -22.5t-43.5 -30.5q-35 -23 -73 -25t-73 8q-27 6 -55 26t-35 54zM195 1092q-2 -29 4 -57.5t34 -47.5q37 -23 88.5 -26t92.5 20q12 8 29.5 21.5t35 22.5t33.5 12t27 -9q12 -14 11 -26.5t-9.5 -23.5t-19.5 -22.5t-17 -21.5q-16 -25 -17.5 -61.5t27.5 -65.5 q6 -6 19.5 -13.5t26.5 -14.5t22.5 -18t9.5 -26q-2 -16 -18.5 -29.5t-12.5 -31.5q4 -14 18.5 -22.5t24.5 -12.5q0 35 24.5 65.5t59.5 47.5q10 4 19.5 8t25.5 2q35 -6 70 -15.5t65 -37.5q-4 39 -16 74.5t-47 60.5q-27 23 -56.5 17.5t-62.5 -9.5q-16 -2 -35.5 -2t-34.5 4 q-27 4 -40 28.5t-11 49.5q2 20 15.5 39.5t32 39t36 39t27.5 37.5q14 31 6 60t-16 37q-18 18 -41 28.5t-47 4.5q-16 -4 -38 -15.5t-42.5 -27t-39 -31t-28.5 -27.5q-23 -29 -55.5 -48t-63.5 -24q-10 0 -25.5 -1t-25.5 6q-12 8 -20.5 22t-8.5 25q0 27 14.5 46t36 35.5t46 31 t43.5 30.5q14 12 18 23.5t-12 31.5q2 -23 -12.5 -38t-37 -28.5t-48 -26.5t-46.5 -32q-35 -33 -38 -77zM451 1145q20 16 43.5 33.5t47 30t48 14.5t47.5 -11q16 -8 34.5 -27.5t16.5 -64.5q0 -23 -12 -42t-27.5 -36.5t-33 -36t-29.5 -36.5q-4 -6 -9.5 -17.5t-5.5 -19.5 q-2 -12 3.5 -30.5t13.5 -27.5q14 -14 37 -18q18 -4 43.5 0t50.5 8q14 2 31.5 3t27.5 -3q49 -14 70.5 -62t30.5 -102q6 29 19 57.5t26.5 53.5t26 43t16.5 25q10 16 25.5 31.5t31.5 22.5t32.5 5t30.5 -23q-2 12 -5 23.5t-11 22.5q-12 16 -35.5 30.5t-44.5 20.5q-39 12 -80 -13 q-35 -20 -72.5 -38.5t-74.5 -14.5q-12 2 -30.5 12.5t-22.5 32.5q-4 12 6 26.5t20 24.5q20 23 37 52.5t12 56.5q-4 27 -20 48.5t-40 35.5t-50.5 20.5t-46.5 6.5q-23 0 -44.5 -5.5t-41.5 -19.5q-29 -20 -52.5 -43t-39.5 -49zM603 374.5q1 -14.5 7 -24.5q8 -12 24.5 -14t29.5 6 q6 4 14 11t14 20q2 4 6 -4.5t7 -12.5q41 -49 116 -55q68 -6 132.5 5t107.5 46q10 8 20.5 21.5t10.5 32.5q-2 6 -5.5 15t-5.5 17q-4 12 -4 19q-4 12 -8 32q-29 -14 -55.5 -27t-48.5 -24q-10 -4 -14.5 0t5.5 11q29 14 55.5 26t55.5 29q0 10 -1 19t-1 20q-2 10 -2 30 q-2 8 -2 15.5t-2 17.5q0 16 -6 33q-6 16 -16.5 23.5t-18.5 15.5q23 14 14.5 40.5t-18.5 51.5q-25 -14 -45.5 -28.5t-44.5 -32.5q-8 -6 -16.5 -13.5t-14.5 -11.5q-8 -4 -16 4q-23 27 -56 41t-61 21q-23 6 -31 3t-16 -20q-12 -23 -4 -48.5t26 -49.5q-27 -35 -36 -76t-11 -84 q4 -2 9 -2t10 -2q35 -10 82 -15t90 -14q14 -2 15 -6t-9 -6q-49 4 -99.5 11.5t-99.5 17.5v-15v-24.5t-4 -20.5q-4 -2 -16.5 4.5t-16.5 10.5q-2 4 -6 16q-14 0 -23.5 -8t-13.5 -20.5t-3 -27zM606.5 556.5q14.5 -5.5 26.5 -15.5q20 -14 10 -39q-2 -4 -6 -4q0 -4 1 -5.5t1 -5.5 q10 -2 18.5 -4t18.5 -6q4 41 13 81t36 77q-29 29 -30 61.5t16 57.5q-37 -8 -66 -39t-35 -62q-4 -10 0 -16t11 -14q8 -14 4 -25.5t-15 -19.5q-18 -16 -3.5 -21.5zM621 371q-6 12 0 21t16 11.5t20.5 -1t14.5 -15.5q-10 -4 -19.5 -8t-9.5 -23q-8 10 -1 20.5t13 14.5 q-8 10 -22 3t-12 -23zM645 471q4 -12 5 -24.5t5 -24.5q10 -10 21 -10v51q-20 4 -31 8zM659 233q0 12 7 19q6 8 14 8q4 0 6 -1t4 -1q4 -4 8 -6v18v6q3 3 7 3q2 0 4 -3l2 -4v-57q0 -2 -1 -3t-1 -3q-2 0 -4 -2q-2 0 -3.5 1t-3.5 1v6v2l-6 -6q-2 0 -3 -1t-3 -1q0 -2 -6 -2 q-2 0 -4 1t-4 1l-6 6q-4 4 -4 8q-2 4 -3 10zM672 233q0 -4 1 -5t1 -3q2 -2 2 -3t2 -3t6 -2t6 2q4 4 4 6q2 2 2 8t-2 9q0 6 -4 6q-2 2 -6 2t-6 -2t-4 -6q0 -2 -1 -3t-1 -6zM721 233q0 10 2 15q2 4 4 5t4 3q8 4 14 4t11 -2q2 0 6 -4q4 0 4 -4q2 -2 2 -4q0 -4 -2 -4q0 -2 -4 -2 h-2l-2 4q-4 4 -6 4q-2 2 -7 2q-4 0 -8 -4q-4 -8 -4 -13v-6q2 -2 2 -3t2 -3q0 -2 4 -2q0 -2 4 -2q6 0 7 2q2 0 6 6l2 2q0 2 4 2l4 -2v-4v-4q-4 -4 -4 -6q-2 -2 -4 -2t-4 -2q-4 0 -5 -1t-6 -1q-12 0 -18 8q-6 6 -6 18zM737 580q8 16 33 23t47 5q6 0 14.5 -3t12.5 -7t4 -11.5 t-4 -11.5q12 -14 9 -35.5t-15 -35.5q-14 -16 -37 -25.5t-43 -7.5q14 4 25.5 7t19.5 11q-25 -4 -43.5 12.5t-9.5 45.5q6 27 36 37q-14 0 -26 -2t-23 -2zM762 551q-10 -27 2.5 -40t30.5 -13q18 -2 30.5 7t17.5 22.5t3 26.5t-15 19q-2 0 -10 5h-12q-16 0 -29.5 -8.5 t-17.5 -18.5zM776 233q0 4 1 6.5t1 4.5q2 4 6 8t9 6q2 0 4 1t6 1t5 -1t5 -1q2 -2 4 -3t4 -3q4 -4 4 -8q2 -2 2 -11q0 -8 -2 -10q0 -4 -4 -8q-2 -2 -4 -3t-4 -3q-4 0 -5 -1t-5 -1t-6 1t-4 1q-4 2 -9 6q-4 4 -6 8q0 2 -1 4t-1 6zM791 225q4 -4 4 -6q2 -2 8 -2q4 0 8 4 q4 8 4 12q0 8 -4 13q-4 4 -8 4q-6 0 -6 -2q-4 0 -6 -6v-9v-8zM805 537q0 8 10 8t10 -10t-12 -11q-8 0 -8 13zM817 539q0 -4 4 -4l2 4q0 2 -2 2q-4 0 -4 -2zM831 213v2l3 4l12 17l-10 12q-2 2 -2 4v2v4q2 2 6 2l2 -2l4 -4l8 -10l8 10l4 4q0 2 4 2l4 -2v-4v-2l-2 -4l-10 -12 l12 -17q0 -2 3 -4v-2q0 -4 -3 -4l-4 -2q-2 0 -2 1t-2 1l-2 4l-10 14l-10 -14q0 -2 -2 -4q-2 0 -2 -1t-2 -1t-4 2t-3 4zM852 472q2 13 4 13q2 -10 1 -15t5 -9q8 -4 13.5 2t15.5 4q6 -18 21.5 -13t21.5 17q14 -8 20 -2q8 8 0 18q14 -6 4 -20q-10 -12 -22 -4l-9 -9t-16 -8 q-12 0 -17 7.5t-7 7.5q-8 0 -12.5 -5t-14.5 -1t-8 17zM881 195v2q2 2 4 2h2h2h4q2 0 2 2q2 2 2 6l2 2l-16 39q0 2 -1 3t-1 3l2 2q0 2 2 2q2 2 4 2l4 -2q0 -2 2 -6l10 -31l10 29l3 6l2 2q2 2 4 2l2 -2q2 0 2 -2l2 -2q-2 0 -2 -2v-4l-17 -43q-4 -8 -6 -10q0 -4 -4 -5 q-2 -2 -10 -2q-6 0 -8 2q-2 0 -2 5zM887 692q16 16 36.5 41t42 47.5t41 38t35.5 12.5q21 0 35 -20q4 18 11.5 44t-1.5 48q-6 18 -22 25.5t-33 3.5q-14 -4 -30.5 -19.5t-24.5 -25.5q-33 -47 -59.5 -97.5t-30.5 -97.5zM899 618v17q2 -10 2 -22.5t2 -28.5q2 -23 4 -43.5 t8 -36.5q-14 18 -14 51t-2 63zM907 414q-4 12 19 16q18 4 22 -6q0 -4 -6 -3t-14 -1q-8 -4 -13.5 -7t-7.5 1zM907 705q20 18 38 31.5t40 27.5q12 10 27.5 19.5t23.5 0.5q-4 -2 -6 -4l-6 -6q14 -25 18.5 -50.5t-10.5 -45.5q33 -27 35 -58.5t6 -62.5q2 -12 2 -24.5t2 -24.5 q4 2 5 3t5 3q1 15 7 31q2 6 5 12l5 10q2 10 -6 15.5t-13 13.5q-6 10 -0.5 19.5t13.5 19.5q8 14 -1.5 22.5t-11.5 22.5q0 10 11.5 19.5t11.5 19.5q-2 16 -15.5 28.5t-17.5 28.5q-2 6 0 13.5t2 13.5q-4 12 -19.5 18t-25.5 4q-12 -2 -29.5 -16t-35 -33.5t-33.5 -39t-27 -31.5z M911 406q1 4 19 8q23 4 22 0l-20 -4q-8 -2 -14.5 -5.5t-6.5 1.5zM932 215q0 4 2 4q0 2 4 2t4 -2q2 0 2 -4t-2 -6l-4 -2q-2 0 -4 2t-2 6zM941 545.5q1 17.5 11 32.5q-4 4 -7 15t7 13q27 4 55.5 0t39.5 -26q-8 4 -13 4l4 -4q10 -16 8 -35t-18 -31q16 0 27 10q-2 -6 -8.5 -10 t-10.5 -8q-18 -8 -42 -8t-40 16q-14 14 -13 31.5zM950.5 556.5q-4.5 -15.5 7.5 -32.5q16 -20 36 -18t32 15.5t12 32.5t-22 32q-20 2 -47 -4q-14 -10 -18.5 -25.5zM956 233q0 6 5 15q2 6 8 8q8 4 14 4t8 -2q4 0 8 -4q4 0 5 -4q2 -2 2 -4q0 -4 -2 -4q-2 -2 -5 -2h-2l-4 4 q0 4 -4 4q-2 2 -6 2q-2 0 -10 -4q-2 -4 -2 -13v-6q0 -2 1 -3t1 -3q2 -2 4 -2q2 -2 6 -2t6 2q2 0 6 6l2 2q0 2 2 2q4 0 5 -2q2 -2 2 -4q0 -4 -2 -4q0 -2 -5 -6q-2 -2 -3 -2t-3 -2q-4 0 -5 -1t-5 -1q-12 0 -18 8q-8 8 -9 18zM989 545q0 10 10 10t11 -12q-1 -8 -13 -8 q-8 0 -8 10zM999 549q0 -4 5 -4q2 0 2 4t-2 4q-4 0 -5 -4zM1014 233q0 8 2 11l4 8q4 2 8 6q4 0 6 1t6 1q2 0 4.5 -1t6.5 -1q2 -2 4 -3t4 -3q4 -4 4 -8q2 -2 2 -11q0 -8 -2 -10q0 -4 -4 -8q-2 -2 -4 -3t-4 -3q-4 0 -6.5 -1t-4.5 -1q-4 0 -6 1t-6 1q-4 4 -8 6l-4 8q-2 2 -2 10 zM1026 233q0 -4 1 -5t1 -3q2 -2 2 -3t2 -3t8 -2q5 0 9 4q4 8 4 12q0 8 -4 13q-4 4 -9 4q-6 0 -8 -2q-2 0 -4 -6q0 -2 -1 -3t-1 -6zM1075 215v37v6q2 0 3 1t3 1l4 -2q0 -2 1 -2t1 -2v-2l7 6q2 0 4 1t4 1q4 0 5 -1t3 -1l6 -6l6 6q4 0 5 1t6 1q2 0 4 -1t4 -1l6 -6q0 -2 1 -5 t1 -7v-25q0 -2 -1 -3t-1 -3q-2 0 -3 -1t-3 -1t-2 1t-2 1q-2 2 -2 6v23v6q0 2 -2 4t-5 2q-4 0 -6 -2l-2 -4q-2 -2 -2 -11v-18q0 -4 -2 -6q-2 0 -2 -1t-2 -1t-3 1t-3 1q0 2 -1 3t-1 3v21v8q0 4 -2 4q0 2 -4 2t-8 -4q-2 -4 -3 -13v-18q0 -4 -2 -6l-4 -2q-2 0 -4 2t-2 6z M1079 494l4 -29q15 8 15 10q-4 8 -8 25q-8 -4 -11 -6zM1085 455q2 -12 7.5 -23.5t7.5 -21.5q18 -10 33.5 -2t23.5 22t6 30.5t-16 26.5q-25 10 -45 -2l4 -8t2 -8q-4 -6 -11 -8t-12 -6zM1106 430q0 18 16.5 26.5t30.5 -3.5q-6 2 -15.5 0t-13.5 -7q13 4 17 -12q-18 8 -35 -4z " />
<glyph unicode="&#xab;" horiz-adv-x="557" d="M143 371q20 14 46 35.5t46.5 43t33 40t5.5 26.5q-4 4 2.5 7t15.5 4t18 -3t14 -14q10 -31 -11.5 -73.5t-62.5 -69.5q29 -16 49 -49t16 -68t-21.5 -37t-21.5 2q6 10 -8 30.5t-35.5 43t-45 45t-40.5 37.5zM276 371q20 14 46 35.5t47.5 43t34 40t6.5 26.5q-4 4 2 7t14 4 t17.5 -3t13.5 -14q10 -31 -11.5 -73.5t-62.5 -69.5q29 -16 49.5 -49t18.5 -68q-4 -35 -22.5 -37t-22.5 2q6 10 -8.5 30.5t-36 43t-45 45t-40.5 37.5z" />
<glyph unicode="&#xad;" horiz-adv-x="714" d="M221 338q0 12 32 15t73 3t84 -4t67 -8q6 0 8 -4q4 -8 3 -24.5t-5 -24.5q-4 -6 -8 -6q-8 -2 -43 -2t-75 1t-75.5 3t-43.5 2q-8 2 -13.5 6t-3.5 43z" />
<glyph unicode="&#xb4;" horiz-adv-x="708" d="M260 930q-2 14 6 21t20.5 10.5t22.5 2.5t13 -6q2 -6 11 -22t23.5 -34.5t32.5 -35t43 -22.5q-16 -12 -41.5 -12.5t-52.5 11t-49.5 34t-28.5 53.5z" />
<glyph unicode="&#xbb;" horiz-adv-x="589" d="M139 510q4 10 13.5 14t17.5 3t13 -4t3 -7q-6 -8 6.5 -26.5t34 -40t47 -43t45.5 -35.5q-16 -14 -40.5 -37t-46 -45.5t-35 -43t-7.5 -30.5q-4 -4 -22 -2t-23 37q-2 35 18.5 68t49.5 49q-41 27 -62.5 69.5t-11.5 73.5zM272 510q4 10 13.5 14t18.5 3t14.5 -4t3.5 -7 q-6 -8 6 -26.5t32.5 -40t46 -43t46.5 -35.5q-16 -14 -41 -37t-46.5 -45.5t-35 -43t-6.5 -30.5q-4 -4 -21.5 -2t-21.5 37t16 68t49 49q-41 27 -62.5 69.5t-11.5 73.5z" />
<glyph unicode="&#xbf;" horiz-adv-x="1150" d="M228 -131q-13 98 15 191q27 92 77 169.5t108 143.5q53 61 108 115.5t108.5 100.5t102.5 83t88 63q8 25 9 40.5t10 31.5q2 16 12 21.5t20.5 4.5t19.5 -8.5t9 -17.5q0 -6 -2 -20.5t-5 -29.5t-9.5 -29.5t-12.5 -20.5q-23 -18 -102.5 -78t-179.5 -158q-49 -49 -102.5 -107.5 t-99.5 -126t-78 -142t-36 -156.5q2 -80 31 -160t90 -121q31 -20 68 -29.5t73.5 -7.5t70.5 13.5t58 31.5q49 37 71 89.5t30 93.5q4 23 16.5 34t23.5 10t18 -15.5t1 -47.5q-6 -31 -17 -64.5t-31.5 -67.5t-52.5 -63.5t-79 -50.5q-45 -20 -95 -23t-104 7q-53 14 -96 45t-70 74 q-53 84 -66 182zM872 911.5q2 10.5 6 22.5t9 23.5t10 17.5q16 2 39.5 -3t23.5 -7q2 -4 0 -16.5t-5 -27t-7 -25.5t-6 -13q-2 -4 -15.5 -2t-52.5 18q-4 2 -2 12.5z" />
<glyph unicode="&#xc0;" horiz-adv-x="792" d="M-187 630q3 15 12 20t21.5 1t18.5 -18q14 -31 41.5 -55.5t62.5 -38t75 -13.5t83 19q8 35 15.5 68.5t15.5 68.5l30 123q-20 10 -36 26q-35 31 -45.5 90.5t-0.5 127.5q8 66 37 142.5t97 141.5q31 33 75.5 57.5t95 33t102.5 -2t99 -43.5q45 -33 76 -74.5t51.5 -90 t30.5 -98.5t14 -99q8 -100 4 -193.5t-14 -183.5t-25.5 -178t-33 -167t-34.5 -145.5t-30 -111.5q-6 -23 -16 -31t-20.5 -5t-16.5 15.5t-4 28.5q4 20 9 60t7 85q2 33 0 77t-13 87t-32.5 83t-60.5 67q-37 25 -86 29t-101 -7q-33 -6 -65.5 -16t-65.5 -21q-33 -137 -61.5 -262 t-46.5 -194q-6 -20 -16.5 -27.5t-21.5 -4.5t-17.5 14.5t-2.5 29.5v-2q2 14 10.5 54t20.5 97.5t27.5 128t32.5 146.5q-55 -12 -101.5 -6t-83.5 24.5t-63.5 46t-40.5 58.5q-12 23 -9 38zM165 953q3 -32 7 -40q4 -20 12.5 -31.5t16.5 -21.5q20 82 41.5 162t39 144.5t30 104.5 t12.5 42q-43 -29 -74 -72q-37 -55 -56.5 -109.5t-25.5 -100.5t-3 -78zM205 569q41 12 84 22.5t90 12.5q57 4 117.5 -17.5t97.5 -68.5q29 -35 45 -75t25 -76q4 23 9 46t9 48q10 72 19.5 150.5t13.5 164.5t4 174t-25 172q-20 84 -72.5 150.5t-127.5 79.5q-27 6 -52.5 4 t-50.5 -10q-4 -25 -16.5 -77t-29.5 -122t-38.5 -154t-42.5 -176q-16 -61 -30.5 -123.5t-28.5 -124.5zM406 1458q25 6 43 22.5t32.5 35t22.5 34.5t13 22q2 4 12 5.5t22.5 -2t20.5 -10.5t6 -21q-6 -31 -28.5 -53.5t-49 -34t-53.5 -11t-41 12.5z" />
<glyph unicode="&#xc1;" horiz-adv-x="792" d="M-187 630q3 15 12 20t21.5 1t18.5 -18q14 -31 41.5 -55.5t62.5 -38t75 -13.5t83 19q8 35 15.5 68.5t15.5 68.5l30 123q-20 10 -36 26q-35 31 -45.5 90.5t-0.5 127.5q8 66 37 142.5t97 141.5q31 33 75.5 57.5t95 33t102.5 -2t99 -43.5q45 -33 76 -74.5t51.5 -90 t30.5 -98.5t14 -99q8 -100 4 -193.5t-14 -183.5t-25.5 -178t-33 -167t-34.5 -145.5t-30 -111.5q-6 -23 -16 -31t-20.5 -5t-16.5 15.5t-4 28.5q4 20 9 60t7 85q2 33 0 77t-13 87t-32.5 83t-60.5 67q-37 25 -86 29t-101 -7q-33 -6 -65.5 -16t-65.5 -21q-33 -137 -61.5 -262 t-46.5 -194q-6 -20 -16.5 -27.5t-21.5 -4.5t-17.5 14.5t-2.5 29.5v-2q2 14 10.5 54t20.5 97.5t27.5 128t32.5 146.5q-55 -12 -101.5 -6t-83.5 24.5t-63.5 46t-40.5 58.5q-12 23 -9 38zM165 953q3 -32 7 -40q4 -20 12.5 -31.5t16.5 -21.5q20 82 41.5 162t39 144.5t30 104.5 t12.5 42q-43 -29 -74 -72q-37 -55 -56.5 -109.5t-25.5 -100.5t-3 -78zM205 569q41 12 84 22.5t90 12.5q57 4 117.5 -17.5t97.5 -68.5q29 -35 45 -75t25 -76q4 23 9 46t9 48q10 72 19.5 150.5t13.5 164.5t4 174t-25 172q-20 84 -72.5 150.5t-127.5 79.5q-27 6 -52.5 4 t-50.5 -10q-4 -25 -16.5 -77t-29.5 -122t-38.5 -154t-42.5 -176q-16 -61 -30.5 -123.5t-28.5 -124.5zM416 1544q-2 14 6 21t20.5 10.5t22.5 2.5t13 -6q2 -6 11 -22t23.5 -34.5t32.5 -35t43 -22.5q-16 -12 -41.5 -12.5t-52.5 11t-49.5 34t-28.5 53.5z" />
<glyph unicode="&#xc2;" horiz-adv-x="792" d="M-187 630q3 15 12 20t21.5 1t18.5 -18q14 -31 41.5 -55.5t62.5 -38t75 -13.5t83 19q8 35 15.5 68.5t15.5 68.5l30 123q-20 10 -36 26q-35 31 -45.5 90.5t-0.5 127.5q8 66 37 142.5t97 141.5q31 33 75.5 57.5t95 33t102.5 -2t99 -43.5q45 -33 76 -74.5t51.5 -90 t30.5 -98.5t14 -99q8 -100 4 -193.5t-14 -183.5t-25.5 -178t-33 -167t-34.5 -145.5t-30 -111.5q-6 -23 -16 -31t-20.5 -5t-16.5 15.5t-4 28.5q4 20 9 60t7 85q2 33 0 77t-13 87t-32.5 83t-60.5 67q-37 25 -86 29t-101 -7q-33 -6 -65.5 -16t-65.5 -21q-33 -137 -61.5 -262 t-46.5 -194q-6 -20 -16.5 -27.5t-21.5 -4.5t-17.5 14.5t-2.5 29.5v-2q2 14 10.5 54t20.5 97.5t27.5 128t32.5 146.5q-55 -12 -101.5 -6t-83.5 24.5t-63.5 46t-40.5 58.5q-12 23 -9 38zM165 953q3 -32 7 -40q4 -20 12.5 -31.5t16.5 -21.5q20 82 41.5 162t39 144.5t30 104.5 t12.5 42q-43 -29 -74 -72q-37 -55 -56.5 -109.5t-25.5 -100.5t-3 -78zM205 569q41 12 84 22.5t90 12.5q57 4 117.5 -17.5t97.5 -68.5q29 -35 45 -75t25 -76q4 23 9 46t9 48q10 72 19.5 150.5t13.5 164.5t4 174t-25 172q-20 84 -72.5 150.5t-127.5 79.5q-27 6 -52.5 4 t-50.5 -10q-4 -25 -16.5 -77t-29.5 -122t-38.5 -154t-42.5 -176q-16 -61 -30.5 -123.5t-28.5 -124.5zM398 1489.5q-1 9.5 1 11.5q6 -4 16.5 7t23.5 26.5t28.5 31t32.5 19.5q16 -4 29.5 -19.5t24.5 -31t21.5 -27.5t20.5 -8q2 0 1 -9.5t-4 -19.5t-9.5 -18.5t-14.5 -8.5 q-12 2 -33.5 16.5t-38.5 39.5q-14 -12 -36.5 -28.5t-30.5 -20.5q-10 -2 -16.5 5t-10.5 16t-5 18.5z" />
<glyph unicode="&#xc3;" horiz-adv-x="792" d="M-187 630q3 15 12 20t21.5 1t18.5 -18q14 -31 41.5 -55.5t62.5 -38t75 -13.5t83 19q8 35 15.5 68.5t15.5 68.5l30 123q-20 10 -36 26q-35 31 -45.5 90.5t-0.5 127.5q8 66 37 142.5t97 141.5q31 33 75.5 57.5t95 33t102.5 -2t99 -43.5q45 -33 76 -74.5t51.5 -90 t30.5 -98.5t14 -99q8 -100 4 -193.5t-14 -183.5t-25.5 -178t-33 -167t-34.5 -145.5t-30 -111.5q-6 -23 -16 -31t-20.5 -5t-16.5 15.5t-4 28.5q4 20 9 60t7 85q2 33 0 77t-13 87t-32.5 83t-60.5 67q-37 25 -86 29t-101 -7q-33 -6 -65.5 -16t-65.5 -21q-33 -137 -61.5 -262 t-46.5 -194q-6 -20 -16.5 -27.5t-21.5 -4.5t-17.5 14.5t-2.5 29.5v-2q2 14 10.5 54t20.5 97.5t27.5 128t32.5 146.5q-55 -12 -101.5 -6t-83.5 24.5t-63.5 46t-40.5 58.5q-12 23 -9 38zM165 953q3 -32 7 -40q4 -20 12.5 -31.5t16.5 -21.5q20 82 41.5 162t39 144.5t30 104.5 t12.5 42q-43 -29 -74 -72q-37 -55 -56.5 -109.5t-25.5 -100.5t-3 -78zM205 569q41 12 84 22.5t90 12.5q57 4 117.5 -17.5t97.5 -68.5q29 -35 45 -75t25 -76q4 23 9 46t9 48q10 72 19.5 150.5t13.5 164.5t4 174t-25 172q-20 84 -72.5 150.5t-127.5 79.5q-27 6 -52.5 4 t-50.5 -10q-4 -25 -16.5 -77t-29.5 -122t-38.5 -154t-42.5 -176q-16 -61 -30.5 -123.5t-28.5 -124.5zM398 1495q-10 10 12 28q10 10 32.5 17.5t47.5 -0.5q25 -10 36 -15.5t18 -7.5t11 -1t15 5l4 -2q8 -4 17.5 -17.5t13.5 -21.5q0 -6 -3 -8q-2 -4 -11 -10t-27 -10 q-23 -6 -45.5 1t-32.5 13q-14 6 -20.5 7t-12.5 -1t-11 -5t-7 -5q-4 -2 -8.5 0t-28.5 33z" />
<glyph unicode="&#xc4;" horiz-adv-x="792" d="M-187 630q3 15 12 20t21.5 1t18.5 -18q14 -31 41.5 -55.5t62.5 -38t75 -13.5t83 19q8 35 15.5 68.5t15.5 68.5l30 123q-20 10 -36 26q-35 31 -45.5 90.5t-0.5 127.5q8 66 37 142.5t97 141.5q31 33 75.5 57.5t95 33t102.5 -2t99 -43.5q45 -33 76 -74.5t51.5 -90 t30.5 -98.5t14 -99q8 -100 4 -193.5t-14 -183.5t-25.5 -178t-33 -167t-34.5 -145.5t-30 -111.5q-6 -23 -16 -31t-20.5 -5t-16.5 15.5t-4 28.5q4 20 9 60t7 85q2 33 0 77t-13 87t-32.5 83t-60.5 67q-37 25 -86 29t-101 -7q-33 -6 -65.5 -16t-65.5 -21q-33 -137 -61.5 -262 t-46.5 -194q-6 -20 -16.5 -27.5t-21.5 -4.5t-17.5 14.5t-2.5 29.5v-2q2 14 10.5 54t20.5 97.5t27.5 128t32.5 146.5q-55 -12 -101.5 -6t-83.5 24.5t-63.5 46t-40.5 58.5q-12 23 -9 38zM165 953q3 -32 7 -40q4 -20 12.5 -31.5t16.5 -21.5q20 82 41.5 162t39 144.5t30 104.5 t12.5 42q-43 -29 -74 -72q-37 -55 -56.5 -109.5t-25.5 -100.5t-3 -78zM205 569q41 12 84 22.5t90 12.5q57 4 117.5 -17.5t97.5 -68.5q29 -35 45 -75t25 -76q4 23 9 46t9 48q10 72 19.5 150.5t13.5 164.5t4 174t-25 172q-20 84 -72.5 150.5t-127.5 79.5q-27 6 -52.5 4 t-50.5 -10q-4 -25 -16.5 -77t-29.5 -122t-38.5 -154t-42.5 -176q-16 -61 -30.5 -123.5t-28.5 -124.5zM415 1477q1 9 3 19.5t3 17.5l1 7q2 2 6 2t43 -4q12 -2 15.5 -11t2.5 -21.5t-6.5 -22.5t-9.5 -12h-4q-8 2 -24.5 4t-22.5 6l-6 2q-2 4 -1 13zM514 1456v2q-2 4 0 13t4 19.5 t3 17.5l1 7q0 2 4 2t43 -4q12 -2 16.5 -11t2.5 -21.5t-7 -22.5t-9 -13h-5q-8 0 -23 3.5t-24 7.5h-6z" />
<glyph unicode="&#xc5;" horiz-adv-x="792" d="M-187 630q3 15 12 20t21.5 1t18.5 -18q14 -31 41.5 -55.5t62.5 -38t75 -13.5t83 19q8 35 15.5 68.5t15.5 68.5l30 123q-20 10 -36 26q-35 31 -45.5 90.5t-0.5 127.5q8 66 37 142.5t97 141.5q31 33 75.5 57.5t95 33t102.5 -2t99 -43.5q45 -33 76 -74.5t51.5 -90 t30.5 -98.5t14 -99q8 -100 4 -193.5t-14 -183.5t-25.5 -178t-33 -167t-34.5 -145.5t-30 -111.5q-6 -23 -16 -31t-20.5 -5t-16.5 15.5t-4 28.5q4 20 9 60t7 85q2 33 0 77t-13 87t-32.5 83t-60.5 67q-37 25 -86 29t-101 -7q-33 -6 -65.5 -16t-65.5 -21q-33 -137 -61.5 -262 t-46.5 -194q-6 -20 -16.5 -27.5t-21.5 -4.5t-17.5 14.5t-2.5 29.5v-2q2 14 10.5 54t20.5 97.5t27.5 128t32.5 146.5q-55 -12 -101.5 -6t-83.5 24.5t-63.5 46t-40.5 58.5q-12 23 -9 38zM165 953q3 -32 7 -40q4 -20 12.5 -31.5t16.5 -21.5q20 82 41.5 162t39 144.5t30 104.5 t12.5 42q-43 -29 -74 -72q-37 -55 -56.5 -109.5t-25.5 -100.5t-3 -78zM205 569q41 12 84 22.5t90 12.5q57 4 117.5 -17.5t97.5 -68.5q29 -35 45 -75t25 -76q4 23 9 46t9 48q10 72 19.5 150.5t13.5 164.5t4 174t-25 172q-20 84 -72.5 150.5t-127.5 79.5q-27 6 -52.5 4 t-50.5 -10q-4 -25 -16.5 -77t-29.5 -122t-38.5 -154t-42.5 -176q-16 -61 -30.5 -123.5t-28.5 -124.5zM428 1524.5q4 21.5 6 25.5q4 10 12 16t19 -4q-2 2 -2 6q0 6 6 13q2 4 22 12t49 -2q31 -10 42.5 -50t-19.5 -69q-23 -29 -63 -29t-60 31q-16 29 -12 50.5zM471 1554l4 -8 q2 0 1 -9.5t1 -18.5t8.5 -16t22.5 -5q16 4 22 17t-2 22q-4 10 -16.5 11t-18.5 -3q-2 -2 -6 -2q-8 4 -16 12z" />
<glyph unicode="&#xc6;" horiz-adv-x="1486" d="M-191 632q3 15 12 20t21.5 1t18.5 -18q14 -31 41.5 -55.5t62.5 -38t75 -13.5t81 19q8 35 16 67.5t17 67.5q6 33 13 63.5t15 61.5q-18 12 -37 27q-33 31 -44 90t-1 127q10 66 39 142.5t94 141.5q31 33 76 56.5t96.5 32t103.5 -2t97 -43.5q45 -31 77 -73.5t51.5 -90 t30.5 -97.5t15 -99q4 -78 3 -152.5t-7 -146.5q37 45 82 72.5t86 37.5q33 8 66 13q-51 31 -78 92t-28 131t22.5 140.5t72.5 119.5q-10 57 2.5 90t47.5 25q4 2 2 -16.5t2 -49.5q51 35 118.5 46.5t131 1t113.5 -44.5t65 -91q6 -25 -3.5 -58.5t-36 -63t-70.5 -49t-111 -17.5 q-35 0 -71 11t-69 31.5t-57.5 47t-36.5 57.5q-23 -35 -34 -72.5t-15 -72.5q-4 -66 18.5 -127.5t65.5 -91.5q45 -33 98 -51.5t94 -18.5q23 0 31 -11.5t6 -24.5t-13 -25.5t-30 -16.5q-23 -4 -52.5 11.5t-66.5 25.5q-35 8 -79.5 9t-96.5 -15q-66 -20 -119 -80.5t-71 -148.5 q-8 -43 -10 -90.5t6 -94.5t27.5 -91t52.5 -81t75.5 -60.5t92 -33.5t98.5 -6t94 24q92 39 139 128t45 184q-2 45 -14 85t-41 68q-29 29 -63.5 40t-69.5 7q-72 -8 -114 -56t-54 -95q-4 -16 -6 -31.5t-6 -28.5q-10 -41 -26.5 -38.5t-22.5 36.5q-6 53 17.5 115t72.5 105 q23 20 56.5 36.5t74.5 20.5t84 -5t84 -40q41 -33 63.5 -78t29.5 -95t0 -103.5t-24 -102.5q-16 -53 -50 -98t-80 -79t-102 -52.5t-114 -18.5q-57 -2 -112.5 14.5t-103.5 47t-85 74.5t-57 96l-12 36q-16 -72 -33 -133t-27 -102q-6 -23 -17.5 -31t-20.5 -5t-15 15.5t-4 28.5 q4 20 9 60t7 86q0 33 -2 75.5t-13 86.5t-32.5 83t-58.5 68q-39 25 -88.5 29t-98.5 -7q-35 -6 -66.5 -16t-66.5 -20q-16 -70 -31.5 -137.5t-29 -127t-25.5 -109.5t-20 -83q-6 -20 -17.5 -27.5t-21.5 -4.5t-17.5 14.5t-3.5 29.5v-2q2 14 10.5 54t20.5 97.5t27.5 128 t31.5 146.5q-53 -12 -100 -6t-84 24.5t-63.5 46t-40.5 58.5q-10 23 -7 38zM160 955q2 -32 6 -40q6 -20 13 -31.5t18 -21.5q20 82 41.5 162t39 144.5t28.5 104.5t11 42q-23 -14 -40 -32.5t-31 -39.5q-37 -55 -56.5 -110.5t-25.5 -100.5t-4 -77zM199 571q41 12 85 22.5 t91 12.5q57 4 116.5 -17.5t96.5 -68.5q31 -35 46 -74.5t25 -76.5q4 23 8.5 46t8.5 48q10 72 20.5 150.5t14.5 164.5t3 174t-24 172t-75 149.5t-126 80.5q-29 6 -54 4t-50 -10q-4 -25 -15.5 -77t-28.5 -122t-38.5 -154t-44.5 -176q-14 -61 -28.5 -123.5t-30.5 -124.5z M1071 1300q6 -16 15.5 -31.5t23.5 -31.5q31 -37 84 -57.5t115 -10.5q31 4 57.5 17.5t38.5 38.5q12 23 5 49t-30 45q-25 18 -58.5 28.5t-70.5 11.5t-73.5 -6.5t-65.5 -23.5q-20 -12 -41 -29z" />
<glyph unicode="&#xc7;" horiz-adv-x="626" d="M-100 1257.5q-6 57.5 18 120.5q6 14 18.5 19.5t22.5 2.5t14 -16.5t-6 -37.5q-12 -33 -8 -74t26.5 -75t64.5 -56.5t104 -18.5q10 18 20 37t23 35q31 49 71.5 94t90 77t105.5 48.5t116 9.5q88 -10 146 -73.5t62 -167.5q0 -25 -4 -61t-16 -76.5t-34.5 -86t-55.5 -88.5 q-14 -18 -29.5 -21t-27 2t-16.5 18.5t1 29.5q16 43 21.5 96.5t-8 96.5t-51.5 62.5t-107 -7.5q-45 -16 -97.5 -39t-105.5 -39q-14 -4 -27.5 -6t-29.5 -6l-6 -13q-47 -111 -77 -233.5t-40 -245.5q-14 -147 7 -246.5t62 -156t95.5 -76.5t105.5 -12q55 8 102.5 59t82 114.5 t58.5 124t32 89.5q8 33 20 42t21.5 2t13.5 -25.5t-2 -43.5q-2 -8 -12.5 -43t-30 -83t-48 -102t-68.5 -100.5t-92 -76t-116 -29.5h-10q-8 -37 -29.5 -57.5t-31.5 -24.5q-8 -2 -13.5 1t-1.5 11t10 21q10 20 17 57q-53 12 -91 41t-63.5 62.5t-41 68.5t-23.5 62 q-33 119 -29 242.5t27 246.5q16 84 37.5 165t56.5 157q-61 2 -110.5 29.5t-78 71.5t-34.5 101.5zM244 1139q23 4 53.5 16t64 25.5t66.5 27t59 19.5q100 20 153.5 -38.5t49.5 -168.5q37 76 34 142.5t-32.5 114.5t-78 71.5t-101.5 13.5q-92 -16 -156.5 -79.5t-111.5 -143.5z " />
<glyph unicode="&#xc8;" horiz-adv-x="819" d="M-1 432.5q3 99.5 38 185.5t99.5 137.5t125.5 67.5q33 8 66 13q-51 31 -78 92t-28 131.5t22.5 140.5t72.5 121q-10 55 2.5 88t47.5 25q4 2 2 -16.5t2 -49.5q51 35 118.5 47t131 1t113.5 -45t65 -91q6 -25 -3.5 -58.5t-35 -62.5t-70.5 -49t-110 -18q-35 0 -72 11 t-69.5 31.5t-57.5 47t-37 57.5q-43 -70 -47 -145q-4 -66 18.5 -127.5t65.5 -92.5t97 -49t95 -20q20 0 29.5 -11.5t6.5 -24.5t-14 -25.5t-30 -16.5q-23 -4 -52.5 12.5t-66.5 24.5q-35 10 -79.5 10t-96.5 -16q-63 -20 -116.5 -80t-71.5 -148q-10 -43 -11 -90t7 -94t26.5 -91 t51.5 -81t75.5 -61.5t92 -34.5t98.5 -6t94 24q47 18 82 52t57.5 76t33.5 89t11 95q0 47 -13 87t-42 66q-29 29 -63.5 40t-69.5 7q-72 -8 -114 -56t-52 -93q-6 -16 -8 -31.5t-6 -30.5q-10 -41 -26.5 -39t-22.5 37q-6 53 18.5 114.5t71.5 104.5q23 20 57.5 37t74.5 21t83 -5 t84 -40q41 -33 63.5 -78t29.5 -95.5t0 -103.5t-24 -102q-16 -53 -50 -98.5t-80 -79t-101 -52t-113 -18.5q-59 -2 -114.5 14.5t-103.5 47t-85 74.5t-57 95q-41 102 -38 201.5zM389 1294q6 -16 15.5 -31.5t23.5 -31.5q31 -37 84 -57.5t117 -10.5q29 4 56.5 17.5t37.5 38.5 q14 23 6 49t-31 45q-25 18 -58.5 28.5t-70.5 11.5t-73.5 -6.5t-65.5 -23.5q-20 -12 -41 -29zM473 1458q25 6 43 22.5t32.5 35t22.5 34.5t13 22q2 4 12 5.5t22.5 -2t20.5 -10.5t6 -21q-6 -31 -28.5 -53.5t-49 -34t-53.5 -11t-41 12.5z" />
<glyph unicode="&#xc9;" horiz-adv-x="819" d="M-1 432.5q3 99.5 38 185.5t99.5 137.5t125.5 67.5q33 8 66 13q-51 31 -78 92t-28 131.5t22.5 140.5t72.5 121q-10 55 2.5 88t47.5 25q4 2 2 -16.5t2 -49.5q51 35 118.5 47t131 1t113.5 -45t65 -91q6 -25 -3.5 -58.5t-35 -62.5t-70.5 -49t-110 -18q-35 0 -72 11 t-69.5 31.5t-57.5 47t-37 57.5q-43 -70 -47 -145q-4 -66 18.5 -127.5t65.5 -92.5t97 -49t95 -20q20 0 29.5 -11.5t6.5 -24.5t-14 -25.5t-30 -16.5q-23 -4 -52.5 12.5t-66.5 24.5q-35 10 -79.5 10t-96.5 -16q-63 -20 -116.5 -80t-71.5 -148q-10 -43 -11 -90t7 -94t26.5 -91 t51.5 -81t75.5 -61.5t92 -34.5t98.5 -6t94 24q47 18 82 52t57.5 76t33.5 89t11 95q0 47 -13 87t-42 66q-29 29 -63.5 40t-69.5 7q-72 -8 -114 -56t-52 -93q-6 -16 -8 -31.5t-6 -30.5q-10 -41 -26.5 -39t-22.5 37q-6 53 18.5 114.5t71.5 104.5q23 20 57.5 37t74.5 21t83 -5 t84 -40q41 -33 63.5 -78t29.5 -95.5t0 -103.5t-24 -102q-16 -53 -50 -98.5t-80 -79t-101 -52t-113 -18.5q-59 -2 -114.5 14.5t-103.5 47t-85 74.5t-57 95q-41 102 -38 201.5zM389 1294q6 -16 15.5 -31.5t23.5 -31.5q31 -37 84 -57.5t117 -10.5q29 4 56.5 17.5t37.5 38.5 q14 23 6 49t-31 45q-25 18 -58.5 28.5t-70.5 11.5t-73.5 -6.5t-65.5 -23.5q-20 -12 -41 -29zM477 1544q-2 14 6 21t20.5 10.5t22.5 2.5t13 -6q2 -6 11 -22t23.5 -34.5t32.5 -35t43 -22.5q-16 -12 -41.5 -12.5t-52.5 11t-49.5 34t-28.5 53.5z" />
<glyph unicode="&#xca;" horiz-adv-x="819" d="M-1 432.5q3 99.5 38 185.5t99.5 137.5t125.5 67.5q33 8 66 13q-51 31 -78 92t-28 131.5t22.5 140.5t72.5 121q-10 55 2.5 88t47.5 25q4 2 2 -16.5t2 -49.5q51 35 118.5 47t131 1t113.5 -45t65 -91q6 -25 -3.5 -58.5t-35 -62.5t-70.5 -49t-110 -18q-35 0 -72 11 t-69.5 31.5t-57.5 47t-37 57.5q-43 -70 -47 -145q-4 -66 18.5 -127.5t65.5 -92.5t97 -49t95 -20q20 0 29.5 -11.5t6.5 -24.5t-14 -25.5t-30 -16.5q-23 -4 -52.5 12.5t-66.5 24.5q-35 10 -79.5 10t-96.5 -16q-63 -20 -116.5 -80t-71.5 -148q-10 -43 -11 -90t7 -94t26.5 -91 t51.5 -81t75.5 -61.5t92 -34.5t98.5 -6t94 24q47 18 82 52t57.5 76t33.5 89t11 95q0 47 -13 87t-42 66q-29 29 -63.5 40t-69.5 7q-72 -8 -114 -56t-52 -93q-6 -16 -8 -31.5t-6 -30.5q-10 -41 -26.5 -39t-22.5 37q-6 53 18.5 114.5t71.5 104.5q23 20 57.5 37t74.5 21t83 -5 t84 -40q41 -33 63.5 -78t29.5 -95.5t0 -103.5t-24 -102q-16 -53 -50 -98.5t-80 -79t-101 -52t-113 -18.5q-59 -2 -114.5 14.5t-103.5 47t-85 74.5t-57 95q-41 102 -38 201.5zM389 1294q6 -16 15.5 -31.5t23.5 -31.5q31 -37 84 -57.5t117 -10.5q29 4 56.5 17.5t37.5 38.5 q14 23 6 49t-31 45q-25 18 -58.5 28.5t-70.5 11.5t-73.5 -6.5t-65.5 -23.5q-20 -12 -41 -29zM462 1489.5q-1 9.5 1 11.5q6 -4 16.5 7t23.5 26.5t28.5 31t32.5 19.5q16 -4 29.5 -19.5t24.5 -31t21.5 -27.5t20.5 -8q2 0 1 -9.5t-4 -19.5t-9.5 -18.5t-14.5 -8.5 q-12 2 -33.5 16.5t-38.5 39.5q-14 -12 -36.5 -28.5t-30.5 -20.5q-10 -2 -16.5 5t-10.5 16t-5 18.5z" />
<glyph unicode="&#xcb;" horiz-adv-x="819" d="M-1 432.5q3 99.5 38 185.5t99.5 137.5t125.5 67.5q33 8 66 13q-51 31 -78 92t-28 131.5t22.5 140.5t72.5 121q-10 55 2.5 88t47.5 25q4 2 2 -16.5t2 -49.5q51 35 118.5 47t131 1t113.5 -45t65 -91q6 -25 -3.5 -58.5t-35 -62.5t-70.5 -49t-110 -18q-35 0 -72 11 t-69.5 31.5t-57.5 47t-37 57.5q-43 -70 -47 -145q-4 -66 18.5 -127.5t65.5 -92.5t97 -49t95 -20q20 0 29.5 -11.5t6.5 -24.5t-14 -25.5t-30 -16.5q-23 -4 -52.5 12.5t-66.5 24.5q-35 10 -79.5 10t-96.5 -16q-63 -20 -116.5 -80t-71.5 -148q-10 -43 -11 -90t7 -94t26.5 -91 t51.5 -81t75.5 -61.5t92 -34.5t98.5 -6t94 24q47 18 82 52t57.5 76t33.5 89t11 95q0 47 -13 87t-42 66q-29 29 -63.5 40t-69.5 7q-72 -8 -114 -56t-52 -93q-6 -16 -8 -31.5t-6 -30.5q-10 -41 -26.5 -39t-22.5 37q-6 53 18.5 114.5t71.5 104.5q23 20 57.5 37t74.5 21t83 -5 t84 -40q41 -33 63.5 -78t29.5 -95.5t0 -103.5t-24 -102q-16 -53 -50 -98.5t-80 -79t-101 -52t-113 -18.5q-59 -2 -114.5 14.5t-103.5 47t-85 74.5t-57 95q-41 102 -38 201.5zM389 1294q6 -16 15.5 -31.5t23.5 -31.5q31 -37 84 -57.5t117 -10.5q29 4 56.5 17.5t37.5 38.5 q14 23 6 49t-31 45q-25 18 -58.5 28.5t-70.5 11.5t-73.5 -6.5t-65.5 -23.5q-20 -12 -41 -29zM499 1477q1 9 3 19.5t3 17.5l1 7q2 2 6 2t43 -4q12 -2 15.5 -11t2.5 -21.5t-6.5 -22.5t-9.5 -12h-4q-8 2 -24.5 4t-22.5 6l-6 2q-2 4 -1 13zM598 1456v2q-2 4 0 13t4 19.5t3 17.5 l1 7q0 2 4 2t43 -4q12 -2 16.5 -11t2.5 -21.5t-7 -22.5t-9 -13h-5q-8 0 -23 3.5t-24 7.5h-6z" />
<glyph unicode="&#xcc;" horiz-adv-x="598" d="M0 1223q4 86 53 142t133 54q51 -2 87 -29.5t55.5 -69.5t23.5 -90t-8 -91q49 14 101.5 47t101.5 69.5t88.5 73.5t64.5 62q39 39 58.5 33.5t9.5 -40.5q-2 -10 -18.5 -88.5t-43 -194.5t-58.5 -253t-63.5 -264t-62 -229.5t-51.5 -149.5q-10 -23 -29.5 -57.5t-50.5 -67.5 t-76 -56.5t-104 -23.5q-76 0 -117 39t-60.5 89t-22.5 98t-3 67q4 72 20.5 129t32.5 100q8 27 22.5 35t25 2t13.5 -23.5t-7 -41.5q-31 -72 -41.5 -147t1 -136t44.5 -101t90 -42q53 -2 92 24.5t67.5 67.5t46 88t27.5 88q39 154 76 303t67.5 277t54.5 224.5t38 143.5 q-25 -23 -61.5 -54.5t-86 -64t-107.5 -64.5t-124 -54q-29 -35 -55.5 -59.5t-36.5 -31.5q-14 -10 -26.5 -9t-18.5 9.5t-5 19.5t11 21q16 12 31 27q-53 -4 -91 12.5t-63 45t-36 65.5t-9 76zM75 1192q5 -29 20.5 -52.5t39.5 -35.5q27 -10 59.5 -9t67.5 11q0 2 4 10 q18 37 20.5 88t-26.5 94q-29 47 -79 50.5t-85 -48.5q-16 -23 -21 -51t0 -57zM387 1458q25 6 43 22.5t32.5 35t22.5 34.5t13 22q2 4 12 5.5t22.5 -2t20.5 -10.5t6 -21q-6 -31 -28.5 -53.5t-49 -34t-53.5 -11t-41 12.5z" />
<glyph unicode="&#xcd;" horiz-adv-x="598" d="M0 1223q4 86 53 142t133 54q51 -2 87 -29.5t55.5 -69.5t23.5 -90t-8 -91q49 14 101.5 47t101.5 69.5t88.5 73.5t64.5 62q39 39 58.5 33.5t9.5 -40.5q-2 -10 -18.5 -88.5t-43 -194.5t-58.5 -253t-63.5 -264t-62 -229.5t-51.5 -149.5q-10 -23 -29.5 -57.5t-50.5 -67.5 t-76 -56.5t-104 -23.5q-76 0 -117 39t-60.5 89t-22.5 98t-3 67q4 72 20.5 129t32.5 100q8 27 22.5 35t25 2t13.5 -23.5t-7 -41.5q-31 -72 -41.5 -147t1 -136t44.5 -101t90 -42q53 -2 92 24.5t67.5 67.5t46 88t27.5 88q39 154 76 303t67.5 277t54.5 224.5t38 143.5 q-25 -23 -61.5 -54.5t-86 -64t-107.5 -64.5t-124 -54q-29 -35 -55.5 -59.5t-36.5 -31.5q-14 -10 -26.5 -9t-18.5 9.5t-5 19.5t11 21q16 12 31 27q-53 -4 -91 12.5t-63 45t-36 65.5t-9 76zM75 1192q5 -29 20.5 -52.5t39.5 -35.5q27 -10 59.5 -9t67.5 11q0 2 4 10 q18 37 20.5 88t-26.5 94q-29 47 -79 50.5t-85 -48.5q-16 -23 -21 -51t0 -57zM391 1544q-2 14 6 21t20.5 10.5t22.5 2.5t13 -6q2 -6 11 -22t23.5 -34.5t32.5 -35t43 -22.5q-16 -12 -41.5 -12.5t-52.5 11t-49.5 34t-28.5 53.5z" />
<glyph unicode="&#xce;" horiz-adv-x="598" d="M0 1223q4 86 53 142t133 54q51 -2 87 -29.5t55.5 -69.5t23.5 -90t-8 -91q49 14 101.5 47t101.5 69.5t88.5 73.5t64.5 62q39 39 58.5 33.5t9.5 -40.5q-2 -10 -18.5 -88.5t-43 -194.5t-58.5 -253t-63.5 -264t-62 -229.5t-51.5 -149.5q-10 -23 -29.5 -57.5t-50.5 -67.5 t-76 -56.5t-104 -23.5q-76 0 -117 39t-60.5 89t-22.5 98t-3 67q4 72 20.5 129t32.5 100q8 27 22.5 35t25 2t13.5 -23.5t-7 -41.5q-31 -72 -41.5 -147t1 -136t44.5 -101t90 -42q53 -2 92 24.5t67.5 67.5t46 88t27.5 88q39 154 76 303t67.5 277t54.5 224.5t38 143.5 q-25 -23 -61.5 -54.5t-86 -64t-107.5 -64.5t-124 -54q-29 -35 -55.5 -59.5t-36.5 -31.5q-14 -10 -26.5 -9t-18.5 9.5t-5 19.5t11 21q16 12 31 27q-53 -4 -91 12.5t-63 45t-36 65.5t-9 76zM75 1192q5 -29 20.5 -52.5t39.5 -35.5q27 -10 59.5 -9t67.5 11q0 2 4 10 q18 37 20.5 88t-26.5 94q-29 47 -79 50.5t-85 -48.5q-16 -23 -21 -51t0 -57zM374 1489.5q-1 9.5 1 11.5q6 -4 16.5 7t23.5 26.5t28.5 31t32.5 19.5q16 -4 29.5 -19.5t24.5 -31t21.5 -27.5t20.5 -8q2 0 1 -9.5t-4 -19.5t-9.5 -18.5t-14.5 -8.5q-12 2 -33.5 16.5t-38.5 39.5 q-14 -12 -36.5 -28.5t-30.5 -20.5q-10 -2 -16.5 5t-10.5 16t-5 18.5z" />
<glyph unicode="&#xcf;" horiz-adv-x="598" d="M0 1223q4 86 53 142t133 54q51 -2 87 -29.5t55.5 -69.5t23.5 -90t-8 -91q49 14 101.5 47t101.5 69.5t88.5 73.5t64.5 62q39 39 58.5 33.5t9.5 -40.5q-2 -10 -18.5 -88.5t-43 -194.5t-58.5 -253t-63.5 -264t-62 -229.5t-51.5 -149.5q-10 -23 -29.5 -57.5t-50.5 -67.5 t-76 -56.5t-104 -23.5q-76 0 -117 39t-60.5 89t-22.5 98t-3 67q4 72 20.5 129t32.5 100q8 27 22.5 35t25 2t13.5 -23.5t-7 -41.5q-31 -72 -41.5 -147t1 -136t44.5 -101t90 -42q53 -2 92 24.5t67.5 67.5t46 88t27.5 88q39 154 76 303t67.5 277t54.5 224.5t38 143.5 q-25 -23 -61.5 -54.5t-86 -64t-107.5 -64.5t-124 -54q-29 -35 -55.5 -59.5t-36.5 -31.5q-14 -10 -26.5 -9t-18.5 9.5t-5 19.5t11 21q16 12 31 27q-53 -4 -91 12.5t-63 45t-36 65.5t-9 76zM75 1192q5 -29 20.5 -52.5t39.5 -35.5q27 -10 59.5 -9t67.5 11q0 2 4 10 q18 37 20.5 88t-26.5 94q-29 47 -79 50.5t-85 -48.5q-16 -23 -21 -51t0 -57zM380 1477q1 9 3 19.5t3 17.5l1 7q2 2 6 2t43 -4q12 -2 15.5 -11t2.5 -21.5t-6.5 -22.5t-9.5 -12h-4q-8 2 -24.5 4t-22.5 6l-6 2q-2 4 -1 13zM479 1456v2q-2 4 0 13t4 19.5t3 17.5l1 7q0 2 4 2 t43 -4q12 -2 16.5 -11t2.5 -21.5t-7 -22.5t-9 -13h-5q-8 0 -23 3.5t-24 7.5h-6z" />
<glyph unicode="&#xd0;" horiz-adv-x="991" d="M0 355.5q0 62.5 19.5 119.5t54.5 100q35 45 86 69t100 18q23 -2 44.5 -8.5t37.5 -14.5q2 6 12.5 46t26.5 99q-37 0 -64.5 1t-33.5 3q-8 2 -13.5 6.5t-3.5 43.5q0 12 40 15t93 3q20 80 44 169t43.5 164t31.5 124t12 51q-43 -8 -77 -23q-18 -6 -31.5 -2t-17 14.5t6 23 t33.5 24.5q25 10 58 18t71.5 9.5t82.5 -9t87 -35.5q88 -49 148 -148t80 -220q23 -123 13.5 -252t-46.5 -260q-35 -131 -115 -252t-209 -191q-61 -35 -132.5 -51t-142.5 -10t-135.5 34.5t-111.5 82.5q-47 51 -69.5 113.5t-22.5 125zM68 381q-10 -82 34.5 -163t130.5 -120 q0 6 3 8q14 70 28 150q12 66 28.5 151t37.5 171q-20 10 -45 17t-54 3q-29 0 -56.5 -17.5t-51 -46t-38.5 -68.5t-17 -85zM289 80q117 -25 214 7t174 103.5t130 176t80 225.5q29 127 30 259t-31 242.5t-102.5 187.5t-185.5 93q-6 -23 -19.5 -77t-32 -127.5t-40 -156.5 t-39.5 -161q31 -2 55.5 -4t40.5 -4q6 0 8 -4q4 -8 3 -24.5t-5 -24.5q-4 -6 -8 -7q-6 -2 -37.5 -2h-72.5q-16 -66 -28.5 -115t-16.5 -69l9 -8t20 -18.5t21.5 -21.5t16.5 -20q29 -47 10.5 -51t-45.5 17q-25 18 -47 39q-14 -61 -30.5 -136t-32 -143t-26.5 -117t-13 -59z" />
<glyph unicode="&#xd1;" d="M2 49q4 31 19.5 97.5t37 155.5t48 191.5t53.5 204.5q-35 14 -58.5 41t-40 58.5t-25.5 68.5t-11 72q-8 70 8 149.5t61 157.5q23 39 55.5 74t75.5 61q45 27 98.5 37t106.5 -6q61 -20 93 -67.5t50 -92.5q35 -92 52 -192q16 -98 21 -191.5t7 -181.5v-121q8 35 15.5 72 t17.5 72q27 113 56.5 226.5t56 209.5t47 164t26.5 86t18.5 25t24 5t17.5 -11t2 -28q-10 -37 -25.5 -96t-35 -131t-40 -150.5t-38.5 -156.5q-29 -115 -57.5 -234.5t-54.5 -229t-46.5 -201t-34.5 -148.5q-6 -23 -17.5 -32t-21.5 -7t-17 12.5t-3 28.5q6 31 10 68.5t8 60.5 q6 47 12.5 132t10.5 196q2 70 2 150.5t-5.5 166.5t-16.5 173t-34 173q-6 20 -16 51t-25.5 58.5t-37 49t-52.5 26.5q-10 -49 -34.5 -148.5t-57.5 -223.5t-70.5 -263.5t-72.5 -268.5t-62.5 -238.5t-42.5 -174.5q-4 -18 -15 -24.5t-21.5 -3.5t-17.5 15.5t-3 32.5zM90 936 q4 -45 14.5 -75t18.5 -38q14 -23 28.5 -36t24.5 -25q27 100 52.5 193.5t47 169t37 128t21.5 68.5q4 16 8 27q-41 -2 -75 -20.5t-60.5 -46.5t-46 -60.5t-33.5 -63.5q-29 -63 -35 -119.5t-2 -101.5zM568 1495q-10 10 12 28q10 10 32.5 17.5t47.5 -0.5q25 -10 36 -15.5t18 -7.5 t11 -1t15 5l4 -2q8 -4 17.5 -17.5t13.5 -21.5q0 -6 -3 -8q-2 -4 -11 -10t-27 -10q-23 -6 -45.5 1t-32.5 13q-14 6 -20.5 7t-12.5 -1t-11 -5t-7 -5q-4 -2 -8.5 0t-28.5 33z" />
<glyph unicode="&#xd2;" d="M2 358.5q-4 75.5 6 146t30.5 136.5t45.5 125q27 59 61.5 109.5t79.5 89.5q45 37 103.5 53t109.5 -8q51 -23 74 -61t33 -68q10 -31 11 -54.5t1 -40.5q-4 -119 -37 -181t-65 -46q-4 2 7 33t23 90q6 31 9.5 66.5t-0.5 76.5q-6 39 -28 79t-65 50q-41 12 -89 -12t-85 -72 q-39 -45 -66.5 -104t-47.5 -125q-23 -66 -34 -137.5t-7 -143.5t28.5 -141t79.5 -110q55 -45 127 -37t131 55q59 45 103.5 109.5t79.5 136.5q63 143 97 296.5t40 299.5q2 72 -7.5 141.5t-37.5 126.5q-27 57 -74 90t-100 31q-55 -4 -101.5 -24.5t-85.5 -50.5t-68.5 -64.5 t-52.5 -63.5q-16 -23 -30.5 -43t-26.5 -37q-18 -25 -30.5 -33t-17.5 -3t-4 19.5t7 35.5q6 14 15.5 31.5t20.5 35t19.5 29.5t10.5 14q18 27 54 67t97 83q35 25 83 45t108 22q61 4 121.5 -31t95.5 -94t52 -126.5t20 -138t-4 -144.5t-19 -148q-14 -74 -32.5 -148.5t-45.5 -148 t-64.5 -145.5t-89.5 -137q-51 -63 -123.5 -112.5t-164.5 -47.5q-47 0 -88 18.5t-74 47t-55.5 65.5t-34.5 74q-25 78 -29 153.5zM496 1458q25 6 43 22.5t32.5 35t22.5 34.5t13 22q2 4 12 5.5t22.5 -2t20.5 -10.5t6 -21q-6 -31 -28.5 -53.5t-49 -34t-53.5 -11t-41 12.5z" />
<glyph unicode="&#xd3;" d="M2 358.5q-4 75.5 6 146t30.5 136.5t45.5 125q27 59 61.5 109.5t79.5 89.5q45 37 103.5 53t109.5 -8q51 -23 74 -61t33 -68q10 -31 11 -54.5t1 -40.5q-4 -119 -37 -181t-65 -46q-4 2 7 33t23 90q6 31 9.5 66.5t-0.5 76.5q-6 39 -28 79t-65 50q-41 12 -89 -12t-85 -72 q-39 -45 -66.5 -104t-47.5 -125q-23 -66 -34 -137.5t-7 -143.5t28.5 -141t79.5 -110q55 -45 127 -37t131 55q59 45 103.5 109.5t79.5 136.5q63 143 97 296.5t40 299.5q2 72 -7.5 141.5t-37.5 126.5q-27 57 -74 90t-100 31q-55 -4 -101.5 -24.5t-85.5 -50.5t-68.5 -64.5 t-52.5 -63.5q-16 -23 -30.5 -43t-26.5 -37q-18 -25 -30.5 -33t-17.5 -3t-4 19.5t7 35.5q6 14 15.5 31.5t20.5 35t19.5 29.5t10.5 14q18 27 54 67t97 83q35 25 83 45t108 22q61 4 121.5 -31t95.5 -94t52 -126.5t20 -138t-4 -144.5t-19 -148q-14 -74 -32.5 -148.5t-45.5 -148 t-64.5 -145.5t-89.5 -137q-51 -63 -123.5 -112.5t-164.5 -47.5q-47 0 -88 18.5t-74 47t-55.5 65.5t-34.5 74q-25 78 -29 153.5zM498 1544q-2 14 6 21t20.5 10.5t22.5 2.5t13 -6q2 -6 11 -22t23.5 -34.5t32.5 -35t43 -22.5q-16 -12 -41.5 -12.5t-52.5 11t-49.5 34t-28.5 53.5 z" />
<glyph unicode="&#xd4;" d="M2 358.5q-4 75.5 6 146t30.5 136.5t45.5 125q27 59 61.5 109.5t79.5 89.5q45 37 103.5 53t109.5 -8q51 -23 74 -61t33 -68q10 -31 11 -54.5t1 -40.5q-4 -119 -37 -181t-65 -46q-4 2 7 33t23 90q6 31 9.5 66.5t-0.5 76.5q-6 39 -28 79t-65 50q-41 12 -89 -12t-85 -72 q-39 -45 -66.5 -104t-47.5 -125q-23 -66 -34 -137.5t-7 -143.5t28.5 -141t79.5 -110q55 -45 127 -37t131 55q59 45 103.5 109.5t79.5 136.5q63 143 97 296.5t40 299.5q2 72 -7.5 141.5t-37.5 126.5q-27 57 -74 90t-100 31q-55 -4 -101.5 -24.5t-85.5 -50.5t-68.5 -64.5 t-52.5 -63.5q-16 -23 -30.5 -43t-26.5 -37q-18 -25 -30.5 -33t-17.5 -3t-4 19.5t7 35.5q6 14 15.5 31.5t20.5 35t19.5 29.5t10.5 14q18 27 54 67t97 83q35 25 83 45t108 22q61 4 121.5 -31t95.5 -94t52 -126.5t20 -138t-4 -144.5t-19 -148q-14 -74 -32.5 -148.5t-45.5 -148 t-64.5 -145.5t-89.5 -137q-51 -63 -123.5 -112.5t-164.5 -47.5q-47 0 -88 18.5t-74 47t-55.5 65.5t-34.5 74q-25 78 -29 153.5zM488 1489.5q-1 9.5 1 11.5q6 -4 16.5 7t23.5 26.5t28.5 31t32.5 19.5q16 -4 29.5 -19.5t24.5 -31t21.5 -27.5t20.5 -8q2 0 1 -9.5t-4 -19.5 t-9.5 -18.5t-14.5 -8.5q-12 2 -33.5 16.5t-38.5 39.5q-14 -12 -36.5 -28.5t-30.5 -20.5q-10 -2 -16.5 5t-10.5 16t-5 18.5z" />
<glyph unicode="&#xd5;" d="M2 358.5q-4 75.5 6 146t30.5 136.5t45.5 125q27 59 61.5 109.5t79.5 89.5q45 37 103.5 53t109.5 -8q51 -23 74 -61t33 -68q10 -31 11 -54.5t1 -40.5q-4 -119 -37 -181t-65 -46q-4 2 7 33t23 90q6 31 9.5 66.5t-0.5 76.5q-6 39 -28 79t-65 50q-41 12 -89 -12t-85 -72 q-39 -45 -66.5 -104t-47.5 -125q-23 -66 -34 -137.5t-7 -143.5t28.5 -141t79.5 -110q55 -45 127 -37t131 55q59 45 103.5 109.5t79.5 136.5q63 143 97 296.5t40 299.5q2 72 -7.5 141.5t-37.5 126.5q-27 57 -74 90t-100 31q-55 -4 -101.5 -24.5t-85.5 -50.5t-68.5 -64.5 t-52.5 -63.5q-16 -23 -30.5 -43t-26.5 -37q-18 -25 -30.5 -33t-17.5 -3t-4 19.5t7 35.5q6 14 15.5 31.5t20.5 35t19.5 29.5t10.5 14q18 27 54 67t97 83q35 25 83 45t108 22q61 4 121.5 -31t95.5 -94t52 -126.5t20 -138t-4 -144.5t-19 -148q-14 -74 -32.5 -148.5t-45.5 -148 t-64.5 -145.5t-89.5 -137q-51 -63 -123.5 -112.5t-164.5 -47.5q-47 0 -88 18.5t-74 47t-55.5 65.5t-34.5 74q-25 78 -29 153.5zM475 1495q-10 10 12 28q10 10 32.5 17.5t47.5 -0.5q25 -10 36 -15.5t18 -7.5t11 -1t15 5l4 -2q8 -4 17.5 -17.5t13.5 -21.5q0 -6 -3 -8 q-2 -4 -11 -10t-27 -10q-23 -6 -45.5 1t-32.5 13q-14 6 -20.5 7t-12.5 -1t-11 -5t-7 -5q-4 -2 -8.5 0t-28.5 33z" />
<glyph unicode="&#xd6;" d="M2 358.5q-4 75.5 6 146t30.5 136.5t45.5 125q27 59 61.5 109.5t79.5 89.5q45 37 103.5 53t109.5 -8q51 -23 74 -61t33 -68q10 -31 11 -54.5t1 -40.5q-4 -119 -37 -181t-65 -46q-4 2 7 33t23 90q6 31 9.5 66.5t-0.5 76.5q-6 39 -28 79t-65 50q-41 12 -89 -12t-85 -72 q-39 -45 -66.5 -104t-47.5 -125q-23 -66 -34 -137.5t-7 -143.5t28.5 -141t79.5 -110q55 -45 127 -37t131 55q59 45 103.5 109.5t79.5 136.5q63 143 97 296.5t40 299.5q2 72 -7.5 141.5t-37.5 126.5q-27 57 -74 90t-100 31q-55 -4 -101.5 -24.5t-85.5 -50.5t-68.5 -64.5 t-52.5 -63.5q-16 -23 -30.5 -43t-26.5 -37q-18 -25 -30.5 -33t-17.5 -3t-4 19.5t7 35.5q6 14 15.5 31.5t20.5 35t19.5 29.5t10.5 14q18 27 54 67t97 83q35 25 83 45t108 22q61 4 121.5 -31t95.5 -94t52 -126.5t20 -138t-4 -144.5t-19 -148q-14 -74 -32.5 -148.5t-45.5 -148 t-64.5 -145.5t-89.5 -137q-51 -63 -123.5 -112.5t-164.5 -47.5q-47 0 -88 18.5t-74 47t-55.5 65.5t-34.5 74q-25 78 -29 153.5zM499 1477q1 9 3 19.5t3 17.5l1 7q2 2 6 2t43 -4q12 -2 15.5 -11t2.5 -21.5t-6.5 -22.5t-9.5 -12h-4q-8 2 -24.5 4t-22.5 6l-6 2q-2 4 -1 13z M598 1456v2q-2 4 0 13t4 19.5t3 17.5l1 7q0 2 4 2t43 -4q12 -2 16.5 -11t2.5 -21.5t-7 -22.5t-9 -13h-5q-8 0 -23 3.5t-24 7.5h-6z" />
<glyph unicode="&#xd7;" horiz-adv-x="477" d="M94 51q0 6 4 10t26.5 21.5t53.5 40.5q-25 25 -43 45t-22 25q-6 6 -6.5 13t28.5 32q8 8 37 -15.5t64 -58.5q33 23 57 40t31 21q6 4 13 4t28 -32q6 -10 -18.5 -32.5t-61.5 -51.5q23 -23 39 -44.5t26 -33.5q4 -4 4 -8q-4 -10 -16 -20.5t-21 -14.5q-8 0 -10 2 q-4 4 -27.5 26.5t-52.5 51.5q-61 -41 -96 -60q-2 -2 -8 -2q-10 4 -17.5 18.5t-11.5 22.5z" />
<glyph unicode="&#xd8;" d="M2 358.5q-4 75.5 6 146t30.5 136.5t45.5 125q27 59 61.5 109.5t79.5 89.5q45 37 103.5 53t109.5 -8q45 -20 70 -56q33 145 58.5 253t33.5 139q-31 12 -61 12q-55 -4 -101.5 -24.5t-85.5 -50.5t-68.5 -64.5t-52.5 -63.5q-16 -23 -30.5 -43t-26.5 -37q-18 -25 -30.5 -33 t-17.5 -3t-4 19.5t7 35.5q6 14 15.5 31.5t20.5 35t19.5 29.5t10.5 14q18 27 54 67t97 83q35 25 83 45t108 22q43 4 84 -12q10 12 24 17t43 1q6 -4 0 -57q41 -33 66 -74q35 -59 52 -126.5t20 -138t-4 -144.5t-19 -148q-14 -74 -32.5 -148.5t-45.5 -148t-64.5 -145.5 t-89.5 -137q-37 -45 -84 -84t-104 -60q-2 -8 -4 -15t-4 -15q-4 -23 -10 -35q-16 -25 -39 -17.5t-29 23.5q-4 12 -3 21.5t3 19.5v2h-14q-47 0 -88 18.5t-74 47t-55.5 65.5t-34.5 74q-25 78 -29 153.5zM72 360q4 -72 28.5 -141t79.5 -110q29 -23 62.5 -32t68.5 -5 q12 57 30.5 146t42.5 194.5t50.5 220.5t50.5 225q-10 33 -29.5 59.5t-54.5 36.5q-41 12 -89 -12t-85 -72q-39 -45 -66.5 -104t-47.5 -125q-23 -66 -34 -137.5t-7 -143.5zM403 104q18 8 35 23q59 45 103.5 109.5t79.5 136.5q63 143 97 296.5t40 299.5q2 72 -7 141.5 t-38 126.5q-18 35 -37 57q-18 -104 -52 -258.5t-75 -328.5q-4 -16 -7 -33t-7 -31q-35 -152 -70 -292t-62 -247z" />
<glyph unicode="&#xd9;" horiz-adv-x="835" d="M2 711q-10 141 32 266t101 217q61 92 127 146.5t105 76.5q31 18 57.5 12t17.5 -30q-12 -37 -40.5 -121t-62.5 -203t-65.5 -267.5t-50.5 -313.5q6 0 10 -2q51 -4 87 29.5t53 74.5q14 43 14 83t-6 71q-4 27 3 39t17.5 12t21.5 -10.5t17 -28.5q2 -10 6.5 -36t2.5 -64 q-2 -37 -15.5 -86.5t-56.5 -94.5q-29 -31 -72 -45t-90 -10q-2 -14 -2 -27.5t-2 -27.5q-2 -53 0 -106.5t16 -100.5q27 -100 123 -92q74 8 140.5 86t130.5 223q35 82 71.5 206t74.5 264t76 283.5t77 264.5q6 18 18 26.5t23.5 6.5t17.5 -13.5t2 -27.5q-10 -37 -25.5 -95.5 t-34 -130t-40 -151.5t-39.5 -158q-29 -115 -57.5 -233.5t-54 -228t-47 -201t-34.5 -148.5q-6 -23 -17 -33t-21.5 -8t-16.5 15.5t-2 39.5q2 12 7 35t11 53.5t13.5 65.5t13.5 70q-10 -23 -22.5 -44.5t-26.5 -43.5q-29 -43 -62.5 -86t-85.5 -76q-25 -16 -56.5 -25.5t-64 -7.5 t-64.5 15.5t-54 41.5q-39 53 -48.5 110.5t-13.5 113.5q-2 86 6 168q-6 4 -11 6t-11 6q-63 43 -90 112.5t-31 137.5zM71 763q-1 -67 15 -126q17 -72 68 -111q10 92 27.5 177t33.5 161q41 166 77 279.5t48 148.5q4 12 8 23.5t8 21.5q-14 -12 -29.5 -25.5t-31.5 -29.5 q-63 -61 -123.5 -162.5t-87.5 -228.5q-12 -61 -13 -128zM625 1458q25 6 43 22.5t32.5 35t22.5 34.5t13 22q2 4 12 5.5t22.5 -2t20.5 -10.5t6 -21q-6 -31 -28.5 -53.5t-49 -34t-53.5 -11t-41 12.5z" />
<glyph unicode="&#xda;" horiz-adv-x="835" d="M2 711q-10 141 32 266t101 217q61 92 127 146.5t105 76.5q31 18 57.5 12t17.5 -30q-12 -37 -40.5 -121t-62.5 -203t-65.5 -267.5t-50.5 -313.5q6 0 10 -2q51 -4 87 29.5t53 74.5q14 43 14 83t-6 71q-4 27 3 39t17.5 12t21.5 -10.5t17 -28.5q2 -10 6.5 -36t2.5 -64 q-2 -37 -15.5 -86.5t-56.5 -94.5q-29 -31 -72 -45t-90 -10q-2 -14 -2 -27.5t-2 -27.5q-2 -53 0 -106.5t16 -100.5q27 -100 123 -92q74 8 140.5 86t130.5 223q35 82 71.5 206t74.5 264t76 283.5t77 264.5q6 18 18 26.5t23.5 6.5t17.5 -13.5t2 -27.5q-10 -37 -25.5 -95.5 t-34 -130t-40 -151.5t-39.5 -158q-29 -115 -57.5 -233.5t-54 -228t-47 -201t-34.5 -148.5q-6 -23 -17 -33t-21.5 -8t-16.5 15.5t-2 39.5q2 12 7 35t11 53.5t13.5 65.5t13.5 70q-10 -23 -22.5 -44.5t-26.5 -43.5q-29 -43 -62.5 -86t-85.5 -76q-25 -16 -56.5 -25.5t-64 -7.5 t-64.5 15.5t-54 41.5q-39 53 -48.5 110.5t-13.5 113.5q-2 86 6 168q-6 4 -11 6t-11 6q-63 43 -90 112.5t-31 137.5zM71 763q-1 -67 15 -126q17 -72 68 -111q10 92 27.5 177t33.5 161q41 166 77 279.5t48 148.5q4 12 8 23.5t8 21.5q-14 -12 -29.5 -25.5t-31.5 -29.5 q-63 -61 -123.5 -162.5t-87.5 -228.5q-12 -61 -13 -128zM633 1544q-2 14 6 21t20.5 10.5t22.5 2.5t13 -6q2 -6 11 -22t23.5 -34.5t32.5 -35t43 -22.5q-16 -12 -41.5 -12.5t-52.5 11t-49.5 34t-28.5 53.5z" />
<glyph unicode="&#xdb;" horiz-adv-x="835" d="M2 711q-10 141 32 266t101 217q61 92 127 146.5t105 76.5q31 18 57.5 12t17.5 -30q-12 -37 -40.5 -121t-62.5 -203t-65.5 -267.5t-50.5 -313.5q6 0 10 -2q51 -4 87 29.5t53 74.5q14 43 14 83t-6 71q-4 27 3 39t17.5 12t21.5 -10.5t17 -28.5q2 -10 6.5 -36t2.5 -64 q-2 -37 -15.5 -86.5t-56.5 -94.5q-29 -31 -72 -45t-90 -10q-2 -14 -2 -27.5t-2 -27.5q-2 -53 0 -106.5t16 -100.5q27 -100 123 -92q74 8 140.5 86t130.5 223q35 82 71.5 206t74.5 264t76 283.5t77 264.5q6 18 18 26.5t23.5 6.5t17.5 -13.5t2 -27.5q-10 -37 -25.5 -95.5 t-34 -130t-40 -151.5t-39.5 -158q-29 -115 -57.5 -233.5t-54 -228t-47 -201t-34.5 -148.5q-6 -23 -17 -33t-21.5 -8t-16.5 15.5t-2 39.5q2 12 7 35t11 53.5t13.5 65.5t13.5 70q-10 -23 -22.5 -44.5t-26.5 -43.5q-29 -43 -62.5 -86t-85.5 -76q-25 -16 -56.5 -25.5t-64 -7.5 t-64.5 15.5t-54 41.5q-39 53 -48.5 110.5t-13.5 113.5q-2 86 6 168q-6 4 -11 6t-11 6q-63 43 -90 112.5t-31 137.5zM71 763q-1 -67 15 -126q17 -72 68 -111q10 92 27.5 177t33.5 161q41 166 77 279.5t48 148.5q4 12 8 23.5t8 21.5q-14 -12 -29.5 -25.5t-31.5 -29.5 q-63 -61 -123.5 -162.5t-87.5 -228.5q-12 -61 -13 -128zM613 1489.5q-1 9.5 1 11.5q6 -4 16.5 7t23.5 26.5t28.5 31t32.5 19.5q16 -4 29.5 -19.5t24.5 -31t21.5 -27.5t20.5 -8q2 0 1 -9.5t-4 -19.5t-9.5 -18.5t-14.5 -8.5q-12 2 -33.5 16.5t-38.5 39.5q-14 -12 -36.5 -28.5 t-30.5 -20.5q-10 -2 -16.5 5t-10.5 16t-5 18.5z" />
<glyph unicode="&#xdc;" horiz-adv-x="835" d="M2 711q-10 141 32 266t101 217q61 92 127 146.5t105 76.5q31 18 57.5 12t17.5 -30q-12 -37 -40.5 -121t-62.5 -203t-65.5 -267.5t-50.5 -313.5q6 0 10 -2q51 -4 87 29.5t53 74.5q14 43 14 83t-6 71q-4 27 3 39t17.5 12t21.5 -10.5t17 -28.5q2 -10 6.5 -36t2.5 -64 q-2 -37 -15.5 -86.5t-56.5 -94.5q-29 -31 -72 -45t-90 -10q-2 -14 -2 -27.5t-2 -27.5q-2 -53 0 -106.5t16 -100.5q27 -100 123 -92q74 8 140.5 86t130.5 223q35 82 71.5 206t74.5 264t76 283.5t77 264.5q6 18 18 26.5t23.5 6.5t17.5 -13.5t2 -27.5q-10 -37 -25.5 -95.5 t-34 -130t-40 -151.5t-39.5 -158q-29 -115 -57.5 -233.5t-54 -228t-47 -201t-34.5 -148.5q-6 -23 -17 -33t-21.5 -8t-16.5 15.5t-2 39.5q2 12 7 35t11 53.5t13.5 65.5t13.5 70q-10 -23 -22.5 -44.5t-26.5 -43.5q-29 -43 -62.5 -86t-85.5 -76q-25 -16 -56.5 -25.5t-64 -7.5 t-64.5 15.5t-54 41.5q-39 53 -48.5 110.5t-13.5 113.5q-2 86 6 168q-6 4 -11 6t-11 6q-63 43 -90 112.5t-31 137.5zM71 763q-1 -67 15 -126q17 -72 68 -111q10 92 27.5 177t33.5 161q41 166 77 279.5t48 148.5q4 12 8 23.5t8 21.5q-14 -12 -29.5 -25.5t-31.5 -29.5 q-63 -61 -123.5 -162.5t-87.5 -228.5q-12 -61 -13 -128zM624 1477q1 9 3 19.5t3 17.5l1 7q2 2 6 2t43 -4q12 -2 15.5 -11t2.5 -21.5t-6.5 -22.5t-9.5 -12h-4q-8 2 -24.5 4t-22.5 6l-6 2q-2 4 -1 13zM723 1456v2q-2 4 0 13t4 19.5t3 17.5l1 7q0 2 4 2t43 -4q12 -2 16.5 -11 t2.5 -21.5t-7 -22.5t-9 -13h-5q-8 0 -23 3.5t-24 7.5h-6z" />
<glyph unicode="&#xdd;" horiz-adv-x="653" d="M-168 201q0 20 9 30.5t20.5 10.5t20.5 -10.5t9 -28.5q2 -10 7.5 -36t42.5 -46q37 -23 97 -30t126 -15q16 -2 47 -7.5t64.5 -19.5t64.5 -40.5t49 -69.5q20 98 49 235t64 289q-16 -27 -34.5 -52.5t-41.5 -50.5q-31 -33 -70 -61.5t-88 -40.5q-47 -12 -101 -5t-95 50 q-37 41 -50.5 89t-17.5 93q-4 47 -3 91.5t5 85.5q8 86 23.5 163.5t31.5 147.5q35 137 68 229t43 121q23 59 45.5 92t56.5 12q4 0 -23.5 -68.5t-64 -186t-71.5 -274.5t-43 -335q0 -41 5 -85t19.5 -80t40 -58.5t66.5 -20.5q39 -2 73.5 14.5t65.5 43t57.5 59.5t46.5 68 q49 82 83 163t57 152q25 96 52.5 198.5t51 187.5t40 140.5t18.5 59.5q6 16 16 22.5t21.5 5.5t17.5 -11.5t2 -24.5q-10 -41 -28.5 -110.5t-41 -158t-47 -187.5t-49.5 -202q-33 -139 -66.5 -284.5t-64.5 -279.5t-56.5 -245.5t-41.5 -179.5q-10 -37 -33 -39t-25 39 q-4 86 -29.5 153.5t-82.5 86.5q-55 16 -126 20t-137 23q-16 4 -40.5 15t-48 30.5t-40 49.5t-16.5 73zM432 1544q-2 14 6 21t20.5 10.5t22.5 2.5t13 -6q2 -6 11 -22t23.5 -34.5t32.5 -35t43 -22.5q-16 -12 -41.5 -12.5t-52.5 11t-49.5 34t-28.5 53.5z" />
<glyph unicode="&#xe0;" d="M-13 284q-3 42 1 81q6 78 30.5 155.5t73.5 138.5q47 63 117 99.5t141 32.5q74 -2 124 -42t71 -81q6 -10 9 -18.5t7 -18.5q2 4 4 14t5 21.5t5.5 20.5t2.5 11q4 14 15 20.5t21.5 5.5t18.5 -11.5t6 -24.5q-6 -31 -15.5 -79t-20.5 -106.5t-22.5 -122t-19.5 -124.5 q-4 -45 -5 -91t9 -81q8 -20 35 -12t49 43q47 66 70.5 132t40.5 109q4 10 12 27q12 16 27.5 9t19.5 -21q2 -18 -2 -33v2q-4 -16 -18.5 -64.5t-44.5 -115.5q-16 -35 -38 -72t-67 -70q-23 -16 -58.5 -18t-64.5 20q-31 31 -34 57.5t-7 51.5v18.5t2 18.5q-20 -29 -48.5 -61.5 t-69.5 -61.5q-27 -18 -63 -29.5t-74.5 -12.5t-77.5 12.5t-72 43.5q-33 29 -52.5 66t-29.5 78t-13 83zM57 262q8 -72 49 -127t101 -65q61 -10 113.5 22.5t87.5 73.5q35 43 57.5 88t30.5 80q29 121 21.5 192.5t-32.5 114.5q-25 41 -74 65.5t-108 12.5q-59 -10 -111.5 -55.5 t-82.5 -110.5q-31 -66 -45.5 -142.5t-6.5 -148.5zM301 844q25 6 43 22.5t32.5 35t22.5 34.5t13 22q2 4 12 5.5t22.5 -2t20.5 -10.5t6 -21q-6 -31 -28.5 -53.5t-49 -34t-53.5 -11t-41 12.5z" />
<glyph unicode="&#xe1;" d="M-13 284q-3 42 1 81q6 78 30.5 155.5t73.5 138.5q47 63 117 99.5t141 32.5q74 -2 124 -42t71 -81q6 -10 9 -18.5t7 -18.5q2 4 4 14t5 21.5t5.5 20.5t2.5 11q4 14 15 20.5t21.5 5.5t18.5 -11.5t6 -24.5q-6 -31 -15.5 -79t-20.5 -106.5t-22.5 -122t-19.5 -124.5 q-4 -45 -5 -91t9 -81q8 -20 35 -12t49 43q47 66 70.5 132t40.5 109q4 10 12 27q12 16 27.5 9t19.5 -21q2 -18 -2 -33v2q-4 -16 -18.5 -64.5t-44.5 -115.5q-16 -35 -38 -72t-67 -70q-23 -16 -58.5 -18t-64.5 20q-31 31 -34 57.5t-7 51.5v18.5t2 18.5q-20 -29 -48.5 -61.5 t-69.5 -61.5q-27 -18 -63 -29.5t-74.5 -12.5t-77.5 12.5t-72 43.5q-33 29 -52.5 66t-29.5 78t-13 83zM57 262q8 -72 49 -127t101 -65q61 -10 113.5 22.5t87.5 73.5q35 43 57.5 88t30.5 80q29 121 21.5 192.5t-32.5 114.5q-25 41 -74 65.5t-108 12.5q-59 -10 -111.5 -55.5 t-82.5 -110.5q-31 -66 -45.5 -142.5t-6.5 -148.5zM307 930q-2 14 6 21t20.5 10.5t22.5 2.5t13 -6q2 -6 11 -22t23.5 -34.5t32.5 -35t43 -22.5q-16 -12 -41.5 -12.5t-52.5 11t-49.5 34t-28.5 53.5z" />
<glyph unicode="&#xe2;" d="M-13 284q-3 42 1 81q6 78 30.5 155.5t73.5 138.5q47 63 117 99.5t141 32.5q74 -2 124 -42t71 -81q6 -10 9 -18.5t7 -18.5q2 4 4 14t5 21.5t5.5 20.5t2.5 11q4 14 15 20.5t21.5 5.5t18.5 -11.5t6 -24.5q-6 -31 -15.5 -79t-20.5 -106.5t-22.5 -122t-19.5 -124.5 q-4 -45 -5 -91t9 -81q8 -20 35 -12t49 43q47 66 70.5 132t40.5 109q4 10 12 27q12 16 27.5 9t19.5 -21q2 -18 -2 -33v2q-4 -16 -18.5 -64.5t-44.5 -115.5q-16 -35 -38 -72t-67 -70q-23 -16 -58.5 -18t-64.5 20q-31 31 -34 57.5t-7 51.5v18.5t2 18.5q-20 -29 -48.5 -61.5 t-69.5 -61.5q-27 -18 -63 -29.5t-74.5 -12.5t-77.5 12.5t-72 43.5q-33 29 -52.5 66t-29.5 78t-13 83zM57 262q8 -72 49 -127t101 -65q61 -10 113.5 22.5t87.5 73.5q35 43 57.5 88t30.5 80q29 121 21.5 192.5t-32.5 114.5q-25 41 -74 65.5t-108 12.5q-59 -10 -111.5 -55.5 t-82.5 -110.5q-31 -66 -45.5 -142.5t-6.5 -148.5zM292 875.5q-1 9.5 1 11.5q6 -4 16.5 7t23.5 26.5t28.5 31t32.5 19.5q16 -4 29.5 -19.5t24.5 -31t21.5 -27.5t20.5 -8q2 0 1 -9.5t-4 -19.5t-9.5 -18.5t-14.5 -8.5q-12 2 -33.5 16.5t-38.5 39.5q-14 -12 -36.5 -28.5 t-30.5 -20.5q-10 -2 -16.5 5t-10.5 16t-5 18.5z" />
<glyph unicode="&#xe3;" d="M-13 284q-3 42 1 81q6 78 30.5 155.5t73.5 138.5q47 63 117 99.5t141 32.5q74 -2 124 -42t71 -81q6 -10 9 -18.5t7 -18.5q2 4 4 14t5 21.5t5.5 20.5t2.5 11q4 14 15 20.5t21.5 5.5t18.5 -11.5t6 -24.5q-6 -31 -15.5 -79t-20.5 -106.5t-22.5 -122t-19.5 -124.5 q-4 -45 -5 -91t9 -81q8 -20 35 -12t49 43q47 66 70.5 132t40.5 109q4 10 12 27q12 16 27.5 9t19.5 -21q2 -18 -2 -33v2q-4 -16 -18.5 -64.5t-44.5 -115.5q-16 -35 -38 -72t-67 -70q-23 -16 -58.5 -18t-64.5 20q-31 31 -34 57.5t-7 51.5v18.5t2 18.5q-20 -29 -48.5 -61.5 t-69.5 -61.5q-27 -18 -63 -29.5t-74.5 -12.5t-77.5 12.5t-72 43.5q-33 29 -52.5 66t-29.5 78t-13 83zM57 262q8 -72 49 -127t101 -65q61 -10 113.5 22.5t87.5 73.5q35 43 57.5 88t30.5 80q29 121 21.5 192.5t-32.5 114.5q-25 41 -74 65.5t-108 12.5q-59 -10 -111.5 -55.5 t-82.5 -110.5q-31 -66 -45.5 -142.5t-6.5 -148.5zM291 881q-10 10 12 28q10 10 32.5 17.5t47.5 -0.5q25 -10 36 -15.5t18 -7.5t11 -1t15 5l4 -2q8 -4 17.5 -17.5t13.5 -21.5q0 -6 -3 -8q-2 -4 -11 -10t-27 -10q-23 -6 -45.5 1t-32.5 13q-14 6 -20.5 7t-12.5 -1t-11 -5t-7 -5 q-4 -2 -8.5 0t-28.5 33z" />
<glyph unicode="&#xe4;" d="M-13 284q-3 42 1 81q6 78 30.5 155.5t73.5 138.5q47 63 117 99.5t141 32.5q74 -2 124 -42t71 -81q6 -10 9 -18.5t7 -18.5q2 4 4 14t5 21.5t5.5 20.5t2.5 11q4 14 15 20.5t21.5 5.5t18.5 -11.5t6 -24.5q-6 -31 -15.5 -79t-20.5 -106.5t-22.5 -122t-19.5 -124.5 q-4 -45 -5 -91t9 -81q8 -20 35 -12t49 43q47 66 70.5 132t40.5 109q4 10 12 27q12 16 27.5 9t19.5 -21q2 -18 -2 -33v2q-4 -16 -18.5 -64.5t-44.5 -115.5q-16 -35 -38 -72t-67 -70q-23 -16 -58.5 -18t-64.5 20q-31 31 -34 57.5t-7 51.5v18.5t2 18.5q-20 -29 -48.5 -61.5 t-69.5 -61.5q-27 -18 -63 -29.5t-74.5 -12.5t-77.5 12.5t-72 43.5q-33 29 -52.5 66t-29.5 78t-13 83zM57 262q8 -72 49 -127t101 -65q61 -10 113.5 22.5t87.5 73.5q35 43 57.5 88t30.5 80q29 121 21.5 192.5t-32.5 114.5q-25 41 -74 65.5t-108 12.5q-59 -10 -111.5 -55.5 t-82.5 -110.5q-31 -66 -45.5 -142.5t-6.5 -148.5zM298 863q1 9 3 19.5t3 17.5l1 7q2 2 6 2t43 -4q12 -2 15.5 -11t2.5 -21.5t-6.5 -22.5t-9.5 -12h-4q-8 2 -24.5 4t-22.5 6l-6 2q-2 4 -1 13zM397 842v2q-2 4 0 13t4 19.5t3 17.5l1 7q0 2 4 2t43 -4q12 -2 16.5 -11t2.5 -21.5 t-7 -22.5t-9 -13h-5q-8 0 -23 3.5t-24 7.5h-6z" />
<glyph unicode="&#xe5;" d="M-13 284q-3 42 1 81q6 78 30.5 155.5t73.5 138.5q47 63 117 99.5t141 32.5q74 -2 124 -42t71 -81q6 -10 9 -18.5t7 -18.5q2 4 4 14t5 21.5t5.5 20.5t2.5 11q4 14 15 20.5t21.5 5.5t18.5 -11.5t6 -24.5q-6 -31 -15.5 -79t-20.5 -106.5t-22.5 -122t-19.5 -124.5 q-4 -45 -5 -91t9 -81q8 -20 35 -12t49 43q47 66 70.5 132t40.5 109q4 10 12 27q12 16 27.5 9t19.5 -21q2 -18 -2 -33v2q-4 -16 -18.5 -64.5t-44.5 -115.5q-16 -35 -38 -72t-67 -70q-23 -16 -58.5 -18t-64.5 20q-31 31 -34 57.5t-7 51.5v18.5t2 18.5q-20 -29 -48.5 -61.5 t-69.5 -61.5q-27 -18 -63 -29.5t-74.5 -12.5t-77.5 12.5t-72 43.5q-33 29 -52.5 66t-29.5 78t-13 83zM57 262q8 -72 49 -127t101 -65q61 -10 113.5 22.5t87.5 73.5q35 43 57.5 88t30.5 80q29 121 21.5 192.5t-32.5 114.5q-25 41 -74 65.5t-108 12.5q-59 -10 -111.5 -55.5 t-82.5 -110.5q-31 -66 -45.5 -142.5t-6.5 -148.5zM312 910.5q4 21.5 6 25.5q4 10 12 16t19 -4q-2 2 -2 6q0 6 6 13q2 4 22 12t49 -2q31 -10 42.5 -50t-19.5 -69q-23 -29 -63 -29t-60 31q-16 29 -12 50.5zM355 940l4 -8q2 0 1 -9.5t1 -18.5t8.5 -16t22.5 -5q16 4 22 17t-2 22 q-4 10 -16.5 11t-18.5 -3q-2 -2 -6 -2q-8 4 -16 12z" />
<glyph unicode="&#xe6;" horiz-adv-x="1114" d="M-23.5 288q-3.5 42 0.5 81q6 78 31 155.5t74 139.5q47 63 116.5 99t141.5 32q74 -2 124 -42t71 -81q6 -10 9 -18.5t7 -18.5q2 4 4 14t5 21.5t5 20.5t2 11q4 14 15.5 20.5t21.5 5.5t18.5 -11t6.5 -25v-2q35 37 80 62.5t98 35.5q49 10 102.5 -10t79.5 -65q29 -45 30 -92.5 t-9 -88.5q-27 -80 -76 -130t-96 -76q-47 -27 -83 -38.5t-53 -15.5q-88 -23 -124 -4q10 -57 35.5 -103t70.5 -73q33 -20 68.5 -23t70.5 4t68 24.5t57 37.5q53 41 85 90t50 90q4 16 11.5 34t11.5 28q16 35 33.5 26.5t17.5 -34.5q0 -18 -6 -38t-14 -38q-6 -14 -21.5 -49 t-46.5 -76t-82 -83t-127 -71q-39 -14 -84 -14t-90 16q-43 16 -79 48t-58 73v-8q0 -57 -12.5 -88t-26.5 -35t-25.5 19.5t-9.5 74.5v35t2 35q-20 -29 -49 -60.5t-70 -60.5q-27 -18 -62.5 -30.5t-74.5 -13.5t-78 12.5t-71 43.5q-33 29 -52.5 66t-29.5 78t-13.5 83zM47 266 q8 -72 49 -127t101 -63q61 -10 113 21.5t87 72.5q35 43 57.5 88t30.5 80q29 121 22 192.5t-32 114.5q-25 41 -74 66.5t-108 11.5q-59 -10 -111.5 -55t-83.5 -111t-45 -142.5t-6 -148.5zM570 351.5q-1 -19.5 1 -40.5q29 4 93.5 14.5t146.5 59.5q51 31 94 89t45 130 q0 35 -17.5 65.5t-49.5 43.5q-31 14 -71 6t-75 -31q-74 -45 -115 -126t-49 -173q-2 -18 -3 -37.5zM1137 293h2h-2z" />
<glyph unicode="&#xe7;" horiz-adv-x="585" d="M-29 354q2 84 24.5 166t76.5 148q53 66 126.5 100.5t151.5 17.5q41 -10 70 -32.5t45 -51t22.5 -58.5t4.5 -54q-2 -51 -16.5 -81t-22.5 -44q-35 -53 -66 -72.5t-53 8.5q-4 4 8 16.5t29 35.5q18 25 37.5 61.5t19.5 85.5q0 23 -9 46.5t-27.5 42t-43 28.5t-55.5 4 q-63 -6 -119.5 -51t-87.5 -113t-41 -147.5t6 -151.5q14 -74 62.5 -130t113.5 -60q66 -4 124.5 25.5t99.5 70.5t66.5 84t39.5 78q4 14 9 25.5t9 21.5q16 29 31 20.5t17 -31.5q0 -16 -3.5 -28t-7.5 -29q-4 -12 -16 -40.5t-35.5 -66.5t-63.5 -79t-100 -76q-23 -14 -51.5 -25.5 t-58.5 -15.5q-14 -41 -40 -64.5t-38 -27.5q-10 -4 -17.5 0t-1.5 14l11 21q4 10 10 23.5t10 31.5q-33 4 -63.5 15.5t-59.5 33.5q-35 27 -59.5 62.5t-39.5 75.5t-21.5 83t-6.5 84zM612 305v2v-2z" />
<glyph unicode="&#xe8;" horiz-adv-x="591" d="M-26 330.5q1 99.5 30 193.5t101.5 170t175.5 94q51 10 104 -10t80 -65q29 -45 30 -92.5t-12 -88.5q-25 -80 -75 -130t-97 -76q-47 -27 -81.5 -38.5t-51.5 -15.5q-86 -23 -127 -4q10 -57 37 -103t70 -73q33 -20 69.5 -23t71.5 4t67.5 24.5t57.5 37.5q53 41 85 90t48 90 q6 16 12.5 34t12.5 28q16 35 32.5 26.5t18.5 -34.5q0 -18 -7.5 -38t-13.5 -38q-6 -14 -21.5 -49t-46 -76t-81.5 -83t-127 -71q-39 -14 -84 -14t-90 16t-82 50t-60 77q-47 88 -46 187.5zM47 311q29 4 93.5 14.5t146.5 59.5q49 31 93 89t46 130q0 35 -17.5 65.5t-50.5 43.5 q-31 14 -70.5 6t-74.5 -31q-74 -45 -116 -126t-48 -173q-6 -33 -2 -78zM234 844q25 6 43 22.5t32.5 35t22.5 34.5t13 22q2 4 12 5.5t22.5 -2t20.5 -10.5t6 -21q-6 -31 -28.5 -53.5t-49 -34t-53.5 -11t-41 12.5z" />
<glyph unicode="&#xe9;" horiz-adv-x="591" d="M-26 330.5q1 99.5 30 193.5t101.5 170t175.5 94q51 10 104 -10t80 -65q29 -45 30 -92.5t-12 -88.5q-25 -80 -75 -130t-97 -76q-47 -27 -81.5 -38.5t-51.5 -15.5q-86 -23 -127 -4q10 -57 37 -103t70 -73q33 -20 69.5 -23t71.5 4t67.5 24.5t57.5 37.5q53 41 85 90t48 90 q6 16 12.5 34t12.5 28q16 35 32.5 26.5t18.5 -34.5q0 -18 -7.5 -38t-13.5 -38q-6 -14 -21.5 -49t-46 -76t-81.5 -83t-127 -71q-39 -14 -84 -14t-90 16t-82 50t-60 77q-47 88 -46 187.5zM47 311q29 4 93.5 14.5t146.5 59.5q49 31 93 89t46 130q0 35 -17.5 65.5t-50.5 43.5 q-31 14 -70.5 6t-74.5 -31q-74 -45 -116 -126t-48 -173q-6 -33 -2 -78zM240 930q-2 14 6 21t20.5 10.5t22.5 2.5t13 -6q2 -6 11 -22t23.5 -34.5t32.5 -35t43 -22.5q-16 -12 -41.5 -12.5t-52.5 11t-49.5 34t-28.5 53.5z" />
<glyph unicode="&#xea;" horiz-adv-x="591" d="M-26 330.5q1 99.5 30 193.5t101.5 170t175.5 94q51 10 104 -10t80 -65q29 -45 30 -92.5t-12 -88.5q-25 -80 -75 -130t-97 -76q-47 -27 -81.5 -38.5t-51.5 -15.5q-86 -23 -127 -4q10 -57 37 -103t70 -73q33 -20 69.5 -23t71.5 4t67.5 24.5t57.5 37.5q53 41 85 90t48 90 q6 16 12.5 34t12.5 28q16 35 32.5 26.5t18.5 -34.5q0 -18 -7.5 -38t-13.5 -38q-6 -14 -21.5 -49t-46 -76t-81.5 -83t-127 -71q-39 -14 -84 -14t-90 16t-82 50t-60 77q-47 88 -46 187.5zM47 311q29 4 93.5 14.5t146.5 59.5q49 31 93 89t46 130q0 35 -17.5 65.5t-50.5 43.5 q-31 14 -70.5 6t-74.5 -31q-74 -45 -116 -126t-48 -173q-6 -33 -2 -78zM222 875.5q-1 9.5 1 11.5q6 -4 16.5 7t23.5 26.5t28.5 31t32.5 19.5q16 -4 29.5 -19.5t24.5 -31t21.5 -27.5t20.5 -8q2 0 1 -9.5t-4 -19.5t-9.5 -18.5t-14.5 -8.5q-12 2 -33.5 16.5t-38.5 39.5 q-14 -12 -36.5 -28.5t-30.5 -20.5q-10 -2 -16.5 5t-10.5 16t-5 18.5z" />
<glyph unicode="&#xeb;" horiz-adv-x="591" d="M-26 330.5q1 99.5 30 193.5t101.5 170t175.5 94q51 10 104 -10t80 -65q29 -45 30 -92.5t-12 -88.5q-25 -80 -75 -130t-97 -76q-47 -27 -81.5 -38.5t-51.5 -15.5q-86 -23 -127 -4q10 -57 37 -103t70 -73q33 -20 69.5 -23t71.5 4t67.5 24.5t57.5 37.5q53 41 85 90t48 90 q6 16 12.5 34t12.5 28q16 35 32.5 26.5t18.5 -34.5q0 -18 -7.5 -38t-13.5 -38q-6 -14 -21.5 -49t-46 -76t-81.5 -83t-127 -71q-39 -14 -84 -14t-90 16t-82 50t-60 77q-47 88 -46 187.5zM47 311q29 4 93.5 14.5t146.5 59.5q49 31 93 89t46 130q0 35 -17.5 65.5t-50.5 43.5 q-31 14 -70.5 6t-74.5 -31q-74 -45 -116 -126t-48 -173q-6 -33 -2 -78zM229 863q1 9 3 19.5t3 17.5l1 7q2 2 6 2t43 -4q12 -2 15.5 -11t2.5 -21.5t-6.5 -22.5t-9.5 -12h-4q-8 2 -24.5 4t-22.5 6l-6 2q-2 4 -1 13zM328 842v2q-2 4 0 13t4 19.5t3 17.5l1 7q0 2 4 2t43 -4 q12 -2 16.5 -11t2.5 -21.5t-7 -22.5t-9 -13h-5q-8 0 -23 3.5t-24 7.5h-6z" />
<glyph unicode="&#xec;" horiz-adv-x="249" d="M-42 112.5q1 -26.5 13 -59.5q16 -35 53 -47t68 -2q59 27 83 68t44 75q35 72 50.5 122t19.5 67q6 19 4 35q-4 14 -19.5 20t-29.5 -10q-4 -6 -6 -12.5t-7 -16.5q-8 -23 -18 -52.5t-23.5 -63t-33 -68.5t-45.5 -68q-29 -31 -52.5 -31.5t-27.5 35.5q-4 41 4 89.5t18 95.5 q18 68 40 140.5t40.5 138t32.5 117.5t20 83q2 12 -5 18.5t-18 6.5t-22.5 -8.5t-17.5 -26.5q-4 -8 -11.5 -33t-18.5 -58.5t-22.5 -71.5t-23.5 -75q-23 -74 -50.5 -163t-37.5 -191q-2 -27 -1 -53.5zM82 844q25 6 43 22.5t32.5 35t22.5 34.5t13 22q2 4 12 5.5t22.5 -2 t20.5 -10.5t6 -21q-6 -31 -28.5 -53.5t-49 -34t-53.5 -11t-41 12.5z" />
<glyph unicode="&#xed;" horiz-adv-x="249" d="M-42 112.5q-1 26.5 1 53.5q10 102 38 191t50 163q12 37 23.5 75t22.5 71.5t18.5 58.5t11.5 33q6 18 17.5 26.5t22.5 8.5t18 -6.5t5 -18.5q-6 -31 -20 -83t-32.5 -117.5t-40 -138.5t-40.5 -140q-10 -47 -18 -95.5t-4 -89.5q4 -37 27.5 -35.5t52.5 31.5q27 33 46 68 t32.5 68.5t23.5 63.5t18 52q4 10 6.5 16.5t6.5 12.5q14 16 29.5 10t19.5 -20q2 -16 -4 -35q-4 -16 -19.5 -66.5t-50.5 -122.5q-20 -35 -43.5 -75.5t-83.5 -67.5q-31 -10 -67.5 2t-53.5 47q-12 33 -13 59.5zM109 930q-2 14 6 21t20 10.5t22.5 2.5t12.5 -6q2 -6 11 -22 t23.5 -34.5t33 -35t43.5 -22.5q-16 -12 -42 -12.5t-52.5 11t-49 34t-28.5 53.5z" />
<glyph unicode="&#xee;" horiz-adv-x="249" d="M-42 112.5q-1 26.5 1 53.5q10 102 38 191t50 163q12 37 23.5 75t22.5 71.5t18.5 58.5t11.5 33q6 18 17.5 26.5t22.5 8.5t18 -6.5t5 -18.5q-6 -31 -20 -83t-32.5 -117.5t-40 -138.5t-40.5 -140q-10 -47 -18 -95.5t-4 -89.5q4 -37 27.5 -35.5t52.5 31.5q27 33 46 68 t32.5 68.5t23.5 63.5t18 52q4 10 6.5 16.5t6.5 12.5q14 16 29.5 10t19.5 -20q2 -16 -4 -35q-4 -16 -19.5 -66.5t-50.5 -122.5q-20 -35 -43.5 -75.5t-83.5 -67.5q-31 -10 -67.5 2t-53.5 47q-12 33 -13 59.5zM69 875.5q-1 9.5 1 11.5q6 -4 16 7t23.5 26.5t29 31t31.5 19.5 q16 -4 29.5 -19.5t25 -31t21.5 -27.5t20 -8q2 0 1 -9.5t-4 -19.5t-9 -18.5t-14 -8.5q-12 2 -34 16.5t-38 39.5q-14 -12 -36.5 -28.5t-31.5 -20.5q-10 -2 -16 5t-10 16t-5 18.5z" />
<glyph unicode="&#xef;" horiz-adv-x="249" d="M-42 112.5q-1 26.5 1 53.5q10 102 38 191t50 163q12 37 23.5 75t22.5 71.5t18.5 58.5t11.5 33q6 18 17.5 26.5t22.5 8.5t18 -6.5t5 -18.5q-6 -31 -20 -83t-32.5 -117.5t-40 -138.5t-40.5 -140q-10 -47 -18 -95.5t-4 -89.5q4 -37 27.5 -35.5t52.5 31.5q27 33 46 68 t32.5 68.5t23.5 63.5t18 52q4 10 6.5 16.5t6.5 12.5q14 16 29.5 10t19.5 -20q2 -16 -4 -35q-4 -16 -19.5 -66.5t-50.5 -122.5q-20 -35 -43.5 -75.5t-83.5 -67.5q-31 -10 -67.5 2t-53.5 47q-12 33 -13 59.5zM89 863q1 9 3 19.5t3 17.5l1 7q2 2 6 2t43 -4q12 -2 15.5 -11 t2.5 -21.5t-6 -22.5t-10 -12h-4q-8 2 -24.5 4t-22.5 6l-6 2q-2 4 -1 13zM188 842v2q-2 4 0 13t4.5 19.5t3.5 17.5l1 7q0 2 4 2t43 -4q12 -2 16 -11t2 -21.5t-7 -22.5t-9 -13h-4q-8 0 -23.5 3.5t-23.5 7.5h-7z" />
<glyph unicode="&#xf1;" horiz-adv-x="643" d="M-88 35q2 12 12 65.5t24.5 127t33 156.5t35 156.5t27.5 126t15 66.5q6 14 17.5 19.5t22 3.5t18.5 -9.5t8 -15.5q-6 -45 -25 -127q18 29 43 57.5t58 55.5q27 25 66.5 43t83.5 23t88 -9t81 -57q31 -47 29 -94.5t-12 -87.5q-10 -43 -23.5 -82t-28.5 -76 q-29 -74 -59.5 -147.5t-28.5 -133.5q0 -23 17.5 -31t38.5 3q23 12 41 34.5t34 44.5q33 49 53.5 95.5t34.5 81.5q4 12 9.5 23t9.5 22q16 27 31.5 18.5t17.5 -31.5q-2 -16 -5 -27.5t-7 -27.5v2q-4 -12 -14.5 -38.5t-28.5 -65.5q-18 -37 -44 -85t-85 -94q-12 -12 -35 -18 t-45.5 -4t-45 14.5t-34.5 36.5q-20 49 -11 88t19 76q23 72 52.5 141.5t52.5 141.5q12 35 19 68.5t5 61t-16.5 49t-46.5 34.5q-59 16 -113.5 -10.5t-91.5 -67.5q-39 -43 -68.5 -88t-51 -89t-34 -83t-18.5 -66q-20 -88 -38.5 -163.5t-29.5 -118.5q-4 -12 -6 -19 q-12 -10 -27.5 -6t-21.5 14t-2 23zM318 881q-10 10 12 28q10 10 32.5 17.5t47.5 -0.5q25 -10 36 -15.5t18 -7.5t11 -1t15 5l4 -2q8 -4 17.5 -17.5t13.5 -21.5q0 -6 -3 -8q-2 -4 -11 -10t-27 -10q-23 -6 -45.5 1t-32.5 13q-14 6 -20.5 7t-12.5 -1t-11 -5t-7 -5q-4 -2 -8.5 0 t-28.5 33z" />
<glyph unicode="&#xf2;" horiz-adv-x="702" d="M-16 324q4 86 30.5 167.5t75.5 151.5q47 68 122 109t153 32q78 -8 128 -56t66 -93q29 -82 27 -186.5t-62 -221.5h18.5t18.5 4q55 16 87 58.5t42 72.5q4 4 5 9.5t5 9.5q12 10 28 6t20 -16q6 -14 0 -29v2q-4 -12 -21.5 -54t-69.5 -83q-27 -23 -62.5 -37t-76.5 -12 q-20 0 -29 2q-12 -18 -26 -37t-33 -39q-23 -25 -55.5 -46.5t-72.5 -32.5t-83 -10t-86 23q-43 20 -71.5 55.5t-47 77.5t-25.5 86t-5 87zM62.5 374.5q-11.5 -79.5 0.5 -151.5q6 -37 26 -68.5t45.5 -53t57 -31.5t66.5 -4q55 6 98 41.5t72 76.5q-53 27 -69.5 86.5t-12.5 124.5 q2 33 9 75t23.5 78t42 61.5t62.5 25.5q-23 41 -63.5 62.5t-100.5 11.5q-63 -10 -114 -50.5t-96 -134.5q-35 -70 -46.5 -149.5zM262 844q25 6 43 22.5t32.5 35t22.5 34.5t13 22q2 4 12 5.5t22.5 -2t20.5 -10.5t6 -21q-6 -31 -28.5 -53.5t-49 -34t-53.5 -11t-41 12.5zM416 360 q0 -33 10 -70.5t37 -43.5q18 35 30.5 80t18.5 88t6 77.5t-4 51.5q-4 12 -18.5 17t-32 -11.5t-31.5 -60.5t-16 -128z" />
<glyph unicode="&#xf3;" horiz-adv-x="702" d="M-16 324q4 86 30.5 167.5t75.5 151.5q47 68 122 109t153 32q78 -8 128 -56t66 -93q29 -82 27 -186.5t-62 -221.5h18.5t18.5 4q55 16 87 58.5t42 72.5q4 4 5 9.5t5 9.5q12 10 28 6t20 -16q6 -14 0 -29v2q-4 -12 -21.5 -54t-69.5 -83q-27 -23 -62.5 -37t-76.5 -12 q-20 0 -29 2q-12 -18 -26 -37t-33 -39q-23 -25 -55.5 -46.5t-72.5 -32.5t-83 -10t-86 23q-43 20 -71.5 55.5t-47 77.5t-25.5 86t-5 87zM62.5 374.5q-11.5 -79.5 0.5 -151.5q6 -37 26 -68.5t45.5 -53t57 -31.5t66.5 -4q55 6 98 41.5t72 76.5q-53 27 -69.5 86.5t-12.5 124.5 q2 33 9 75t23.5 78t42 61.5t62.5 25.5q-23 41 -63.5 62.5t-100.5 11.5q-63 -10 -114 -50.5t-96 -134.5q-35 -70 -46.5 -149.5zM268 930q-2 14 6 21t20.5 10.5t22.5 2.5t13 -6q2 -6 11 -22t23.5 -34.5t32.5 -35t43 -22.5q-16 -12 -41.5 -12.5t-52.5 11t-49.5 34t-28.5 53.5z M416 360q0 -33 10 -70.5t37 -43.5q18 35 30.5 80t18.5 88t6 77.5t-4 51.5q-4 12 -18.5 17t-32 -11.5t-31.5 -60.5t-16 -128z" />
<glyph unicode="&#xf4;" horiz-adv-x="702" d="M-16 324q4 86 30.5 167.5t75.5 151.5q47 68 122 109t153 32q78 -8 128 -56t66 -93q29 -82 27 -186.5t-62 -221.5h18.5t18.5 4q55 16 87 58.5t42 72.5q4 4 5 9.5t5 9.5q12 10 28 6t20 -16q6 -14 0 -29v2q-4 -12 -21.5 -54t-69.5 -83q-27 -23 -62.5 -37t-76.5 -12 q-20 0 -29 2q-12 -18 -26 -37t-33 -39q-23 -25 -55.5 -46.5t-72.5 -32.5t-83 -10t-86 23q-43 20 -71.5 55.5t-47 77.5t-25.5 86t-5 87zM62.5 374.5q-11.5 -79.5 0.5 -151.5q6 -37 26 -68.5t45.5 -53t57 -31.5t66.5 -4q55 6 98 41.5t72 76.5q-53 27 -69.5 86.5t-12.5 124.5 q2 33 9 75t23.5 78t42 61.5t62.5 25.5q-23 41 -63.5 62.5t-100.5 11.5q-63 -10 -114 -50.5t-96 -134.5q-35 -70 -46.5 -149.5zM255 875.5q-1 9.5 1 11.5q6 -4 16.5 7t23.5 26.5t28.5 31t32.5 19.5q16 -4 29.5 -19.5t24.5 -31t21.5 -27.5t20.5 -8q2 0 1 -9.5t-4 -19.5 t-9.5 -18.5t-14.5 -8.5q-12 2 -33.5 16.5t-38.5 39.5q-14 -12 -36.5 -28.5t-30.5 -20.5q-10 -2 -16.5 5t-10.5 16t-5 18.5zM416 360q0 -33 10 -70.5t37 -43.5q18 35 30.5 80t18.5 88t6 77.5t-4 51.5q-4 12 -18.5 17t-32 -11.5t-31.5 -60.5t-16 -128z" />
<glyph unicode="&#xf5;" horiz-adv-x="702" d="M-16 324q4 86 30.5 167.5t75.5 151.5q47 68 122 109t153 32q78 -8 128 -56t66 -93q29 -82 27 -186.5t-62 -221.5h18.5t18.5 4q55 16 87 58.5t42 72.5q4 4 5 9.5t5 9.5q12 10 28 6t20 -16q6 -14 0 -29v2q-4 -12 -21.5 -54t-69.5 -83q-27 -23 -62.5 -37t-76.5 -12 q-20 0 -29 2q-12 -18 -26 -37t-33 -39q-23 -25 -55.5 -46.5t-72.5 -32.5t-83 -10t-86 23q-43 20 -71.5 55.5t-47 77.5t-25.5 86t-5 87zM62.5 374.5q-11.5 -79.5 0.5 -151.5q6 -37 26 -68.5t45.5 -53t57 -31.5t66.5 -4q55 6 98 41.5t72 76.5q-53 27 -69.5 86.5t-12.5 124.5 q2 33 9 75t23.5 78t42 61.5t62.5 25.5q-23 41 -63.5 62.5t-100.5 11.5q-63 -10 -114 -50.5t-96 -134.5q-35 -70 -46.5 -149.5zM254 881q-10 10 12 28q10 10 32.5 17.5t47.5 -0.5q25 -10 36 -15.5t18 -7.5t11 -1t15 5l4 -2q8 -4 17.5 -17.5t13.5 -21.5q0 -6 -3 -8 q-2 -4 -11 -10t-27 -10q-23 -6 -45.5 1t-32.5 13q-14 6 -20.5 7t-12.5 -1t-11 -5t-7 -5q-4 -2 -8.5 0t-28.5 33zM416 360q0 -33 10 -70.5t37 -43.5q18 35 30.5 80t18.5 88t6 77.5t-4 51.5q-4 12 -18.5 17t-32 -11.5t-31.5 -60.5t-16 -128z" />
<glyph unicode="&#xf6;" horiz-adv-x="702" d="M-16 324q4 86 30.5 167.5t75.5 151.5q47 68 122 109t153 32q78 -8 128 -56t66 -93q29 -82 27 -186.5t-62 -221.5h18.5t18.5 4q55 16 87 58.5t42 72.5q4 4 5 9.5t5 9.5q12 10 28 6t20 -16q6 -14 0 -29v2q-4 -12 -21.5 -54t-69.5 -83q-27 -23 -62.5 -37t-76.5 -12 q-20 0 -29 2q-12 -18 -26 -37t-33 -39q-23 -25 -55.5 -46.5t-72.5 -32.5t-83 -10t-86 23q-43 20 -71.5 55.5t-47 77.5t-25.5 86t-5 87zM62.5 374.5q-11.5 -79.5 0.5 -151.5q6 -37 26 -68.5t45.5 -53t57 -31.5t66.5 -4q55 6 98 41.5t72 76.5q-53 27 -69.5 86.5t-12.5 124.5 q2 33 9 75t23.5 78t42 61.5t62.5 25.5q-23 41 -63.5 62.5t-100.5 11.5q-63 -10 -114 -50.5t-96 -134.5q-35 -70 -46.5 -149.5zM261 863q1 9 3 19.5t3 17.5l1 7q2 2 6 2t43 -4q12 -2 15.5 -11t2.5 -21.5t-6.5 -22.5t-9.5 -12h-4q-8 2 -24.5 4t-22.5 6l-6 2q-2 4 -1 13z M360 842v2q-2 4 0 13t4 19.5t3 17.5l1 7q0 2 4 2t43 -4q12 -2 16.5 -11t2.5 -21.5t-7 -22.5t-9 -13h-5q-8 0 -23 3.5t-24 7.5h-6zM416 360q0 -33 10 -70.5t37 -43.5q18 35 30.5 80t18.5 88t6 77.5t-4 51.5q-4 12 -18.5 17t-32 -11.5t-31.5 -60.5t-16 -128z" />
<glyph unicode="&#xf7;" horiz-adv-x="354" d="M104 10q-2 2 0 14.5t5.5 25.5t6.5 23.5t5 12.5q0 4 12 2t47 -18q8 -4 -2 -32t-16 -38q-16 -2 -38 3t-20 7zM156 276q-2 2 0 14.5t5 26t6 24.5t5 13t14 1t47 -17q8 -4 -2 -31.5t-16 -38.5q-8 -2 -17.5 -1t-19.5 3t-22 6z" />
<glyph unicode="&#xf8;" horiz-adv-x="702" d="M-16 324q4 86 30.5 167.5t75.5 151.5q45 63 113.5 103t142.5 38q6 20 15.5 31.5t44.5 7.5q6 0 -5 -47q63 -16 102.5 -59t55.5 -82q29 -82 27 -186.5t-62 -221.5h18.5t18.5 4q55 16 87 58.5t42 72.5q4 4 5 9.5t5 9.5q12 10 27.5 6t20.5 -16q6 -14 0 -29q-4 -14 -22.5 -54 t-68.5 -81q-27 -23 -62.5 -37t-76.5 -12q-20 0 -29 2q-12 -18 -26 -37t-33 -39q-18 -20 -46 -38.5t-59.5 -31t-66.5 -17.5t-72 3q0 -4 -2 -8t-2 -8q-4 -12 -8 -21q-12 -14 -27.5 -10t-19.5 14q-4 8 0 25v-2q0 6 6 28q-43 20 -71.5 55.5t-47 77.5t-25.5 86t-5 87zM62.5 374.5 q-11.5 -79.5 0.5 -151.5q8 -45 31 -79.5t56 -55.5q16 61 38.5 146t47 172.5t47 168t39.5 134.5h-3q-63 -10 -114 -50.5t-96 -134.5q-35 -70 -46.5 -149.5zM207 66q24 -6 51 0q55 6 98 41.5t72 76.5q-53 27 -69.5 86.5t-12.5 124.5q2 33 9 75t23.5 78t42 61.5t62.5 25.5 q-33 59 -96 74q-14 -61 -36.5 -145.5t-48.5 -173.5t-50.5 -174t-44.5 -150zM416 360q0 -33 10 -70.5t37 -43.5q18 35 30.5 80t18.5 88t6 77.5t-4 51.5q-4 12 -18.5 17t-32 -11.5t-31.5 -60.5t-16 -128z" />
<glyph unicode="&#xf9;" horiz-adv-x="745" d="M-12 313.5q-2 53.5 5 102.5t15 92q10 43 22.5 85t25 78t21.5 60.5t13 32.5q6 18 18.5 24.5t23.5 5.5t17.5 -10.5t2.5 -23.5q-4 -10 -9.5 -26.5t-11.5 -36l-12 -39t-10 -33.5q-23 -72 -41.5 -165t-4.5 -198q8 -49 29 -95t58 -73q35 -29 79.5 -24.5t79.5 30.5q51 37 81 85 t48 94q10 27 22.5 67.5t25 89.5t24.5 99.5t21.5 93.5t14.5 72.5t7 37.5q4 16 15.5 21.5t21.5 2.5t17 -13.5t5 -28.5q-6 -33 -15 -82t-20.5 -108.5t-23.5 -124t-21 -125.5q-4 -27 -7 -53.5t-3 -55.5q0 -49 8.5 -71.5t20.5 -26.5t26.5 6t26.5 26q51 66 77 135.5t42 112.5 q4 8 6 15.5t6 11.5q12 16 27.5 10t19.5 -20q2 -10 1 -17.5t-3 -17.5v2q-4 -16 -19.5 -65.5t-47.5 -120.5q-23 -41 -48.5 -82t-70.5 -60q-31 -12 -65.5 -9t-59.5 44q-14 31 -16 56.5t-2 52.5v6q-4 -8 -8.5 -14.5t-10.5 -14.5q-25 -37 -64.5 -71.5t-99.5 -51.5 q-31 -10 -62.5 -7t-60 15.5t-53 33t-41.5 46.5q-33 53 -47 108.5t-16 109zM283 844q25 6 43 22.5t32.5 35t22.5 34.5t13 22q2 4 12 5.5t22.5 -2t20.5 -10.5t6 -21q-6 -31 -28.5 -53.5t-49 -34t-53.5 -11t-41 12.5z" />
<glyph unicode="&#xfa;" horiz-adv-x="745" d="M-12 313.5q-2 53.5 5 102.5t15 92q10 43 22.5 85t25 78t21.5 60.5t13 32.5q6 18 18.5 24.5t23.5 5.5t17.5 -10.5t2.5 -23.5q-4 -10 -9.5 -26.5t-11.5 -36l-12 -39t-10 -33.5q-23 -72 -41.5 -165t-4.5 -198q8 -49 29 -95t58 -73q35 -29 79.5 -24.5t79.5 30.5q51 37 81 85 t48 94q10 27 22.5 67.5t25 89.5t24.5 99.5t21.5 93.5t14.5 72.5t7 37.5q4 16 15.5 21.5t21.5 2.5t17 -13.5t5 -28.5q-6 -33 -15 -82t-20.5 -108.5t-23.5 -124t-21 -125.5q-4 -27 -7 -53.5t-3 -55.5q0 -49 8.5 -71.5t20.5 -26.5t26.5 6t26.5 26q51 66 77 135.5t42 112.5 q4 8 6 15.5t6 11.5q12 16 27.5 10t19.5 -20q2 -10 1 -17.5t-3 -17.5v2q-4 -16 -19.5 -65.5t-47.5 -120.5q-23 -41 -48.5 -82t-70.5 -60q-31 -12 -65.5 -9t-59.5 44q-14 31 -16 56.5t-2 52.5v6q-4 -8 -8.5 -14.5t-10.5 -14.5q-25 -37 -64.5 -71.5t-99.5 -51.5 q-31 -10 -62.5 -7t-60 15.5t-53 33t-41.5 46.5q-33 53 -47 108.5t-16 109zM289 930q-2 14 6 21t20.5 10.5t22.5 2.5t13 -6q2 -6 11 -22t23.5 -34.5t32.5 -35t43 -22.5q-16 -12 -41.5 -12.5t-52.5 11t-49.5 34t-28.5 53.5z" />
<glyph unicode="&#xfb;" horiz-adv-x="745" d="M-12 313.5q-2 53.5 5 102.5t15 92q10 43 22.5 85t25 78t21.5 60.5t13 32.5q6 18 18.5 24.5t23.5 5.5t17.5 -10.5t2.5 -23.5q-4 -10 -9.5 -26.5t-11.5 -36l-12 -39t-10 -33.5q-23 -72 -41.5 -165t-4.5 -198q8 -49 29 -95t58 -73q35 -29 79.5 -24.5t79.5 30.5q51 37 81 85 t48 94q10 27 22.5 67.5t25 89.5t24.5 99.5t21.5 93.5t14.5 72.5t7 37.5q4 16 15.5 21.5t21.5 2.5t17 -13.5t5 -28.5q-6 -33 -15 -82t-20.5 -108.5t-23.5 -124t-21 -125.5q-4 -27 -7 -53.5t-3 -55.5q0 -49 8.5 -71.5t20.5 -26.5t26.5 6t26.5 26q51 66 77 135.5t42 112.5 q4 8 6 15.5t6 11.5q12 16 27.5 10t19.5 -20q2 -10 1 -17.5t-3 -17.5v2q-4 -16 -19.5 -65.5t-47.5 -120.5q-23 -41 -48.5 -82t-70.5 -60q-31 -12 -65.5 -9t-59.5 44q-14 31 -16 56.5t-2 52.5v6q-4 -8 -8.5 -14.5t-10.5 -14.5q-25 -37 -64.5 -71.5t-99.5 -51.5 q-31 -10 -62.5 -7t-60 15.5t-53 33t-41.5 46.5q-33 53 -47 108.5t-16 109zM273 875.5q-1 9.5 1 11.5q6 -4 16.5 7t23.5 26.5t28.5 31t32.5 19.5q16 -4 29.5 -19.5t24.5 -31t21.5 -27.5t20.5 -8q2 0 1 -9.5t-4 -19.5t-9.5 -18.5t-14.5 -8.5q-12 2 -33.5 16.5t-38.5 39.5 q-14 -12 -36.5 -28.5t-30.5 -20.5q-10 -2 -16.5 5t-10.5 16t-5 18.5z" />
<glyph unicode="&#xfc;" horiz-adv-x="745" d="M-12 313.5q-2 53.5 5 102.5t15 92q10 43 22.5 85t25 78t21.5 60.5t13 32.5q6 18 18.5 24.5t23.5 5.5t17.5 -10.5t2.5 -23.5q-4 -10 -9.5 -26.5t-11.5 -36l-12 -39t-10 -33.5q-23 -72 -41.5 -165t-4.5 -198q8 -49 29 -95t58 -73q35 -29 79.5 -24.5t79.5 30.5q51 37 81 85 t48 94q10 27 22.5 67.5t25 89.5t24.5 99.5t21.5 93.5t14.5 72.5t7 37.5q4 16 15.5 21.5t21.5 2.5t17 -13.5t5 -28.5q-6 -33 -15 -82t-20.5 -108.5t-23.5 -124t-21 -125.5q-4 -27 -7 -53.5t-3 -55.5q0 -49 8.5 -71.5t20.5 -26.5t26.5 6t26.5 26q51 66 77 135.5t42 112.5 q4 8 6 15.5t6 11.5q12 16 27.5 10t19.5 -20q2 -10 1 -17.5t-3 -17.5v2q-4 -16 -19.5 -65.5t-47.5 -120.5q-23 -41 -48.5 -82t-70.5 -60q-31 -12 -65.5 -9t-59.5 44q-14 31 -16 56.5t-2 52.5v6q-4 -8 -8.5 -14.5t-10.5 -14.5q-25 -37 -64.5 -71.5t-99.5 -51.5 q-31 -10 -62.5 -7t-60 15.5t-53 33t-41.5 46.5q-33 53 -47 108.5t-16 109zM282 863q1 9 3 19.5t3 17.5l1 7q2 2 6 2t43 -4q12 -2 15.5 -11t2.5 -21.5t-6.5 -22.5t-9.5 -12h-4q-8 2 -24.5 4t-22.5 6l-6 2q-2 4 -1 13zM381 842v2q-2 4 0 13t4 19.5t3 17.5l1 7q0 2 4 2t43 -4 q12 -2 16.5 -11t2.5 -21.5t-7 -22.5t-9 -13h-5q-8 0 -23 3.5t-24 7.5h-6z" />
<glyph unicode="&#xfd;" horiz-adv-x="716" d="M-66 -184q-4 37 9.5 67.5t38 52t54.5 33t56 11.5q55 2 100.5 -2.5t90.5 -0.5q37 0 77 11q10 23 19.5 45t19.5 45q-25 -23 -54.5 -43.5t-70.5 -30.5q-31 -10 -62.5 -6t-60 16.5t-53 33t-41.5 46.5q-33 51 -47 106.5t-16 108.5t4 103.5t16 93.5t24.5 84t27 76.5t21.5 60.5 t13 35q6 16 18.5 23.5t24 5t18.5 -10.5t3 -22q-4 -10 -10.5 -26.5t-13.5 -37t-13 -40t-10 -33.5q-23 -72 -42.5 -165.5t-2.5 -195.5q6 -49 27.5 -95t56.5 -73q35 -29 80 -24.5t79 30.5q51 35 85 100.5t58.5 147.5t43 172t39.5 174q6 33 18 48.5t22.5 15.5t16.5 -17.5 t2 -52.5q-2 -16 -6 -45t-8 -60.5t-9.5 -63.5t-9.5 -52q-10 -68 -27.5 -146.5t-41.5 -164.5q-10 -33 -21.5 -67t-25.5 -69q68 33 110 82q47 53 76 107.5t45 99.5q13 30 25 55q18 35 32.5 26t14.5 -36q-2 -10 -3 -21.5t-6 -21.5q-4 -12 -6 -22q-6 -16 -19 -49t-40 -80 t-71 -100.5t-117 -94.5q-18 -10 -39 -18t-41 -15q-35 -68 -84 -125q-39 -43 -92.5 -69.5t-110.5 -30.5q-53 -4 -88 6t-57.5 27.5t-32.5 38t-13 39.5zM11.5 -192.5q15.5 -28.5 51.5 -34.5q37 -10 79 0.5t77 33.5q31 16 55.5 44t44.5 61q-43 -4 -87 -5t-87 3t-79.5 -6 t-53.5 -39q-16 -29 -0.5 -57.5zM274 930q-2 14 6 21t20.5 10.5t22.5 2.5t13 -6q2 -6 11 -22t23.5 -34.5t32.5 -35t43 -22.5q-16 -12 -41.5 -12.5t-52.5 11t-49.5 34t-28.5 53.5z" />
<glyph unicode="&#xff;" horiz-adv-x="716" d="M-66 -184q-4 37 9.5 67.5t38 52t54.5 33t56 11.5q55 2 100.5 -2.5t90.5 -0.5q37 0 77 11q10 23 19.5 45t19.5 45q-25 -23 -54.5 -43.5t-70.5 -30.5q-31 -10 -62.5 -6t-60 16.5t-53 33t-41.5 46.5q-33 51 -47 106.5t-16 108.5t4 103.5t16 93.5t24.5 84t27 76.5t21.5 60.5 t13 35q6 16 18.5 23.5t24 5t18.5 -10.5t3 -22q-4 -10 -10.5 -26.5t-13.5 -37t-13 -40t-10 -33.5q-23 -72 -42.5 -165.5t-2.5 -195.5q6 -49 27.5 -95t56.5 -73q35 -29 80 -24.5t79 30.5q51 35 85 100.5t58.5 147.5t43 172t39.5 174q6 33 18 48.5t22.5 15.5t16.5 -17.5 t2 -52.5q-2 -16 -6 -45t-8 -60.5t-9.5 -63.5t-9.5 -52q-10 -68 -27.5 -146.5t-41.5 -164.5q-10 -33 -21.5 -67t-25.5 -69q68 33 110 82q47 53 76 107.5t45 99.5q13 30 25 55q18 35 32.5 26t14.5 -36q-2 -10 -3 -21.5t-6 -21.5q-4 -12 -6 -22q-6 -16 -19 -49t-40 -80 t-71 -100.5t-117 -94.5q-18 -10 -39 -18t-41 -15q-35 -68 -84 -125q-39 -43 -92.5 -69.5t-110.5 -30.5q-53 -4 -88 6t-57.5 27.5t-32.5 38t-13 39.5zM11.5 -192.5q15.5 -28.5 51.5 -34.5q37 -10 79 0.5t77 33.5q31 16 55.5 44t44.5 61q-43 -4 -87 -5t-87 3t-79.5 -6 t-53.5 -39q-16 -29 -0.5 -57.5zM267 863q1 9 3 19.5t3 17.5l1 7q2 2 6 2t43 -4q12 -2 15.5 -11t2.5 -21.5t-6.5 -22.5t-9.5 -12h-4q-8 2 -24.5 4t-22.5 6l-6 2q-2 4 -1 13zM366 842v2q-2 4 0 13t4 19.5t3 17.5l1 7q0 2 4 2t43 -4q12 -2 16.5 -11t2.5 -21.5t-7 -22.5t-9 -13 h-5q-8 0 -23 3.5t-24 7.5h-6z" />
<glyph unicode="&#x152;" horiz-adv-x="1472" d="M2 358.5q-4 75.5 6 146t30.5 136.5t45.5 125q27 59 61.5 109.5t79.5 89.5q45 37 103.5 53t109.5 -8q51 -23 74 -61t33 -68q10 -31 11 -54.5t1 -40.5q-4 -119 -37 -181t-65 -46q-4 2 7 33t23 90q6 31 9.5 66.5t-0.5 76.5q-6 39 -28 79t-65 50q-41 12 -89 -12t-85 -72 q-39 -45 -66.5 -104t-47.5 -125q-23 -66 -34 -137.5t-7 -143.5t28.5 -141t79.5 -110q55 -45 127 -37t131 55q59 45 103.5 109.5t79.5 136.5q63 143 97 296.5t40 299.5q2 72 -7.5 141.5t-37.5 126.5q-27 57 -74 90t-100 31q-55 -4 -101.5 -24.5t-85.5 -50.5t-68.5 -64.5 t-52.5 -63.5q-16 -23 -30.5 -43t-26.5 -37q-18 -25 -30.5 -33t-17.5 -3t-4 19.5t7 35.5q6 14 15.5 31.5t20.5 35t19.5 29.5t10.5 14q18 27 54 67t97 83q35 25 83 45t108 22q61 4 121.5 -30.5t95.5 -94.5q35 -59 51 -123.5t20 -134t-2 -141.5t-18 -143q31 27 64.5 44t64.5 27 q18 4 33.5 7.5t31.5 3.5q-51 33 -77.5 93t-27.5 130.5t22.5 141.5t72.5 120q-10 57 2.5 90t46.5 25q6 0 4 -18.5t0 -47.5q51 35 119 46t132.5 1t113.5 -45t63 -92q6 -25 -2 -57.5t-34.5 -62.5t-70.5 -49t-112 -17q-72 2 -140.5 43t-94.5 104q-20 -35 -31.5 -73t-15.5 -72 q-4 -68 18.5 -128.5t65.5 -93.5q43 -31 97 -49t95 -20q23 0 31 -10.5t6 -23.5t-13.5 -26.5t-29.5 -17.5q-23 -4 -53.5 12.5t-65.5 26.5q-37 8 -82 9t-94 -15q-57 -18 -105 -66.5t-73 -120.5l-12 -43q-10 -43 -11.5 -90t7 -94t28 -91t51.5 -81q31 -37 75 -60.5t92 -33.5 t98.5 -6t95.5 24q45 18 80 52t58.5 75t33.5 88t10 95q0 47 -13 87t-42 68q-27 29 -62.5 40t-70.5 7q-72 -8 -114 -56t-52 -95q-4 -16 -7 -31.5t-7 -30.5q-10 -41 -26.5 -38t-23.5 38q-4 53 19.5 113.5t70.5 103.5q23 20 58 38t75 22t84 -6t85 -41q41 -33 63.5 -77 t29.5 -95.5t0 -103.5t-24 -101q-16 -53 -50 -99.5t-80 -80t-102.5 -52t-113.5 -18.5q-57 -2 -113.5 15.5t-103.5 48t-84 73.5t-57 94q-23 51 -31 105q-23 -47 -48.5 -91t-60.5 -85q-51 -63 -123.5 -112.5t-164.5 -47.5q-47 0 -88 18.5t-74 47t-55.5 65.5t-34.5 74 q-25 78 -29 153.5zM1061 1294q16 -33 39 -63q31 -35 84 -56.5t116 -11.5q29 4 56.5 18.5t38.5 39.5q14 23 7 49t-32 45q-25 18 -58.5 27.5t-70.5 11.5t-72.5 -6.5t-64.5 -22.5q-12 -6 -22.5 -13t-20.5 -18z" />
<glyph unicode="&#x153;" horiz-adv-x="1138" d="M0 330q4 86 30.5 168t75.5 149q47 70 122 111t153 33q78 -10 128 -57.5t66 -94.5q2 -8 4.5 -15.5t6.5 -17.5q39 68 100.5 118t138.5 64q51 10 104.5 -10t80.5 -65q29 -45 29.5 -92.5t-11.5 -88.5q-25 -80 -75 -130t-97 -76q-47 -27 -82 -38.5t-51 -15.5q-86 -23 -127 -4 q10 -57 36.5 -103t72.5 -73q33 -20 68.5 -23t70.5 4t67.5 24.5t57.5 37.5q53 41 84.5 90t48.5 90q6 16 12 34t12 28q16 35 33 26.5t19 -34.5q0 -18 -7.5 -38t-13.5 -38q-6 -14 -21.5 -49t-46 -76t-82 -83t-126.5 -71q-39 -14 -84 -14t-90 16t-82 50t-60 77q-4 4 -5 9.5 t-5 11.5q-4 0 -10 -1t-10 1q-20 0 -31 2q-23 -37 -58 -76q-23 -25 -55.5 -46t-72 -33.5t-82.5 -10.5t-86 25q-43 20 -72 55t-47.5 76t-25.5 86t-5 88zM79 380.5q-11 -79.5 1 -151.5q14 -76 70 -122.5t124 -36.5q55 8 98.5 42.5t71.5 77.5q-53 27 -69.5 86.5t-12.5 124.5 q2 33 9.5 75t24 78t42 61.5t62.5 25.5q-23 41 -64 62.5t-100 9.5q-63 -10 -114.5 -50t-96.5 -133q-35 -70 -46 -149.5zM432 367q0 -33 10 -71t37 -44q16 29 26.5 63.5t16.5 69.5q2 16 3 31.5t5 29.5q6 74 0 103q-4 12 -18 17t-31.5 -12t-32 -61t-16.5 -126zM592 311 q29 4 93.5 14.5t145.5 59.5q49 31 93.5 89t46.5 130q0 35 -17.5 65.5t-50.5 43.5q-31 14 -70.5 6t-74.5 -31q-66 -39 -105 -105.5t-53 -144.5q-2 -12 -3 -25.5t-5 -27.5q-4 -37 0 -74z" />
<glyph unicode="&#x178;" horiz-adv-x="653" d="M-168 201q0 20 9 30.5t20.5 10.5t20.5 -10.5t9 -28.5q2 -10 7.5 -36t42.5 -46q37 -23 97 -30t126 -15q16 -2 47 -7.5t64.5 -19.5t64.5 -40.5t49 -69.5q20 98 49 235t64 289q-16 -27 -34.5 -52.5t-41.5 -50.5q-31 -33 -70 -61.5t-88 -40.5q-47 -12 -101 -5t-95 50 q-37 41 -50.5 89t-17.5 93q-4 47 -3 91.5t5 85.5q8 86 23.5 163.5t31.5 147.5q35 137 68 229t43 121q23 59 45.5 92t56.5 12q4 0 -23.5 -68.5t-64 -186t-71.5 -274.5t-43 -335q0 -41 5 -85t19.5 -80t40 -58.5t66.5 -20.5q39 -2 73.5 14.5t65.5 43t57.5 59.5t46.5 68 q49 82 83 163t57 152q25 96 52.5 198.5t51 187.5t40 140.5t18.5 59.5q6 16 16 22.5t21.5 5.5t17.5 -11.5t2 -24.5q-10 -41 -28.5 -110.5t-41 -158t-47 -187.5t-49.5 -202q-33 -139 -66.5 -284.5t-64.5 -279.5t-56.5 -245.5t-41.5 -179.5q-10 -37 -33 -39t-25 39 q-4 86 -29.5 153.5t-82.5 86.5q-55 16 -126 20t-137 23q-16 4 -40.5 15t-48 30.5t-40 49.5t-16.5 73zM421 1477q1 9 3 19.5t3 17.5l1 7q2 2 6 2t43 -4q12 -2 15.5 -11t2.5 -21.5t-6.5 -22.5t-9.5 -12h-4q-8 2 -24.5 4t-22.5 6l-6 2q-2 4 -1 13zM520 1456v2q-2 4 0 13t4 19.5 t3 17.5l1 7q0 2 4 2t43 -4q12 -2 16.5 -11t2.5 -21.5t-7 -22.5t-9 -13h-5q-8 0 -23 3.5t-24 7.5h-6z" />
<glyph unicode="&#x2c6;" horiz-adv-x="700" d="M263 875.5q-1 9.5 1 11.5q6 -4 16.5 7t23.5 26.5t28.5 31t32.5 19.5q16 -4 29.5 -19.5t24.5 -31t21.5 -27.5t20.5 -8q2 0 1 -9.5t-4 -19.5t-9.5 -18.5t-14.5 -8.5q-12 2 -33.5 16.5t-38.5 39.5q-14 -12 -36.5 -28.5t-30.5 -20.5q-10 -2 -16.5 5t-10.5 16t-5 18.5z" />
<glyph unicode="&#x2dc;" horiz-adv-x="772" d="M285 881q-10 10 12 28q10 10 32.5 17.5t47.5 -0.5q25 -10 36 -15.5t18 -7.5t11 -1t15 5l4 -2q8 -4 17.5 -17.5t13.5 -21.5q0 -6 -3 -8q-2 -4 -11 -10t-27 -10q-23 -6 -45.5 1t-32.5 13q-14 6 -20.5 7t-12.5 -1t-11 -5t-7 -5q-4 -2 -8.5 0t-28.5 33z" />
<glyph unicode="&#x2000;" horiz-adv-x="798" />
<glyph unicode="&#x2001;" horiz-adv-x="1596" />
<glyph unicode="&#x2002;" horiz-adv-x="798" />
<glyph unicode="&#x2003;" horiz-adv-x="1596" />
<glyph unicode="&#x2004;" horiz-adv-x="532" />
<glyph unicode="&#x2005;" horiz-adv-x="399" />
<glyph unicode="&#x2006;" horiz-adv-x="266" />
<glyph unicode="&#x2007;" horiz-adv-x="266" />
<glyph unicode="&#x2008;" horiz-adv-x="199" />
<glyph unicode="&#x2009;" horiz-adv-x="319" />
<glyph unicode="&#x200a;" horiz-adv-x="88" />
<glyph unicode="&#x2010;" horiz-adv-x="714" d="M221 338q0 12 32 15t73 3t84 -4t67 -8q6 0 8 -4q4 -8 3 -24.5t-5 -24.5q-4 -6 -8 -6q-8 -2 -43 -2t-75 1t-75.5 3t-43.5 2q-8 2 -13.5 6t-3.5 43z" />
<glyph unicode="&#x2011;" horiz-adv-x="714" d="M221 338q0 12 32 15t73 3t84 -4t67 -8q6 0 8 -4q4 -8 3 -24.5t-5 -24.5q-4 -6 -8 -6q-8 -2 -43 -2t-75 1t-75.5 3t-43.5 2q-8 2 -13.5 6t-3.5 43z" />
<glyph unicode="&#x2012;" horiz-adv-x="714" d="M221 338q0 12 32 15t73 3t84 -4t67 -8q6 0 8 -4q4 -8 3 -24.5t-5 -24.5q-4 -6 -8 -6q-8 -2 -43 -2t-75 1t-75.5 3t-43.5 2q-8 2 -13.5 6t-3.5 43z" />
<glyph unicode="&#x2013;" horiz-adv-x="714" d="M98 338q0 8 33 12t83 5t110.5 1t117 -2t99.5 -5t59 -5q6 0 8 -4q4 -8 3 -24.5t-5 -24.5q-4 -6 -8 -6q-6 -2 -42 -2t-87 1t-111.5 1t-112.5 1t-88 2t-42 1q-8 2 -13.5 6t-3.5 43z" />
<glyph unicode="&#x2014;" horiz-adv-x="1236" d="M100 338q0 8 71 12t177.5 5t232.5 1t238.5 -2t193.5 -5t97 -5q6 0 8 -4q4 -8 3 -24.5t-5 -24.5q-4 -6 -8 -6q-4 -2 -79 -2t-182.5 1t-233.5 1t-234.5 1t-182 2t-79.5 1q-8 2 -13.5 6t-3.5 43z" />
<glyph unicode="&#x2019;" horiz-adv-x="407" d="M195 1262q12 18 20 43q8 20 16.5 49.5t12.5 66.5q0 12 13 15.5t27.5 0.5t26 -14.5t11.5 -29.5q-4 -35 -18.5 -60.5t-31 -45t-32 -31t-23.5 -15.5q-10 -4 -20.5 2t-1.5 19z" />
<glyph unicode="&#x2026;" horiz-adv-x="1468" d="M203 24.5q2 12.5 5 25.5t7 23.5t6 12.5q0 4 12.5 2t47.5 -18q8 -4 -2.5 -32t-16.5 -38q-16 -2 -37.5 3t-19.5 7q-4 2 -2 14.5zM692 24.5q2 12.5 5 25.5t7.5 23.5t6.5 12.5q0 4 12 2t47 -18q8 -4 -2 -32t-16 -38q-16 -2 -38 3t-20 7q-4 2 -2 14.5zM1182 24.5 q2 12.5 5 25.5t7 23.5t6 12.5q0 4 12.5 2t47.5 -18q8 -4 -2.5 -32t-16.5 -38q-16 -2 -37.5 3t-19.5 7q-4 2 -2 14.5z" />
<glyph unicode="&#x202f;" horiz-adv-x="319" />
<glyph unicode="&#x205f;" horiz-adv-x="399" />
<glyph unicode="&#x20ac;" horiz-adv-x="1177" d="M205 1085.5q-6 49.5 16 104.5q6 12 17.5 17t20.5 2t12 -15t-5 -33q-12 -29 -8 -63.5t23.5 -64t55.5 -49t91 -15.5q8 16 16.5 31.5t18.5 29.5q27 43 62.5 82t78.5 66.5t91 42t100 8.5q78 -8 128 -63.5t54 -145.5q0 -20 -3 -51t-14.5 -68t-30 -76t-46.5 -75 q-27 -31 -51.5 -18t-12.5 42q14 37 19.5 84t-7 84t-45 54.5t-92.5 -7.5q-39 -14 -85 -33.5t-91 -31.5q-25 -10 -51 -13q0 -2 -4 -10q-20 -45 -35.5 -92t-28.5 -98q29 -2 54.5 -3t40.5 -6q6 0 8 -2q4 -8 3 -22t-5 -21q-4 -6 -8 -6q-6 -2 -37 -1t-70 1q-12 -53 -18 -108 q68 -4 102 -11q6 0 8 -4q4 -6 3 -20t-5 -21q-2 -6 -8 -6h2q-8 -2 -39 -2t-70 2q-12 -127 7.5 -211t55.5 -133t82 -66.5t91 -11.5q49 8 89 52.5t70.5 99.5t50.5 107t28 77q8 29 18 37t18.5 2t12.5 -22.5t-2 -36.5q-2 -6 -11.5 -37t-26 -73t-42 -89t-60 -87t-79 -65.5 t-99.5 -25.5q-59 2 -102 25.5t-72 55.5t-45 67.5t-25 60.5q-18 66 -22 135.5t2 140.5q-29 0 -48.5 1t-23.5 1q-8 0 -12 4.5t-2 36.5q0 10 26.5 13.5t65.5 3.5q4 23 7 44t7 44q0 6 1.5 11t3.5 11q-29 0 -48.5 1t-25.5 1t-11.5 4.5t-0.5 38.5q0 10 28.5 13.5t69.5 1.5 q12 51 27.5 101t37.5 97q-53 2 -96 26t-68.5 61.5t-31.5 87zM506 983q18 2 45 12.5t55.5 22.5t57 23.5t53.5 17.5q86 16 132 -34t42 -146q33 66 30 124t-28 99t-67 61.5t-89 12.5q-78 -14 -134 -68.5t-97 -124.5z" />
<glyph unicode="&#x25fc;" horiz-adv-x="798" d="M0 0v799h799v-799h-799z" />
</font>
</defs>
</svg>
